<mxfile host="Electron" modified="2024-08-13T22:24:31.845Z" agent="Mozilla/5.0 (Windows NT 10.0; Win64; x64) AppleWebKit/537.36 (KHTML, like Gecko) draw.io/24.6.4 Chrome/124.0.6367.207 Electron/30.0.6 Safari/537.36" etag="96SL2deK-PYhdSDdrnlU" version="24.6.4" type="device">
  <diagram name="Page-1" id="hLbFzippDiMkh6jRAJrl">
    <mxGraphModel dx="3684" dy="2092" grid="1" gridSize="10" guides="1" tooltips="1" connect="1" arrows="1" fold="1" page="1" pageScale="1" pageWidth="850" pageHeight="1100" math="0" shadow="0">
      <root>
        <mxCell id="0" />
        <mxCell id="1" parent="0" />
        <mxCell id="a2hpf2Qi4_110at0T1eS-5" value="&lt;font style=&quot;font-size: 18px;&quot;&gt;DB&lt;/font&gt;" style="shape=cylinder3;whiteSpace=wrap;html=1;boundedLbl=1;backgroundOutline=1;size=15;fillColor=#ffe6cc;strokeColor=#d79b00;" parent="1" vertex="1">
          <mxGeometry x="230" y="250" width="120" height="150" as="geometry" />
        </mxCell>
        <mxCell id="AUQC9zS0uZprfF4SP3dZ-16" value="File Notes" style="rounded=1;whiteSpace=wrap;html=1;" parent="1" vertex="1">
          <mxGeometry x="530" y="1730" width="120" height="60" as="geometry" />
        </mxCell>
        <mxCell id="hUWde75QBHBQGM5C3ecS-1" value="&lt;b style=&quot;font-size: 19px;&quot;&gt;&lt;font style=&quot;font-size: 19px;&quot;&gt;Policy Subgraph&lt;/font&gt;&lt;/b&gt;&lt;div style=&quot;font-size: 19px;&quot;&gt;&lt;font style=&quot;font-size: 19px;&quot;&gt;&lt;br&gt;&lt;/font&gt;&lt;div&gt;&lt;b&gt;&lt;font style=&quot;font-size: 19px;&quot;&gt;Claim Subgraph&lt;/font&gt;&lt;/b&gt;&lt;/div&gt;&lt;div&gt;&lt;font style=&quot;font-size: 19px;&quot;&gt;&lt;br&gt;&lt;/font&gt;&lt;/div&gt;&lt;div&gt;&lt;b&gt;&lt;font style=&quot;font-size: 19px;&quot;&gt;Participant Subgraph&lt;/font&gt;&lt;/b&gt;&lt;/div&gt;&lt;div&gt;&lt;font style=&quot;font-size: 19px;&quot;&gt;&lt;br&gt;&lt;/font&gt;&lt;/div&gt;&lt;div&gt;&lt;b&gt;&lt;font style=&quot;font-size: 19px;&quot;&gt;Vehilce Subgrap&lt;/font&gt;&lt;/b&gt;&lt;/div&gt;&lt;div&gt;&lt;font style=&quot;font-size: 19px;&quot;&gt;&lt;br&gt;&lt;/font&gt;&lt;/div&gt;&lt;/div&gt;&lt;div style=&quot;font-size: 19px;&quot;&gt;&lt;b&gt;&lt;font style=&quot;font-size: 19px;&quot;&gt;Customer Subgraph&lt;/font&gt;&lt;/b&gt;&lt;/div&gt;&lt;div style=&quot;font-size: 19px;&quot;&gt;&lt;font style=&quot;font-size: 19px;&quot;&gt;&lt;br&gt;&lt;/font&gt;&lt;/div&gt;&lt;div style=&quot;font-size: 19px;&quot;&gt;&lt;b&gt;&lt;font style=&quot;font-size: 19px;&quot;&gt;FileNote Subgraph&lt;/font&gt;&lt;/b&gt;&lt;/div&gt;&lt;div style=&quot;font-size: 19px;&quot;&gt;&lt;font style=&quot;font-size: 19px;&quot;&gt;&lt;br&gt;&lt;/font&gt;&lt;/div&gt;&lt;div style=&quot;font-size: 19px;&quot;&gt;&lt;font style=&quot;font-size: 19px;&quot;&gt;&lt;br&gt;&lt;/font&gt;&lt;/div&gt;&lt;div style=&quot;font-size: 19px;&quot;&gt;&lt;b style=&quot;&quot;&gt;&lt;font style=&quot;font-size: 19px;&quot;&gt;&lt;font style=&quot;font-size: 19px;&quot;&gt;BUILDS UNIFIED SCHEMA FOR ALL&lt;/font&gt; &lt;font style=&quot;font-size: 19px;&quot;&gt;SUBGRAPHS&lt;/font&gt;&lt;/font&gt;&lt;/b&gt;&lt;/div&gt;" style="rounded=1;whiteSpace=wrap;html=1;fillColor=#fff2cc;strokeColor=#d6b656;" parent="1" vertex="1">
          <mxGeometry x="-765" y="50" width="120" height="570" as="geometry" />
        </mxCell>
        <mxCell id="hUWde75QBHBQGM5C3ecS-2" value="&lt;font style=&quot;font-size: 23px;&quot;&gt;&lt;b style=&quot;font-size: 23px;&quot;&gt;Router&lt;br&gt;&lt;/b&gt;&lt;/font&gt;" style="text;html=1;align=center;verticalAlign=middle;resizable=0;points=[];autosize=1;strokeColor=#666666;fillColor=#f5f5f5;fontSize=23;fontColor=#333333;" parent="1" vertex="1">
          <mxGeometry x="-760" y="-10" width="100" height="40" as="geometry" />
        </mxCell>
        <mxCell id="hUWde75QBHBQGM5C3ecS-3" value="&lt;b&gt;&lt;font size=&quot;1&quot; style=&quot;&quot;&gt;&lt;u style=&quot;font-size: 19px;&quot;&gt;Supergraph&lt;/u&gt;&lt;/font&gt;&lt;/b&gt;" style="text;html=1;align=center;verticalAlign=middle;resizable=0;points=[];autosize=1;strokeColor=none;fillColor=none;" parent="1" vertex="1">
          <mxGeometry x="-770" y="460" width="130" height="40" as="geometry" />
        </mxCell>
        <mxCell id="hUWde75QBHBQGM5C3ecS-24" style="edgeStyle=orthogonalEdgeStyle;rounded=0;orthogonalLoop=1;jettySize=auto;html=1;entryX=0;entryY=0.5;entryDx=0;entryDy=0;strokeWidth=3;" parent="1" source="hUWde75QBHBQGM5C3ecS-4" target="hUWde75QBHBQGM5C3ecS-22" edge="1">
          <mxGeometry relative="1" as="geometry" />
        </mxCell>
        <mxCell id="hUWde75QBHBQGM5C3ecS-4" value="&lt;font style=&quot;font-size: 21px;&quot;&gt;Vehicle&lt;/font&gt;" style="rounded=1;whiteSpace=wrap;html=1;fillColor=#f8cecc;strokeColor=#b85450;" parent="1" vertex="1">
          <mxGeometry x="-260" y="94" width="120" height="60" as="geometry" />
        </mxCell>
        <mxCell id="hUWde75QBHBQGM5C3ecS-5" value="&lt;font style=&quot;font-size: 23px;&quot;&gt;Claims&lt;/font&gt;" style="rounded=1;whiteSpace=wrap;html=1;fillColor=#f8cecc;strokeColor=#b85450;" parent="1" vertex="1">
          <mxGeometry x="-420" y="210" width="120" height="60" as="geometry" />
        </mxCell>
        <mxCell id="hUWde75QBHBQGM5C3ecS-6" value="&lt;font style=&quot;font-size: 20px;&quot;&gt;Policy&lt;/font&gt;" style="rounded=1;whiteSpace=wrap;html=1;fillColor=#f8cecc;strokeColor=#b85450;" parent="1" vertex="1">
          <mxGeometry x="-545" y="370" width="120" height="60" as="geometry" />
        </mxCell>
        <mxCell id="hUWde75QBHBQGM5C3ecS-7" value="Subgraph" style="text;html=1;align=center;verticalAlign=middle;resizable=0;points=[];autosize=1;strokeColor=none;fillColor=none;" parent="1" vertex="1">
          <mxGeometry x="-545" y="335" width="80" height="30" as="geometry" />
        </mxCell>
        <mxCell id="hUWde75QBHBQGM5C3ecS-8" value="&lt;b&gt;&lt;font style=&quot;font-size: 15px;&quot;&gt;Subgraph&lt;/font&gt;&lt;/b&gt;" style="text;html=1;align=center;verticalAlign=middle;resizable=0;points=[];autosize=1;strokeColor=none;fillColor=none;" parent="1" vertex="1">
          <mxGeometry x="-415" y="180" width="90" height="30" as="geometry" />
        </mxCell>
        <mxCell id="hUWde75QBHBQGM5C3ecS-9" value="&lt;b&gt;&lt;font style=&quot;font-size: 17px;&quot;&gt;Subgraph&lt;/font&gt;&lt;/b&gt;" style="text;html=1;align=center;verticalAlign=middle;resizable=0;points=[];autosize=1;strokeColor=none;fillColor=none;" parent="1" vertex="1">
          <mxGeometry x="-250" y="64" width="100" height="30" as="geometry" />
        </mxCell>
        <mxCell id="hUWde75QBHBQGM5C3ecS-29" value="" style="edgeStyle=orthogonalEdgeStyle;rounded=0;orthogonalLoop=1;jettySize=auto;html=1;strokeWidth=3;" parent="1" source="hUWde75QBHBQGM5C3ecS-10" edge="1">
          <mxGeometry relative="1" as="geometry">
            <mxPoint x="230" y="315.00000000000045" as="targetPoint" />
          </mxGeometry>
        </mxCell>
        <mxCell id="hUWde75QBHBQGM5C3ecS-10" value="&lt;font style=&quot;font-size: 20px;&quot;&gt;Participant&lt;/font&gt;" style="rounded=1;whiteSpace=wrap;html=1;fillColor=#f8cecc;strokeColor=#b85450;" parent="1" vertex="1">
          <mxGeometry x="-260" y="270" width="130" height="60" as="geometry" />
        </mxCell>
        <mxCell id="hUWde75QBHBQGM5C3ecS-11" value="&lt;b&gt;&lt;font style=&quot;font-size: 14px;&quot;&gt;Subgraph&lt;/font&gt;&lt;/b&gt;" style="text;html=1;align=center;verticalAlign=middle;resizable=0;points=[];autosize=1;strokeColor=none;fillColor=none;" parent="1" vertex="1">
          <mxGeometry x="-240" y="245" width="90" height="30" as="geometry" />
        </mxCell>
        <mxCell id="hUWde75QBHBQGM5C3ecS-27" style="edgeStyle=orthogonalEdgeStyle;rounded=0;orthogonalLoop=1;jettySize=auto;html=1;entryX=0.268;entryY=0.982;entryDx=0;entryDy=0;entryPerimeter=0;strokeWidth=3;" parent="1" source="hUWde75QBHBQGM5C3ecS-12" target="a2hpf2Qi4_110at0T1eS-5" edge="1">
          <mxGeometry relative="1" as="geometry">
            <mxPoint x="250" y="510" as="targetPoint" />
          </mxGeometry>
        </mxCell>
        <mxCell id="hUWde75QBHBQGM5C3ecS-12" value="&lt;font style=&quot;font-size: 19px;&quot;&gt;File Notes&lt;/font&gt;" style="rounded=1;whiteSpace=wrap;html=1;fillColor=#f8cecc;strokeColor=#b85450;" parent="1" vertex="1">
          <mxGeometry x="-270" y="480" width="120" height="60" as="geometry" />
        </mxCell>
        <mxCell id="hUWde75QBHBQGM5C3ecS-13" value="&lt;b&gt;&lt;font style=&quot;font-size: 16px;&quot;&gt;Subgraph&lt;/font&gt;&lt;/b&gt;" style="text;html=1;align=center;verticalAlign=middle;resizable=0;points=[];autosize=1;strokeColor=none;fillColor=none;" parent="1" vertex="1">
          <mxGeometry x="-270" y="450" width="100" height="30" as="geometry" />
        </mxCell>
        <mxCell id="hUWde75QBHBQGM5C3ecS-14" value="&lt;font style=&quot;font-size: 19px;&quot;&gt;Customer&lt;/font&gt;" style="rounded=1;whiteSpace=wrap;html=1;fillColor=#f8cecc;strokeColor=#b85450;" parent="1" vertex="1">
          <mxGeometry x="-100" y="330" width="120" height="60" as="geometry" />
        </mxCell>
        <mxCell id="hUWde75QBHBQGM5C3ecS-17" value="" style="endArrow=none;dashed=1;html=1;rounded=0;strokeWidth=7;" parent="1" edge="1">
          <mxGeometry width="50" height="50" relative="1" as="geometry">
            <mxPoint x="-590" y="700" as="sourcePoint" />
            <mxPoint x="-590" y="-80" as="targetPoint" />
          </mxGeometry>
        </mxCell>
        <mxCell id="hUWde75QBHBQGM5C3ecS-19" value="" style="endArrow=none;dashed=1;html=1;rounded=0;strokeWidth=7;" parent="1" edge="1">
          <mxGeometry width="50" height="50" relative="1" as="geometry">
            <mxPoint x="99" y="705.6666259765625" as="sourcePoint" />
            <mxPoint x="90" y="-40" as="targetPoint" />
          </mxGeometry>
        </mxCell>
        <mxCell id="hUWde75QBHBQGM5C3ecS-22" value="&lt;font style=&quot;font-size: 18px;&quot;&gt;Rest APIs&lt;/font&gt;" style="rounded=1;whiteSpace=wrap;html=1;fillColor=#ffe6cc;strokeColor=#d79b00;" parent="1" vertex="1">
          <mxGeometry x="240" y="94" width="120" height="60" as="geometry" />
        </mxCell>
        <mxCell id="hUWde75QBHBQGM5C3ecS-25" style="edgeStyle=orthogonalEdgeStyle;rounded=0;orthogonalLoop=1;jettySize=auto;html=1;entryX=-0.05;entryY=0.656;entryDx=0;entryDy=0;entryPerimeter=0;strokeWidth=3;" parent="1" source="hUWde75QBHBQGM5C3ecS-14" target="a2hpf2Qi4_110at0T1eS-5" edge="1">
          <mxGeometry relative="1" as="geometry" />
        </mxCell>
        <mxCell id="hUWde75QBHBQGM5C3ecS-26" style="edgeStyle=orthogonalEdgeStyle;rounded=0;orthogonalLoop=1;jettySize=auto;html=1;entryX=0;entryY=0;entryDx=0;entryDy=15;entryPerimeter=0;strokeWidth=3;" parent="1" source="hUWde75QBHBQGM5C3ecS-5" target="a2hpf2Qi4_110at0T1eS-5" edge="1">
          <mxGeometry relative="1" as="geometry" />
        </mxCell>
        <mxCell id="hUWde75QBHBQGM5C3ecS-28" style="edgeStyle=orthogonalEdgeStyle;rounded=0;orthogonalLoop=1;jettySize=auto;html=1;entryX=0.145;entryY=1;entryDx=0;entryDy=-4.35;entryPerimeter=0;strokeWidth=3;" parent="1" source="hUWde75QBHBQGM5C3ecS-6" target="a2hpf2Qi4_110at0T1eS-5" edge="1">
          <mxGeometry relative="1" as="geometry" />
        </mxCell>
        <mxCell id="hUWde75QBHBQGM5C3ecS-30" value="&lt;b&gt;&lt;font style=&quot;font-size: 15px;&quot;&gt;Subgraph&lt;/font&gt;&lt;/b&gt;" style="text;html=1;align=center;verticalAlign=middle;resizable=0;points=[];autosize=1;strokeColor=none;fillColor=none;" parent="1" vertex="1">
          <mxGeometry x="-85" y="300" width="90" height="30" as="geometry" />
        </mxCell>
        <mxCell id="hUWde75QBHBQGM5C3ecS-31" value="" style="endArrow=none;dashed=1;html=1;rounded=0;strokeWidth=7;" parent="1" edge="1">
          <mxGeometry width="50" height="50" relative="1" as="geometry">
            <mxPoint x="-860" y="700.6666259765625" as="sourcePoint" />
            <mxPoint x="-860" y="-80" as="targetPoint" />
          </mxGeometry>
        </mxCell>
        <mxCell id="hUWde75QBHBQGM5C3ecS-35" value="&lt;b&gt;&lt;font style=&quot;font-size: 17px;&quot;&gt;UI&amp;nbsp;&lt;/font&gt;&lt;/b&gt;&lt;div&gt;&lt;b&gt;&lt;font style=&quot;font-size: 17px;&quot;&gt;SPA&lt;/font&gt;&lt;/b&gt;&lt;/div&gt;&lt;div&gt;&lt;b&gt;&lt;font style=&quot;font-size: 17px;&quot;&gt;Mobile App&lt;/font&gt;&lt;/b&gt;&lt;/div&gt;&lt;div&gt;&lt;b&gt;&lt;font style=&quot;font-size: 17px;&quot;&gt;APIs&lt;/font&gt;&lt;/b&gt;&lt;/div&gt;" style="rounded=1;whiteSpace=wrap;html=1;fillColor=#e1d5e7;strokeColor=#9673a6;" parent="1" vertex="1">
          <mxGeometry x="-1220" y="217.5" width="270" height="165" as="geometry" />
        </mxCell>
        <mxCell id="hUWde75QBHBQGM5C3ecS-42" value="&lt;font size=&quot;1&quot; style=&quot;&quot;&gt;&lt;b style=&quot;font-size: 23px;&quot;&gt;GraphQL API with Schema Federated&lt;/b&gt;&lt;/font&gt;" style="text;html=1;align=center;verticalAlign=middle;resizable=0;points=[];autosize=1;strokeColor=#666666;fillColor=#f5f5f5;fontColor=#333333;" parent="1" vertex="1">
          <mxGeometry x="-455" y="-10" width="430" height="40" as="geometry" />
        </mxCell>
        <mxCell id="hUWde75QBHBQGM5C3ecS-43" value="&lt;font style=&quot;font-size: 23px;&quot;&gt;&lt;b style=&quot;font-size: 23px;&quot;&gt;Source of Data&lt;/b&gt;&lt;/font&gt;" style="text;html=1;align=center;verticalAlign=middle;resizable=0;points=[];autosize=1;strokeColor=#666666;fillColor=#f5f5f5;fontSize=23;fontColor=#333333;" parent="1" vertex="1">
          <mxGeometry x="195" y="-10" width="190" height="40" as="geometry" />
        </mxCell>
        <mxCell id="hUWde75QBHBQGM5C3ecS-44" value="&lt;font style=&quot;font-size: 24px;&quot;&gt;&lt;span style=&quot;font-size: 24px;&quot;&gt;Consumers&lt;/span&gt;&lt;/font&gt;" style="text;html=1;align=center;verticalAlign=middle;resizable=0;points=[];autosize=1;strokeColor=#666666;fillColor=#f5f5f5;fontStyle=1;fontSize=24;fontColor=#333333;" parent="1" vertex="1">
          <mxGeometry x="-1170" y="-10" width="150" height="40" as="geometry" />
        </mxCell>
        <mxCell id="hUWde75QBHBQGM5C3ecS-45" value="" style="endArrow=none;dashed=1;html=1;dashPattern=1 3;strokeWidth=6;rounded=0;" parent="1" edge="1">
          <mxGeometry width="50" height="50" relative="1" as="geometry">
            <mxPoint x="-630" y="120" as="sourcePoint" />
            <mxPoint x="-260" y="120" as="targetPoint" />
          </mxGeometry>
        </mxCell>
        <mxCell id="hUWde75QBHBQGM5C3ecS-46" value="" style="endArrow=none;dashed=1;html=1;dashPattern=1 3;strokeWidth=6;rounded=0;" parent="1" edge="1">
          <mxGeometry width="50" height="50" relative="1" as="geometry">
            <mxPoint x="-640" y="239.29000000000002" as="sourcePoint" />
            <mxPoint x="-420" y="239" as="targetPoint" />
          </mxGeometry>
        </mxCell>
        <mxCell id="hUWde75QBHBQGM5C3ecS-47" value="" style="endArrow=none;dashed=1;html=1;dashPattern=1 3;strokeWidth=5;rounded=0;entryX=0;entryY=0.5;entryDx=0;entryDy=0;" parent="1" target="hUWde75QBHBQGM5C3ecS-10" edge="1">
          <mxGeometry width="50" height="50" relative="1" as="geometry">
            <mxPoint x="-640" y="304.58000000000004" as="sourcePoint" />
            <mxPoint x="-420" y="304.29" as="targetPoint" />
          </mxGeometry>
        </mxCell>
        <mxCell id="hUWde75QBHBQGM5C3ecS-49" value="" style="endArrow=none;dashed=1;html=1;dashPattern=1 3;strokeWidth=2;rounded=0;entryX=0;entryY=0.5;entryDx=0;entryDy=0;" parent="1" target="hUWde75QBHBQGM5C3ecS-6" edge="1">
          <mxGeometry width="50" height="50" relative="1" as="geometry">
            <mxPoint x="-640" y="400.00000000000006" as="sourcePoint" />
            <mxPoint x="-260" y="395.42" as="targetPoint" />
          </mxGeometry>
        </mxCell>
        <mxCell id="hUWde75QBHBQGM5C3ecS-50" value="" style="endArrow=none;dashed=1;html=1;dashPattern=1 3;strokeWidth=5;rounded=0;" parent="1" edge="1">
          <mxGeometry width="50" height="50" relative="1" as="geometry">
            <mxPoint x="-635" y="349" as="sourcePoint" />
            <mxPoint x="-105" y="349.28999999999996" as="targetPoint" />
          </mxGeometry>
        </mxCell>
        <mxCell id="7t95IsRG9MrjCQRzBxsa-2" value="Text" style="edgeLabel;html=1;align=center;verticalAlign=middle;resizable=0;points=[];" vertex="1" connectable="0" parent="hUWde75QBHBQGM5C3ecS-50">
          <mxGeometry x="-0.483" y="-4" relative="1" as="geometry">
            <mxPoint x="-1" as="offset" />
          </mxGeometry>
        </mxCell>
        <mxCell id="hUWde75QBHBQGM5C3ecS-51" value="" style="endArrow=none;dashed=1;html=1;dashPattern=1 3;strokeWidth=6;rounded=0;entryX=0;entryY=0.5;entryDx=0;entryDy=0;" parent="1" target="hUWde75QBHBQGM5C3ecS-12" edge="1">
          <mxGeometry width="50" height="50" relative="1" as="geometry">
            <mxPoint x="-640" y="510" as="sourcePoint" />
            <mxPoint x="-120" y="518.8599999999999" as="targetPoint" />
          </mxGeometry>
        </mxCell>
        <mxCell id="hUWde75QBHBQGM5C3ecS-53" value="&lt;div style=&quot;font-size: 20px;&quot;&gt;&lt;ul&gt;&lt;li&gt;DataFetcher - Read data from source and implement logic to extract the data&lt;/li&gt;&lt;li&gt;Defined Schmea and federate schema with other subgraph&lt;/li&gt;&lt;/ul&gt;&lt;/div&gt;" style="rounded=0;whiteSpace=wrap;html=1;strokeWidth=3;" parent="1" vertex="1">
          <mxGeometry x="-435" y="670" width="450" height="200" as="geometry" />
        </mxCell>
        <mxCell id="hUWde75QBHBQGM5C3ecS-55" value="&lt;font style=&quot;font-size: 20px;&quot;&gt;Registered schema in Apollo&lt;/font&gt;&lt;div style=&quot;font-size: 20px;&quot;&gt;&lt;br&gt;&lt;/div&gt;" style="rounded=0;whiteSpace=wrap;html=1;strokeWidth=4;" parent="1" vertex="1">
          <mxGeometry x="-865" y="670" width="280" height="200" as="geometry" />
        </mxCell>
        <mxCell id="hUWde75QBHBQGM5C3ecS-91" value="" style="edgeStyle=orthogonalEdgeStyle;rounded=0;orthogonalLoop=1;jettySize=auto;html=1;" parent="1" source="hUWde75QBHBQGM5C3ecS-59" target="hUWde75QBHBQGM5C3ecS-62" edge="1">
          <mxGeometry relative="1" as="geometry" />
        </mxCell>
        <mxCell id="hUWde75QBHBQGM5C3ecS-59" value="" style="rounded=1;whiteSpace=wrap;html=1;" parent="1" vertex="1">
          <mxGeometry x="-1220" y="-890" width="355" height="320" as="geometry" />
        </mxCell>
        <mxCell id="hUWde75QBHBQGM5C3ecS-60" value="HTML" style="rounded=1;whiteSpace=wrap;html=1;" parent="1" vertex="1">
          <mxGeometry x="-1180" y="-765" width="120" height="130" as="geometry" />
        </mxCell>
        <mxCell id="hUWde75QBHBQGM5C3ecS-61" value="Java Script" style="rounded=1;whiteSpace=wrap;html=1;" parent="1" vertex="1">
          <mxGeometry x="-1020" y="-765" width="120" height="130" as="geometry" />
        </mxCell>
        <mxCell id="hUWde75QBHBQGM5C3ecS-92" value="" style="edgeStyle=orthogonalEdgeStyle;rounded=0;orthogonalLoop=1;jettySize=auto;html=1;" parent="1" source="hUWde75QBHBQGM5C3ecS-62" target="hUWde75QBHBQGM5C3ecS-63" edge="1">
          <mxGeometry relative="1" as="geometry" />
        </mxCell>
        <mxCell id="hUWde75QBHBQGM5C3ecS-62" value="" style="rounded=1;whiteSpace=wrap;html=1;" parent="1" vertex="1">
          <mxGeometry x="-770" y="-890" width="250" height="320" as="geometry" />
        </mxCell>
        <mxCell id="hUWde75QBHBQGM5C3ecS-63" value="" style="rounded=1;whiteSpace=wrap;html=1;" parent="1" vertex="1">
          <mxGeometry x="-410" y="-890" width="160" height="320" as="geometry" />
        </mxCell>
        <mxCell id="hUWde75QBHBQGM5C3ecS-64" value="" style="rounded=1;whiteSpace=wrap;html=1;" parent="1" vertex="1">
          <mxGeometry x="530" y="-770" width="120" height="60" as="geometry" />
        </mxCell>
        <mxCell id="hUWde75QBHBQGM5C3ecS-65" value="" style="rounded=1;whiteSpace=wrap;html=1;" parent="1" vertex="1">
          <mxGeometry x="-130" y="-882" width="250" height="320" as="geometry" />
        </mxCell>
        <mxCell id="hUWde75QBHBQGM5C3ecS-66" value="" style="shape=cylinder3;whiteSpace=wrap;html=1;boundedLbl=1;backgroundOutline=1;size=15;" parent="1" vertex="1">
          <mxGeometry x="-100" y="-850" width="60" height="80" as="geometry" />
        </mxCell>
        <mxCell id="hUWde75QBHBQGM5C3ecS-67" value="" style="shape=cylinder3;whiteSpace=wrap;html=1;boundedLbl=1;backgroundOutline=1;size=15;" parent="1" vertex="1">
          <mxGeometry x="-85" y="-690" width="60" height="80" as="geometry" />
        </mxCell>
        <mxCell id="hUWde75QBHBQGM5C3ecS-68" value="" style="shape=cylinder3;whiteSpace=wrap;html=1;boundedLbl=1;backgroundOutline=1;size=15;" parent="1" vertex="1">
          <mxGeometry x="50" y="-682" width="60" height="80" as="geometry" />
        </mxCell>
        <mxCell id="hUWde75QBHBQGM5C3ecS-69" value="" style="shape=cylinder3;whiteSpace=wrap;html=1;boundedLbl=1;backgroundOutline=1;size=15;" parent="1" vertex="1">
          <mxGeometry x="-25" y="-762" width="60" height="80" as="geometry" />
        </mxCell>
        <mxCell id="hUWde75QBHBQGM5C3ecS-70" value="" style="shape=cylinder3;whiteSpace=wrap;html=1;boundedLbl=1;backgroundOutline=1;size=15;" parent="1" vertex="1">
          <mxGeometry x="20" y="-860" width="60" height="80" as="geometry" />
        </mxCell>
        <mxCell id="hUWde75QBHBQGM5C3ecS-72" value="Salesforce Object" style="text;html=1;align=center;verticalAlign=middle;resizable=0;points=[];autosize=1;strokeColor=none;fillColor=none;" parent="1" vertex="1">
          <mxGeometry x="-55" y="-930" width="120" height="30" as="geometry" />
        </mxCell>
        <mxCell id="hUWde75QBHBQGM5C3ecS-73" value="SOQL Queries" style="text;html=1;align=center;verticalAlign=middle;resizable=0;points=[];autosize=1;strokeColor=none;fillColor=none;" parent="1" vertex="1">
          <mxGeometry x="-370" y="-930" width="100" height="30" as="geometry" />
        </mxCell>
        <mxCell id="hUWde75QBHBQGM5C3ecS-74" value="APEX" style="text;html=1;align=center;verticalAlign=middle;resizable=0;points=[];autosize=1;strokeColor=none;fillColor=none;" parent="1" vertex="1">
          <mxGeometry x="-675" y="-930" width="60" height="30" as="geometry" />
        </mxCell>
        <mxCell id="hUWde75QBHBQGM5C3ecS-75" value="LWC" style="text;html=1;align=center;verticalAlign=middle;resizable=0;points=[];autosize=1;strokeColor=none;fillColor=none;" parent="1" vertex="1">
          <mxGeometry x="-1100" y="-930" width="50" height="30" as="geometry" />
        </mxCell>
        <mxCell id="hUWde75QBHBQGM5C3ecS-94" value="" style="edgeStyle=orthogonalEdgeStyle;rounded=0;orthogonalLoop=1;jettySize=auto;html=1;entryX=0.006;entryY=0.474;entryDx=0;entryDy=0;entryPerimeter=0;" parent="1" target="hUWde75QBHBQGM5C3ecS-65" edge="1">
          <mxGeometry relative="1" as="geometry">
            <mxPoint x="-250" y="-730" as="sourcePoint" />
            <mxPoint x="-145" y="-730.71" as="targetPoint" />
          </mxGeometry>
        </mxCell>
        <mxCell id="hUWde75QBHBQGM5C3ecS-95" value="Current State" style="text;html=1;align=center;verticalAlign=middle;resizable=0;points=[];autosize=1;strokeColor=none;fillColor=none;" parent="1" vertex="1">
          <mxGeometry x="-1495" y="-752" width="90" height="30" as="geometry" />
        </mxCell>
        <mxCell id="hUWde75QBHBQGM5C3ecS-97" value="LWC" style="text;html=1;align=center;verticalAlign=middle;resizable=0;points=[];autosize=1;strokeColor=none;fillColor=none;" parent="1" vertex="1">
          <mxGeometry x="-850" y="-510" width="50" height="30" as="geometry" />
        </mxCell>
        <mxCell id="hUWde75QBHBQGM5C3ecS-98" value="Salesforce Object" style="text;html=1;align=center;verticalAlign=middle;resizable=0;points=[];autosize=1;strokeColor=none;fillColor=none;" parent="1" vertex="1">
          <mxGeometry x="-280" y="-510" width="120" height="30" as="geometry" />
        </mxCell>
        <mxCell id="hUWde75QBHBQGM5C3ecS-99" value="" style="endArrow=none;dashed=1;html=1;rounded=0;fontStyle=1;fontSize=45;" parent="1" edge="1">
          <mxGeometry width="50" height="50" relative="1" as="geometry">
            <mxPoint x="-1650" y="-520" as="sourcePoint" />
            <mxPoint x="190" y="-520" as="targetPoint" />
          </mxGeometry>
        </mxCell>
        <mxCell id="jhL--qEv1WUznDw9V6xF-1" value="&lt;div style=&quot;font-size: 21px;&quot;&gt;&lt;b&gt;&lt;span style=&quot;color: rgba(0, 0, 0, 0.9); font-family: -apple-system, system-ui, BlinkMacSystemFont, &amp;quot;Segoe UI&amp;quot;, Roboto, &amp;quot;Helvetica Neue&amp;quot;, &amp;quot;Fira Sans&amp;quot;, Ubuntu, Oxygen, &amp;quot;Oxygen Sans&amp;quot;, Cantarell, &amp;quot;Droid Sans&amp;quot;, &amp;quot;Apple Color Emoji&amp;quot;, &amp;quot;Segoe UI Emoji&amp;quot;, &amp;quot;Segoe UI Emoji&amp;quot;, &amp;quot;Segoe UI Symbol&amp;quot;, &amp;quot;Lucida Grande&amp;quot;, Helvetica, Arial, sans-serif; text-align: left; background-color: rgba(0, 0, 0, 0.08);&quot;&gt;&quot;Graph Router&quot; that is responsible for planning queries, executing them and returning the response to the end client,&amp;nbsp; security, reporting etc. This is a key piece that every vendor has a solution for.&lt;/span&gt;&lt;span style=&quot;box-sizing: inherit; margin: var(--artdeco-reset-base-margin-zero); padding: var(--artdeco-reset-base-padding-zero); border: var(--artdeco-reset-base-border-zero); vertical-align: var(--artdeco-reset-base-vertical-align-baseline); background-color: rgba(0, 0, 0, 0.08); outline: var(--artdeco-reset-base-outline-zero); font-family: -apple-system, system-ui, BlinkMacSystemFont, &amp;quot;Segoe UI&amp;quot;, Roboto, &amp;quot;Helvetica Neue&amp;quot;, &amp;quot;Fira Sans&amp;quot;, Ubuntu, Oxygen, &amp;quot;Oxygen Sans&amp;quot;, Cantarell, &amp;quot;Droid Sans&amp;quot;, &amp;quot;Apple Color Emoji&amp;quot;, &amp;quot;Segoe UI Emoji&amp;quot;, &amp;quot;Segoe UI Emoji&amp;quot;, &amp;quot;Segoe UI Symbol&amp;quot;, &amp;quot;Lucida Grande&amp;quot;, Helvetica, Arial, sans-serif; color: rgba(0, 0, 0, 0.9); text-align: left; white-space: pre !important;&quot; class=&quot;white-space-pre&quot;&gt; &lt;/span&gt;&lt;/b&gt;&lt;br&gt;&lt;/div&gt;" style="rounded=0;whiteSpace=wrap;html=1;strokeWidth=3;" parent="1" vertex="1">
          <mxGeometry x="-970" y="-230" width="440" height="200" as="geometry" />
        </mxCell>
        <mxCell id="jhL--qEv1WUznDw9V6xF-2" value="&lt;div&gt;&lt;span style=&quot;color: rgba(0, 0, 0, 0.9); font-family: -apple-system, system-ui, BlinkMacSystemFont, &amp;quot;Segoe UI&amp;quot;, Roboto, &amp;quot;Helvetica Neue&amp;quot;, &amp;quot;Fira Sans&amp;quot;, Ubuntu, Oxygen, &amp;quot;Oxygen Sans&amp;quot;, Cantarell, &amp;quot;Droid Sans&amp;quot;, &amp;quot;Apple Color Emoji&amp;quot;, &amp;quot;Segoe UI Emoji&amp;quot;, &amp;quot;Segoe UI Emoji&amp;quot;, &amp;quot;Segoe UI Symbol&amp;quot;, &amp;quot;Lucida Grande&amp;quot;, Helvetica, Arial, sans-serif; text-align: left; background-color: rgba(0, 0, 0, 0.08);&quot;&gt;&lt;font style=&quot;font-size: 25px;&quot;&gt;GraphQL servers / Libraries&lt;/font&gt;&lt;/span&gt;&lt;br&gt;&lt;/div&gt;" style="rounded=0;whiteSpace=wrap;html=1;strokeWidth=3;" parent="1" vertex="1">
          <mxGeometry x="-475" y="-230" width="510" height="200" as="geometry" />
        </mxCell>
        <mxCell id="jhL--qEv1WUznDw9V6xF-3" value="" style="shape=image;verticalLabelPosition=bottom;labelBackgroundColor=default;verticalAlign=top;aspect=fixed;imageAspect=0;image=data:image/png,iVBORw0KGgoAAAANSUhEUgAABDwAAAH/CAYAAAC7Ls1eAAAAAXNSR0IArs4c6QAAAARnQU1BAACxjwv8YQUAAAAJcEhZcwAAFiUAABYlAUlSJPAAANc4SURBVHhe7N0LXM33/wfw19aczYQJI7eMFRrD3OZ+Fy1qyFhiZeSajeyvGLEpmxhhiq3m0rLcisaSW3M3162Fmqa5VChD1hy/5v+9fOqcckJUTnk99/g+en8/3+/3nO/5nrOj77vP5/15Lisr6x6IiIiIiIiIiEqR58VPIiIiIiIiIqJSgwkPIiIiIiIiIip1mPAgIiIiIiIiolKHCQ8iIiIiIiIiKnWY8CAiIiIiIiKiUocJDyIiIiIiIiIqdZjwICIiIiIiIqJShwkPIiIiIiIiIip1mPAgIiIiIiIiolKHCQ8iIiIiIiIiKnWY8CAiIiIiIiKiUocJDyIiIiIiIiIqdZjwICIiIiIiIqJShwkPIiIiIiIiIip1mPAgIiIiIiIiolKHCQ8iIiIiIiIiKnWY8CAiIiIiIiKiUocJDyIiIiIiIiIqdZjwICIiIiIiIqJShwkPIiIiIiIiIip1mPAgIiIiIiIiolKHCQ8iIiIiIiIiKnWY8CAiIiIiIiKiUocJDyIiIiIiIiIqdZjwICIiIiIiIqJShwkPIiIiIiIiIip1mPAgIiIiIiIiolKHCQ8iIiIiIiIiKnWY8CAiIiIiIiKiUocJDyIiIiIiIiIqdZjwICIiIiIiIqJShwkPIiIiIiIiIip1mPAgIiIiIiIiolKHCQ8iIiIiIiIiKnWY8CAiIiIiIiKiUocJDyIiIiIiIiIqdZjwICIiIiIiIqJShwkPIiIiIiIiIip1nsvKyronYiKiYnPxXDwO7/hRrBFRcRng9rGIiIiIiEo3JjyI6KmQEx5TB/USa0RUHF5r1ASfrdki1oiIiIhKNw5pISIiIiIiIqJShz08iOip0O/hUau+FVp176PE9Gx57rnnRFS87t17uv/0FfR1P+n5blq+SPnJHh5ERET0LGHCg4ieirwJj7lh25WYiArXn6d/w6dD+yoxEx5ERET0LOGQFiIiIiIiIiIqdZjwICIiIiIiIqJShwkPIiIiIiIiIip1mPAgIiIiIiIiolKHCQ8iIiIiIiIiKnWY8CAiIiIiIiKiUocJDyIiIiIiIiIqdZjwICJ6bFpcPrUNG77ygvvgQMSKVtWDttFDZaUjfncEQn094DItAmmimYiIiIjoUTHhQUTGLysOKx17oP3UbcgQTcYhDceD5mPBtiM4lq4VbdketK0YpCfg4FofeLkMgk0v6dopiy2cxnthecRJpGWJ/YzV1b1Y7rsYS3afRPwTvOnaS0ewQU6aONqKa9ADNoOd4eUbgoPnH/LAV08i8ivDxx5LEfsQERERkdFiwoOIjJ72UDi+uyEFx9cj6oLaRvnISsexgDHSjfkYeATtQsyldL0kkRbn449g5VIP9OvvgcgLTyERU2wyEL9Cug4uXlggJ01u6F5rRnoyYnYHw2PUILjM32cw+aM9vhguLh7w3Wb4WPcJgYgXbURERERknJjwICIjl46YLbukW3VZEtb+FKdEZEBWMiKnDIX7xoRcPWFMzcxhVdMcdcuKBlmWGcyraMRKaaNF7FJXuKxLEJ8bicZUuQZWNc1gKprk/eKjvOG+9KRuP1nmPiyZEYH47MbsY6ubIvuK1ejVEVYiJiIiIiLjxIQHERm3lL2IOi5iyeXtexFv7MMxngrpJj9gInxjc+7S0aK/D9ZF7kDU2tUIDl6NkAgpXuaFUVYaNB7uhBb6CZBSRHsqEL4R6WLNDHbjliEqIly5BsHBYYjaFobg4dY5yYvzkV5Y8rMuRZSxfys2ZF/GRm5Yl33sqnDsjlwN//6t0b+DtdiBiIiIiIwVEx5EZNQu792MgyJW3IhA5KFcf4/XSYmAh6i10H5iMA5GzYdHdv0FOwe4jPdC6O4kZDwgYZJ2KAQLpujVvbAfBPcZwTh2KZ/nfBI3EhAd4AW3nBoRtug3zANLouIeeI4GXYjA4pybfA3ajvsW/qNbo0aeThym9bth+JKtCOxvIVpUaRHu4hx6wCMiSboOgfAa5oCu4rycJq7DeXnH9JNqTYzBuroW6jUKRLShYhvHF+v2m78Nx1ZKr9ded5zLlPmIPJ4sds6PFsmHguE9Snc+6nVKMHCd0hETGqGeq6Tx8HnwtLeEqYlokJmYwcrJD4vtzUSDFhs27MwpjHrntu51tOjcATX0j9WYo8VoHwxpJNaJiIiIyGgx4UFExisrDtFhSWrc1R5DKsqBdHO6ZefDi5eeDoGHdIN9MLv+gjYD8fFHsMR3BAZMi8DlvDfKWcmImTUI/WYEY8MpvboXmek4digE7i4O8Ip82I35o9PGBsLNaQy8Nx5BbE6NCC3SUk4idL47+rosRuxDX6RO/E8huplg3poAb3tzsZIP/Zv4PJLCpmDgjHWIScmQzkimhbbRG6grhzd/R6RcE0O/EKtyjdbBe/wgeEQ84BpFzYd7iPR6M8W6dFz8qW3wnToCLnmHleg7LV2rGSGIPq87H/U6jUHfKXney1w9grrhgzyJHR0NGg9xQWexhtOHpfdBDV8spxv0cmzDehwT7URERERUsjDhQURGK6dYqWRAezfYOYib+EctXmqwbgOQcXwxpgTp1wJRh4N47c/uISEdWlGte1E5p4eEFjH+E7H8VL635Y8uJQJeU9chZ/SJdPNdVz5PM113DK20z4QZjzodazLij+uyIwNsu+d6vQV1+Wq6klhQr4F87Sww+B0xhKP2G2ghn2ZZM3Ft9WuDaHFw6XxE6y7j/bKP06uHIR8XH+EFnx0POlAijtW9J9KRsYuxRO84bfzvuh5Brd5GkwcN2zFrhnb1RYwj+O2cGpm+1QM9s5/jagTch43BykPJ0Ba01w0RERERPVVMeBCRkdIrVqrphs6tNKjbvrcoFJmEtT8+pHhpTXsErs1dtyHQ0VJXtyEiHMeyexrkGg5ihgGeq7F7nVr3YrO0n79d9tCHdKwMfYTeJQ+kxbFVgTgokh2axi4IXrcVIfJ5rt2K/d+6oa04SW1sMCJzum08SCrOi5t1wBpWVnoZgceiQdvR34prIF27yGUYUFtsMrHGB6uk84wIE9dWrQ2ybmR2TYuT2K+XfMnlrcnYvFEcp9TD+Bbe7XXDSqLDduKyWMvNDHaTpfMRx+Z+T4CYqL05iaFb1/Xmi62WO9F1v8qoXEeEEm2GeFPMumGU9HpyrmJmApbPcIbNYHcmPoiIiIhKECY8iMg4XdiJ9WJogqZTJ/Uv9XU7wE4ZVwFcjtRLWBhSoQ7M9e92TczQeORUjBfHQ7sPx8S8omnH9+YMB9H0cMf4rnrDQUxM0WKkOwZk3/1K+z7REIesOBz8ObtrhwXGf+wEK2WojlDbEZOGZw/DyEDkwUKalUa/lkbO4o5IvfxADnlIjP5QEI1+AkUDU5NkHFzrAy8XXa0TpzV/5CQIYs7+IaI8apijcq56GBbo+YnetT2/F79fFbG+Rk4YZWMBTfax2e+JWEX8X3i8wUYalC8nQsnl67r+NDXs/bF+jiPaVtS9du2NODXxMX4xjhk6TyIiIiIyKkx4EJFR0tWk0KBv+9biZtoCbXuKG3HtLmz4+SFDIO5jgQaNRQgtLl9VeyIkJ+mSCn3fzn4uPWWt0SRnDtKTOJtdEfNxXE3C+ex8R81uaJHdc0JPDatmOedw+XTCIw5rKTwtWjfLt2eE9vhiuDiNgEfQLsRc0tU60WZq1d44clyQHhBl68MqZ1jJX7h8TYQPU1ZvSEz2ExdYOpL13su6NXLXPancyg1+a8MQ4pkn8XEuAu4fLdbVIiEiIiIio8SEBxEZH7kXxHZxK63pgM5v6W42a7zdG9k5i5ituqEMj8rcQjedaMbtWyLS0Zjel+6QmME8u2eIdHddaEMaKpiivAhzqVYHLUSIR3quSjCvKUL8gfOGxoXk1DPJXQPDkJyeFHnJtUdmRCA+J8GgQeXq6mPq1x8pGHPUzUl4ZODWEyYRyleqLiLJ+aSHfD5ScDmnFoz0XhjK8piYom5XNfERPFIvEXQ1At9tL7witkRERERU+JjwICKjo1+sVO7J4Z49jam8jAjUzUZyejP2PErxUj36vTlg8qII9BhMMOj3BNDknxAoKK0Wd0SYS+pfOCbCB82momOBBs2zEw5abIjad3+nB7lWiFJz40uMykkwFMz5netzao/U7eGFdZFbsXmVWscjeKEb2qqbCihZr/7Ik19bTR0LUedFEvs74h+UQDl/Antyhie1hlVOUssAE1NYOfoheLQuYXbwyOknrOdCREREREWJCQ8iMjJ6xUof6hGKl+rLSsBvJ0Qs3Vxb1VYLX+r3+og5ZuDxMk7iaE6WpRkaPOjG+GGqWqBudm7i3GH8bmBUzvmTR3Jef41Glqgs4gdp3M0eNUSs3e2P5fkVDn0CGWnZPRosMcSpG2rod+q4niK9G48h4zR+Oy1ivI7Xsl/E46rbHF1yaqLswoZt+fXCkD5nK0IgyrhA06MTWjxoRhehRpuOut43GbcMJ6yIiIiIyCgw4UFExkWvWKmclFCma8276E1pmm/xUm0Gbun31shKxsH507DkkljX9EE7MTam8lsdc4bJXN7ojSW/6CULspIQ7euPSLEKad8W+kVGc2hxJ9/hJ3rbTKzRtlP22Z+Ez+frcFnvuIxTgfANyb5JN4VdW10y5oEa98OoxtmPm47Qqa7wXXcSl/NmjtIv4PJNET+2JMTH61+jZMSEb8tnhhU9/2bkHg50IwEbZvjprm2j7nirqogfmzXshur1wgiYiAW78yQ9pOeNnDUaXr9kXxwLjB/UIeczJYtfMQa+EXHIyPOeXj6wN6f3jaa+xSMlo4iIiIjo6XguKyvrnoiJiIrNxXPxmDqolxLXqm+FuWHblTg+wAEuG9WbaU0Pb0R9kvtGVJWEDaNGYIEYZtJ5chh8bMyUGhMewxbjoNosPYAprKqWl27Ib+F8inSzLZrlREpb92/hZ5ddpDIDsf6ucIvUdbcwNTNHjbJA2tVkpOUcaIZRi8IwvJFYRTIiJzrDV+mhYI5Jy1djQE7vjwdsuySdp5t0ntmPm32emWmIT9c7y1Ze2DKn20OmVtWTcRJL3DwQmmsGEbnORmV1dpQ8jy8nBzxX+cOuuvQ6I9zRb6nau6XtuNXws89dwFOmv4/+4+a+RpL6bli3zFHtcSLPDjM1QmlWlDWDldmLBs7FDMPnrcGopuLd1n8vG03A5kX2eZIL0mvtJb1WJbZH4PYJOUkrOQETOWUEfGP1Hj/f55U+C+Okz4L+683chwWO3tig7KZ7ndr0ZJzPSa7l/SwYrz9P/4ZPh/ZV4tcaNcFna7YoMREREVFpxx4eRGQ8sk5ie2R2zwH92VnysoDNgGYiBmI27DTcu0CbgfhLyYjPk+ywsveBT06yQ2aKxuMWwVuvOGqGdHMrH6uf7LD7ZFGeG9zyeoUuk7Hki8WIzcmZPGBbTXv4zLaHVfbTZZ+nfrKjviMCPQuQ7JCZNsP4r/0wPueBZVqkpaivJe+NfuOuDgXqUVG5lyuG5+yve1zlGlVths7ZCZ1ze3E8uydNXpnpBs+ls/siXbLjSZmYw262H0bV13s8g88rvafS++6TJ7mTcWiHSHbIdK8zJ9mhkR7/vs8CERERERkbJjyIyGhoD23V3WhWtIfd2/nfAJt2csAAEeN8CKJzamwIFa3Rs6nejCRlzdDibSf4LQ9D8DjdtK85pJvknnPkKUid0NPKLCfRoKlojs5dXeC/KgyePfL2ejBF26Euau0HuZeGVXOY5wx3edA2qemtCQj+xg+efZrBKmfKUw3qWrXG8MnLsGWJG6wKlO0QKjbDkCVbsXnuBAx/21LvsdXXYtW0G8aP80HI2q1KQqVGQYqElm2GUYHL4K1/ztJ17dxnMoK/9oO3u5P6esveRlqqgRoitZvdf237TEDgqq15ElCFwNQaw5eEY91sFwzQ/xzI17hmMwxw9ZKugfSe2lve91kw7eqNqGVeGJ/r+sk9PSzRs7/0WletNvBZICIiIiJjwyEtRPRU5Dek5Yk8dBgEFTv9IS12ftjvruuZQ8WDQ1qIiIjoWcUeHkRERERERERU6jDhQURERERERESlDhMeRERERERERFTqMOFBRERERERERKUOi5YS0VNRJEVLieg+LFpKREREzyr28CAiIiIiIiKiUocJDyIiIiIiIiIqdZjwICIiIiIiIqJShwkPIiIiIiIiIip1mPAgIiIiIiIiolKHCQ8iIiIiIiIiKnWY8CAiIiIiIiKiUocJDyIiIiIiIiIqdZjwICIiIiIiIqJShwkPIiIiIiIiIip1mPAgIiIiIiIiolKHCQ8iIiIiIiIiKnWY8CAiIiIiIiKiUocJDyIiIiIiIiIqdZjwICIiIiIiIqJShwkPIiIiIiIiIip1mPAgIiqh7t2790wuRERERESP4rmsrCz+9khExe7iuXhMHdRLiWvVt8LcsO1KTKq/b9/E6QuJOHvpPP5MvYhLaam4ciMdf2fcQMa/mbhzV/vM3vybPP88XtK8iPJlTVGlwiuo/koV1K5qjnrVa6FBzdfQ2MJS7EmyP0//hk+H9lXi1xo1wWdrtigxERERUWnHhAcRPRVMeOT23717+Dn2F+w/fQK/JPyG+EvnxRYqKM0LZfBWfWu83aApOli/Bes6r4stzyYmPIiIiOhZxYQHET0VTHiofv79KLb+EoPoUweReedf0fponnvuORE9Wwras6Ve9dqweas93mnZRekF8qxhwoOIiIieVUx4ENFT8SwnPP69q8Xan3/Eun1RynCV/Lxh0QCv16yH18wtUKNydVSrVBWvmFaEaVlTpRfDs5rwyPrvP/yr/Re3/rmFtFvXkZJ2BReuXEJiynnEXzyHi1cviz3v17lxS7zX0RZdmrQWLaUfEx5ERET0rGLCg4ieimcx4SHX3fg2egNW7YrAzX8yRKuOnNhoZ90KLRo0R/PXm6CMyQtiCxXElb+v4fgfv+LI6WPYH3sYt//9R2zRafpaQ7j27I+ezdqJltKLCQ8iIiJ6VjHhQURPxbOW8Aj9+Ud8vTUUaTf/Fi2qiuUqoHfr7uj5Vhc0rMNim0Vhz8l9iD62BzG/HhAtOm0bNsO4d95Xan6UVkx4EBER0bOKCQ8ieiqelYTHqT/PYkHEd/gl/jfRoqpXoy4GduyLfu36iBYqahevXkL4/q1YF7MZWf9liVbVsG72mPKuK0xMTERL6cGEBxERET2rnhc/iYiokAX+9AOGzJucK9lRs0oNeL3/MVb939dMdhSzWlVrYrzDSITPXo3BXd8VrSp5mJH9nPE4eOakaCEiIiKiko4JDyKiQnbt5nWMXTYbizavFi2qEX2G4odPv4Ftm56ihZ6GSuVfURIfqz2XofObuhoeiSkXMMJ/Opb/FCZaiIiIiKgkY8KDiKgQHT8Xh/f9PLDntyOiBWhp1QwrP1kKl97vixYyBq9Vt8CcEdOVHjemZcuJVmDh5lX4v+/mizUiIiIiKqmY8CAiKiTbT+zHsAX/h4vXUkUL4NrHCQvH+aB+zddECxkbucfNd58sQZtGLUULsOXIbgz/yhPpGTdECxERERGVNEx4EBEVgvBDO/DRCl/8d0+tA/3yS2WV3gOuvZ2UdTJu1c2qYf7o2RjSbYBoAX5J+A0f+n+Ky+lXRAsRERERlSRMeBARPSE52eG1aqFYA+q8WgtLJ8zLVR+CSoZx9iPw8YDRYg04czERo7+eheTrV0ULEREREZUUTHgQET0BeRiLfrKjYR1LZQiLZa16ooVKmgGd+mGG8xSxBvxxOQkTl/sg499/RAsRERERlQRMeBARPSa5QOmkb+aKNTXZ4ec2G6++UkW0UEnVq2VXzBo+VawBsUkJmPztF2KNiIiIiEoCJjyIiB5D2q2/4blyQU7NDnkYi8+IT/GKaUVlnUq+7m91wjSnSWIN2Pv7MXy2dplYIyIiIiJjx4QHEdFj+HSNPy5cS1Hisi++pPQGYM+O0qdP6x4Y3ddFrAGhP/+IsH0/iTUiIiIiMmZMeBARFdDyn8Kw57cjYg2Y5jS5ZNXsSA3HrHe6oe874xGtm0GX8jG0hyP6te0t1oBZoUtx9uKfYo2IiIiIjBUTHkREBfDr+bNYuHmVWANcer+PLk3bi7VCdjMBMf6TMXFIb/RVEhS9MczVDX5rduLCTbEPFYtPBrsrNVpk9+7dw9z1K5SYiIiIiIwXEx5ERAUwf9N3IgJaWjXDiD5DxVohuxwOXzm5EXUCiTe1olGL66kJiAmdgx+OZog2Ki4fDxwrIuBw/K9YuTNcrBERERGRMWLCg4joEa39eSt+SfhNrAHjHT4UUWFLRrSfPw5kSmGVjnCbEYhVoZuxNnAJZo62RcsKHdGupam6KxWbNywa4MM+zmINWLRlNa7dvC7WiIiIiMjYMOFBRPQI7mb9D8u2rRVrgGtvJ7xes4jqdlw7jANn5cAUzv83C3ZtLFGpginK1bJGy74emLlmFtpVUPakYvZB7yGwFO/7v9o7WLZV95kgIiIiIuPChAcR0SP4Jmo9rt5IV+KaVczh2sdJiYtElviJOqhUWYT6TMRPA66fCEeQpxPGDpRrfkjLwIHwnbcGR5PyGQKTlYHEaD/4DhV1QuT9VxzG9ZxzuN/1w0HwG9sP/ZW6It0weGg+dUVEcdQpoUnq82yZgymiHkn/IU7w9d+KC/JpGToH/51INXQON5NwdI0npmfvm1PX5MHnXJj033t51pY/kv8Sa0RERERkTJjwICJ6iDt3tVi5S1evwbnnIBEVkbLlUU4J4nD0VzXJ8lBZyYiZLt38T/fHpl+Tkf6SOerVMEdtpOPAniDM+mgmYq6JfXP8hcjpAzFx4VacQmXUq2aKMpnS/uGeGDE1/P6EQ/ZzzF6DmCQtTKvJz2EGXFfriox1nYyYy2JfPWfCAhC08ANMDNiL26bS81TQ4O7NZByI8sPYcTPhP1U+hx04rZG2VdIA8jlEzcGY+84hAZs+csGs0MM4dVujvL56NUyhVeqaeGKYqz/OFENpk45N2qKtdSuxBqzeFSEiIiIiIjImz2VlZd0TMRFRsbl4Lh5TB/VS4lr1rTA3bLsSG6Pvdobjyw3fKPFr5hZYPXWZEhedDBydNxCz9mgBjTl6unpjhK0lyuXbsyMDZ5Z+gClb05WaHx6zp6GzhUZsA+5e3ImoeGvYdTNXG+SeF67+OCqFZarZwsvXAy2rqZtwMQyzJgTgqPTU7T5aD8+eZmKD7jnKWLvC79OhqJc9rCYrGUcXTsCsXfLzO2BegDsalpXa8z7Pl9LzVFGOwO2j/pgyMxwX5BX5nOfMQudayibc/jUA3p5hOAMN7KZthls7vddyIACrtfZw7miOMtnX4+ZhBE3wxKZrQEPXYMwbYCE2FJ1jCacwcYmnWAN2zgmGeaWqYs24/Hn6N3w6tK8Sv9aoCT5bs0WJiZ51p48eFBERERWHRi3biqj4MOFBRE9FSUp49P1sDM4lK7fm8Bg0Hg7tbZW4SGWcwGp3T4SlihlaylriXbeJeK+b9f2Jj7gAfDglDKmwgNvXwbB72P1+TiLCEu4rAtGzhmgXLoQ6YeyaZKDLLGyc0hFl5MazARg7KQwXKtji8xUeaJq3ZmpWEiInuCAwCeg8eTM8ukk75DyPuXReIXnOKxnRE5zgnwj0nLIZ7l30H1CLo/N6Y9YeoEzf+dg4urloz9/t6MkYvPAEUG80vlk8CNn5m6IkJzzkxIdsrO0QjLcrwmFOT4AJDyLDVs+bhai1wWKNiIiKktmr1eG/7ZBYKz4c0kJE9AD74o7nJDsqlCuPfu16K3GRM20O5xXrsWh0d7W3RGYCNi0cj8HvuSAwOkndRzjzczhS5aCLK2wK1LmhjMF6ILUbtlGD5DRkjxBJ3L9V6Y1Rraft/ckOmYkFrMXMMQfiE5SfOpXw4ksi1KdkUqSXWjHvA2pQ29JSie4+Yl2OclbNoZQSTUxBcc2b0q9dHxEBEYd3iYiIiIiIjAV7eBDRU1FSenh4rvoKEYd2KvF7Xd/FBIeRSlyssjJwYe8aBC4Jwyl5qlpo0HJ0MGb2lYeoJCN6khP8zwJNR4bgcwcxbOVBcnpeWMM9aAl65u0OccIffaeHAw3csWqBAyrpPccjsZ2PLeOaP+R5dI/57ue74JqnE8f1LeMxLCBO91j65MKlmwMQvut3xKVm4K50PSpV0iDjuhw7YN6P7mgodi1qDjOcce1GmhIvHz8bHazfUmJjwh4eRIbp9/B4Gt2siYieBdnDB59WDw8mPIjoqSgpCY9Wkxxx+18ly4Dlk76CtUUDJX4q9GtlaDrCc6U8Pa0ucdBydIhIgjzEEyQ8qlnbonN9XU0NQyq1HAq7lmZFkvC4K52bx+xwJCojfTSoVK0yKplI+19LxnWlrXgTHkvCV2Dt7k1K7NjeBrOcJiixMWHCg8gw/YSH85SZsBnsosRERFQ40q+kwL3P20rMIS1EREYmJvaXnGRH3Wq1n26yQ2ZijpZjJ8JOjrV7ceac0lqsandygvNo9wcuSrKjKKSGw2e6nOzQoGFfX3yz6SesCgrBohUhWBXgjpZit+LUuWl7EQF7pM8LERERERkPJjyIiPJx4PQJEQFt32gtoqesbB3UFHU6Uq/IU9aa49U66vrRc3+pQaHTe44zf+CuGha7xB+DoMz40mUafEa3QbUHdzQpFk1es0bVipWV+OqNdJz681HH/RARERFRUWPCg4goH78kxIoIaNWgmYiKSX7FOi8fxjGlZqkGtczVnhTWrbur9T9jViNGqV5a+HKeY88P2HNZaSp22ky1hGrThq9n1zvVydI+tURMqwa6ITdH/9B9ZoiIiIjo6WLCg4jIgFuZt3HmYqJYk26y6zUWUfFIDOqHwW6e2BR9AhdSM3D7ZhISowMw3T1A6eWAKg5o/4ayK8q0ccUYaw2gjYPfJ3Nw9LKYyla4nRAO/4U7cVusP44y7VwxUX4OxMHf8/7nuHv5MFYvDC/SGVIqVVe7thzdvRep+gmh1J0Imh4EdYLYW8hQRyEVmzfrizdCcjLxtIiIiIiI6GljwoOIyIDf//pDREAjCyu8qHlRrBWDzL2I3pqB2xcPI2jhZIx17YfBQ1wwcaGYpaVKR3j6jka97CllTczRc6YvBsljPK7txKyRvdF/iBMmjpSWIb0x+CN/REcvwo9PNNrCHJ1nLoBzPd1zDB6qe47+Iz0RFh2AsAPZE9kWvmo27ni3ihScDcCHA/upzz20N/q6zkFk5TboXEHeay9+3JEsB8VGv7ZL3F9PobAKERERERnEhAcRkQHxl86LCLCsUU9ExaRsRwxdOA2ubSxRr0J2oQp5RpLmeHf0fKwKmoV2NURzNtPmcF6xHos+skW7aqbAzWQkXk7GBVRG0zaD4P55IAY9ac1VU2sMWqh7Du119TlSTSqjXRdXzPx6PdzaSc9dVKTX6Lp4PtzaWKCcNkN67jRc17yhXJNv587CxNnusLPQ4FTAOpwRhxSHeuZ18WIZ9X1Kvn4V1zNuKjERERERPV2clpaIngpjn5Z29tqvsfbnrUo84d2ReK/Lu0pMZMiI+RNx9q8EJQ7xmIfm9RopsTHgtLREhnFaWiKiosVpaYmIjNTFaykiAmpWNhcRkWE1KlcXEXAprYgqxxIR0SPKQPxKD7hMCUSsPKFZYbmRgEjfEehn1wPte/WAzWAPRF8Q24jIKDHhQURkwNWbuvKb1SpVFRGRYdVekYuLqK78nSYiIiJjlYGDvrbKTbuj/0nkLkOdm/b4YjhK+7W388HBoivTVLiu7sTykJOIP7UOvlvU3ndPLOMklowdA9/dSUgzMYNVTXNUqdQclrXFdiIySkx4EBEZoF+H4ZXyr4iIyLCK5SqKKPdnh4jIOJmirZsHemqAy5E+CM1vgqmsJGwJiIA8G3nbkS5oW4RlmgpV1daweUt6cWUt0b+DpWh8MvFrvBF6FdA0dsO6jWEIDl6NkGVOqCu2P21p8dsQOmMEvCOLt3D3Y8lKR3xUMLxHeSFa16GWqEgw4UFEZEBG5j8ikn4tfOllEREZZlq2nIikz86/us8OEZHRMuuGD4bI032nY3lABAz1TUuLnI8Fcg3vui4Yb1eShneao+fcrdgfsQwD6oumJxKHgzvl7i3mGO/uiBrZs6QZjWQcXDofSw4lIUN/2nZjdXUvls8PQfT5DNwRTURFhQkPIiID7tzVdfDViBk4iPLzkt60xfqfHSIiY1Z38GSMkkdtng7Eyp/zjFfJ2IeVK+KkwBRDRjuirtHd5BcnLW7dkH9WwosvKQ1EVEIw4UFEZMC9e/+JCHjuOX5V0qPj1GdEVGKYWGPIR31QQ7qh37A4GLGZol1aj13pjw1aQNPVA6Pk4SFCRvw2LJninFO4s6ujM7y+2oZ4JSGQW6y/uo9HhOFhFga3H1+stLWfGIG0rAzER/jAzVGtN9J1cCBiH5JTzn5MdXFHpP6QiZQIeEjtjgFyIicD56Pmw2uw+tjt7RzgNiMEsbleRzIiJ8qP44FQZT0OvsPEY/ufVFpU2fv1wJLj0mrKEaycMgg2yjnYwmubeH1ZyYiNkJ5zmAO6Ktvkwqf5X7+cc8zZ3xZO472wPOKkdG3ELsprcoavGJZ0cKmzen7yIl9DtVnyaOf4WO9ZthtJOLjSC+5659tvVO7zTYtwR/thi3FQWdO7nnkfU7xX7XstRqxoysXg9kd8HwT1s5y9PfuzHIFYDrMpVfhbPBGRAS+YvCAi6feTrP+JiMiw/2Xp+hCX0fvsEBEZO00rF4xvpZFuViOweGOS2nh+HRZHpEsbreHl0gFqukO6+Q5xR9/x8xF6Khm3yporhTvLZyYjZtt8uDiNwcrYwqxqmi7dvLvCZek+ZJhWhlVFDWp074jGD+t0aSqflxkeVG7kcuQ2rAxwhdP8bTgG6bGrm0KjzUDsoWC4jZVuoHMSPy+ifFX9x9OgcnX1dVuZ5nMi56Ub8Q+98N35F1FDPk7TDDZt5OFAcqHYEXBbug0xKVppm/o4L2ZkXz93RF5SH0KlRaz0+uVzjEnJgMZM2r+6BpfjpZv4pUE4eFXsZiKdk/Q4lcXpaCqK85OXqgU9x8cnF7d1cRoBj5AjOCZ9dOrKzy+d763z8vl6wH1FnFoc9yUz9XorR+ldT/k1vKTrLfnEHvgapfd6qbP4LEsnK19b6fnVz/JiuH3ojOXHS0qFXnoYJjyIiAwoq9dn9R9tzm8+RAZl3tF9Rl7iECgiKlHM0HmsC9pKUWzofESnpCNmRYjyV/PGQyajp5h1W/tLIKaslG9azTDAczV2r1utFO7cHBEOfzszaYcELJ+l30vkCZ1bh/mHm8Fv1VaESM8TvDYcwa7WYmP+GrvK5+WFvmLdIO02fHegjfTYOxC1Vtp/VTh2h3hhgFx/+moEvtue3RNAujbT9R/vdYz6Un3d+Z3LhqBAYMgybJEfNzgMURu90Vm6PEqh2KEuGDLSH1HbxGtSrt+38JSzONo4zA/ZpyYFZJlHsF1OOkGDnpOlx8k+z8jV8BvpgLbZs6FX7QPP4C8xStQqaTH0S/X85GV6H1RWm3PJ/xwf06UIeM2IQLxWg8aOfoiSPhPK8yvnG4bgcRPgOdRaSXJUtvFG8JcuaKEcqHc9pcXT5klOIrcHvcbLEV6YEJEMbdVuus+A9PzyZzl4uHSe2mSsnMGCqqUFEx5ERAZUfFn3t6GbGbdERGTYzUzdZ6RiufIiIiIqIWo6YpSjnLSIg4/bUHj/It12V7XHhP5yUVNZEras2KbM1tJ4+DxM6qrXG8DEFC3GSW3ydCU39JMFT0i6eR4w2UN3Y2+igabQ6ohYYrLvZN1jy6Sb3/4O6us6GHdOl3goIG19N3g6WcI0+1w1eknwuo4Y72it2yYzsYCdqz1qSKF2x2H8lt1h8Eaacr2BymjSQC8RoDFHW8duBhMZj+qB51hg6YhevBgHpQum6eqFxSOb5X59GjNY2dujcTHP8JPva0zfheVKbxNreH7plfszIH2WrZx84NNVTUAt3yIPfaKSjgkPIiIDKutNRZt2U/4LC8ldQBPXTMZEzwCcuS6aSJF2Q/cZqVKhkoiIiEoOq6FeGFJRus/L1Eo3gxoMcHNB47Ji46UjiJFna5FuEvt2z06C6JFu2lt0FsmCI6elfy0KQcU+6KVXO6RwlZHOWYR6atRupAYpaXjcP3X07Nu94MmI+m8oPWzkxFJy9lCV6s3QVpnzNhlrQ3fpanYUgsc6x/xc3YsouV6GPIPNkOzhT09ffq8x4/gORMvZrFYO6FJTbcvNFE1aNVOiy6cTDM5eRCULEx5ERAaYV5LL1qsup6eKqDik48BcJ0wc2ht93+mmt/TGMFc3+K0Ix5niPB1913ZgdegJJP4aBv8fE0QjyVLSdG9Kdb3PDhFRiVG2GfoPsVTjmk7o30nvT/KpKTimBJaoq/8XcT1VqtVWg/gE0TPhCdWoXng35Y9IY/rkPfSqmD2kK0N24VIXXbFMGxd/RInNOhYYMHMC2mqk30N2+6Bf/xFYsE6vWOkTeOg5FsSFv0QB0maoKz4CxiC/13g+7oga/OKTc/3zLjZfin0KMclETw8THkREBtR5Ve5cqrpwNVcVsSJ2B7evJCPxet7OtFpcT01ATLg/prgORODep9DrpEobdGku/eZV1hK27cQvxQV0PWErNs12gd/WQurybCT+0vuM1K5STURERCXLiyZl1KCCKQp6629qJoa53JB7iJBBcq2L/s5q4dJLumKZVTLTDfeKqWkPv5Bl8OxkDk1mEjas8EA/e2f4RoniskZFI31+RFgS1G6N4fb2D15srYs96UaFjwkPIiID6lfX/Zki8bLSj7fY1Rs0H2tDNyvLqsXzMXO0LZoq3YvTEblgHg4U+7ASc3T+/CdsWR8Iu3qiqUCScXSZH4IOJ+F2KfqryY1/biL1utoHucwLL6Ce3meHiOhZkXZZ9Px7yAwpz6zMk1jy0WLEZAJ1209A8FpdscyQCD8MEbvdp6Il7Kavxu61/mriQ5uMyPlj4L2Dw22fSNNBGDVuwoMXm8f74w4ZFyY8iIgMaFDrNREBZy/8IaLiZWZWHeUqmCpLpXrN0bKvBz73H42W8kbtYUTvK8JeEmeD4B+agLtilfJ39i/d8J5GtUSZfCKi0qRadTGrRoKuxkQeacl/qUENc1RRI9KTsT8MoTekoK4L5ky3h1VBJyQxs4bd9GXws5HTSVpEb9lrHPUlcj4bcThfnB1iH5NZLZHEOPE7ns6fs6i4MeFBRGTA6+Z1cmbbuHYjDX9duajET12NjmjXQA2P/nX/fGnXDwfBb2w/9Be1PwYPdYPfmp24cFPskMfthK0I8hyIwTl1QiYjKHorwhatQfQab0QmqvudWapfT2Q8onPVEcnAhWg/+LpmP29vjP3IE6u3nMD17J4cqeGY9Y4T/M+qq0cDnHSPNykcus4qyYiepLYHnZBWUw8jTO/8fKNO5Wz325VfWbwkRI5U9w88UPQdq3/787SIgMYW/GsQEZVCNVujs1JAMw67jxvoWZBxBNu3q9/JnTs10/XwMFFLWB7844LyM5esOBw7LOJnwJ3b4t+sxm+gbt6hH1mP+m+VKVq0b62Gp/+S/sXMVh7lxUVPy3jCf/cK+p7lfDYSEBp+8tGGM5UtLz4j13HnXyW4X841MpxIyYg9LOrKFEyNVt3QWA4urUPkL4VSXpeMHBMeRET5aFFfN8f+sfhTIjJSWcmImd4bw2avQUySFqbVzFGvhplcNAMxoXMw1nUyYvJUkUvdOhkjPvLDpl/Toa0g7V9Ng4zUE9i00A+rkzRoOdoP72YPXTFVH6+cWNXR4kzABxi7cCsOpGZAU0l9nJSEwwgL+BZHr4ndpF+gKtUwRyVRvr2M/HzSurK8KhrzSgrHrNGeWHv+RVSTn1vTHJ1bN0W7Ps2VzTG7fsZtJcojaS+i5deqsUXnNvk8diE6Hv+riKTPzOtviIiIqDSxgM2g1soMHDGLvbEhXu9GMSsJ0fP91N4LVe3xfidd1wWrZmLWjt1rEKl//3wjARumeWB5Pr1FSqPyVaqr12LvThyTr1U25Vp4I1RZyZ0AiF/phZW7k5CR/ceDrAwc2y8KarZ6A0qeQWEKy2bq7DnxWzcjVv8+voBDSAv+nlmg72h75VzOR3jBKyROd74y6feTYwFeCI0V67KK9dFEzECzcbNekkQ+LvvYqtmz1CQgdMORXI+Ztns+Jiw88ni1YmrbY4K9/BnNQOgsL2w4nSeBlx6HyPnBiM0U61TiMeFBRJSPtxs0FRFw5Mzj/B2hCGTE4bToJdG5UXZvggycCZgAvxNalLF2xaLQn7AqKASLVqzH2s0hmNlN+oc98wT8PP1xJvsf8NRwBCw9gdvSrzUtRwZjY6i0f9BmbAwcjZbKbzq5f41oOFx+vGnoJdZzZB5GzBb5lwUNOn8kPd8a8TibpOd1fRcts+t3VrGF+wo/OIuRQk3f95MeT35MaZlqC0MTuUauDAAGBWK1/Jjya/lhFtpJO5br4AA7eYcTcpJF2TWXCwe2Qe6YUqZHRzQs4gJqf9++gVOJut/i2li9KSIiotLFtIcXFtvLNSTisGC8A2wGO8PFxRn97EfAe7/074DGGp5fTtBNZSvRvO2CyY2lf1SkY3xH2KLfMOmYYQ7o6jgGS244YlRXseMzIOda3NgGd0dbOEnXLvtaLLjQGnbKjLh6CYDMfYhcdwTLfUfAxt5BudYugwfBPUrOZphh+KAOuWql1OgzAUPkScKuRsBtsNhfeh7HoDh1h0f0OO+Z5q0JmOcu9+zR4uBKd9j0Ea9PnommjzPcNx7BktBdeoVZ9ZIkkR6wcZT3lT9LDlgZr+6Rex8v2PQfpOzjZN8D/XwPw8rRXkzlW1AaNB69CD7tpd+N5M/yxEHSa1Of32WwLdoPdodvVAgWRxhjYVh6HEx4EBHlo+MbSrUMxb7Yw8jMt99l0bib6y8kWlxP3InVnvMQLa9XkG7624pfdc6ugf9W6ZfNCraYOXMo6lVQmxUm5mj50Xy4yX/4uRaOyIPqrxsXdq3DUTlo7g4PB/WvQopagzB6qLp+dPdhvaEm+biZBnVgTWU01B+QrJGed0B3g4mMR3X3tdFwH2KJctlJC42SiQHKtsHb3eQ4Dtv35f2FJAmndsmdfE0xuKvaE6Qo7f31kIiAVlZNYFa+olgjIiptTNF43GqsnyvdWDeVvu/TkxF/KRm3ypqjc5/JCA7xh11NsWs26d8gu3nfwr9/M1hJX49pKck4n1kHAyYvw5YlLmhxf7fB0ku5Fsvg18calTVanJeu3WWtdO2cvLAu0Bue030wSrqu1yKDsF3+h7VsBwyfLV9rc9Q1yVCudXymdLP+thP8vg2S9hX/JmYzbYbxC6XHaGwKjVbd/7z0b7O5SQFnzXnM96yGnR+iVvlg/NuWqFtWfX3xlzJQpWYzDHD1Qsgn3XIlaOQkif8cR7StqIH2hrxvmjJrjUarO1t5n8AlEzBA+v3CNDNd2ce0qRP8V4XB06aO2OsxSK+x88wwbJ7thJ7SY2uU55deZ1ZltHjbEZ5zVyNwsN7vRlSiPZeVlXVPxERExebiuXhMHaT2F6hV3wpzw7YrsbEZ/OVk/Hpe7VLh+f5HeKfNfX0cCplcw0JX68IgjSWc58zHIGv1V4fEoH6YuCED1QYswTeuumE4+rL3KdN3PjaObq7U5JiyFag3NBiLhuT5R/2EP/pOD5cCB8z70R0N1VbJCQS9MxmbYA33oCXoqfTeSELkWBcEJgHVukzDvEndUSnfXhW619ZydAhm9hVTGOai26fz5M3w6Kb/65Ee6Rz7S+d412I0vvl6EHImgk1ag4ljg5BYYRAWrRmNekXcw2PSsuk4cua4Ev/fwA8xvJuDEhuTP0//hk+H9lXi1xo1wWdrtigx0bNu9bxZiFobrMTOU2bCZrCLEhMRUeFIv5IC9z5vK7HZq9Xhv033h6Liwh4eREQPYPNWexEBUb/sEtHTU6+jOxatDMxJdsgJgnNisG7qhvFqEVADi5zskOXqNSK5nWmwCkYBWMBuursyDCZ1zxwMe88FgRv0ipU+AbNK+SQ7ZG/2wGC5J0vSGsToJYdSj+5UhrNU69apyJMdciHb7GSHrFdz3WeFiIiIiJ4+JjyIiB7ArlUXEQHHE37F6aScwaVFrqVrINaGbpaWYHiohTWQ+FcGyuTTnbSatS0G9XV44OLWRu3NUc5M7V2RejQWectgXDgjSrBb19H1nHiQGg6YuTIQ7h3NUSYzCZFBkzFsoBP8o4tw/KuJNdr2k19DBrb/nD0+OQm/7JSf0xS9Ohnu6VKYIg9FiQjo9mYbmFeSB08TERERkbFgwoOI6AGqVjTLlfTYtP9HERUDjSnKVZAXC3T+aAo6yzmPpCD4hxlOJNTu5ATn0e4PXOxaqnU2andzhFKhRHq8gHC9x7sYhqAwuQaGBp37dHr0GhwVLNFzagg2rlmiJj60yYhe6Aa/XQamLywktTvaK8NtUnf9jES5R8nFw4iRX0qNQWgrpu4tKv9q/0X4/q1iDejfrqiHOhERERFRQTHhQUT0EO917CMiYOvhaJxPNTA3fVGr1B0TJ3VHGSk8s8YbkTk5CnO8Kup2HT3zB+6q4cNVc8Docc1RDlocXeGC/kOcMNG1H/q7BeCoFqjdbgpGyLO7FFQla/ScGoiZPeXhKFrERP788MKnj6tWD9jJdUlvhiP6sBaph7fhjLRar1tH1FZ2KDo/7N6Ef/5Vp7xpWOs1pYcHERERERkXJjyIiB6ixetvoJPejC0hO9aJqHiV6TgRXl2Ubh4InBGg9mqQWLdWEyHY8wP2XFaaHkk1m2nwdm2DelJ892YyElMzoKnUHO9+FIh5U59khhVTNG0rEgBn/9IbMlMe5cqrUXpGgWrG58MMLTvLGQ8tog6G45f9chbIAj07Fm1l9Vv/ZOD73RvEGjC0az8REREREZExYcKDiOgRuPYcICJg25EdOPnHb2KtOJmi5ZhpsJNzHtfC4LdSrV1Rpp0rJlrLjXHw95yDo5dzJxPuXj6M1QvDc/e0yDyBsJHvwy+xIzyCNmPtpl3Y8uMurF0zX3qtelPBPoLENZ4I25OE29mFSrMycOqgqAPS8g293hamqP+mmoxI/CkCZ3QT8kvHiJ8FVK6NLTpLP+/uCkCgXLzUog9a1VI2FZngqO9xO/MfJW5Q8zX0b9tTiYmIiIjIuDDhQUT0CFpbNYFti05iDVj+4yoRFTPTjnAVQ1subJiB1b/KyQ15PvkFcK6nAa7txKyRvTF4qBMmjpSWIb3Rf6QnwqIDEHZAL8Nw5XfsT5WHgQTBb7obvMaJ/ZVlMgLDduLCTbHvg2TuRfSGw1g9zwWDB/ZTjx86ENOj5ecyw6ABHaFfY7WajTverSIF18IxxVnsL53jhyJ5U2AVOqKLrsQKGnZv82iFVh9T7PnTCNsjT9mrcuvznoiIiIiIyNgw4UFE9IjG2b0vIuDXxN8RsnO9WCteuqEt6QibH4AzcikJU2sMWrgeiz6yRbtqptBeT0bi5WSkmlRGuy6umPn1eri105vm1cIBE4c0R23pMeT9ci8nELlyDsa6zsSBhxXgKNsRg2a44903zVHbJEM9/l8NGrYZipmB38H5Tfk89Zg2h+t8Xzhbm6KMVt3/AiqjusmdR68/kosGjVpk18+wRq8ORTuc5euIIBEBXZq0Ru+3Oog1IiIiIjI2z2VlZd0TMRFRsbl4Lh5TB6kzW9Sqb4W5YduV2Ngt/ykMCzfrencsn7QQ1hZWYq2UuB6HTZ+NR9BZoN7QYCwaUrRJhCd2wh99p4cDzT2w9nPbXD1KCtM3W1fju6hQsQZETF8KyxpGfm0kf57+DZ8O7avErzVqgs/WbFFiomfd6nmzELU2WImdp8yEzWAXJSYiosKRfiUF7n3eVmKzV6vDf9shJS5O7OFBRFQAo3oPQivLxmIN8AtbjKz/HrMAhbGqZI0uXa2VMDG96KaVLSy3r6lT1rTr/HaRJTv2xx7OlezweNelRCQ7iIiIiJ5lTHgQERWQp+MoPP/cc0ocf/EcfEK+UuKSJRkxU/ph+oqduJBn2MrdyzsRtl6uqaFB50bGfVN//bA/vL8+IZ1qG3Ru+RjT6D6CC1cuwed73XssD2XRL2JLRERERMaJCQ8iogJqWKseZjlNEGtA1NFdCPxxpVgrGe6eWIdv4zJwKnwOxg7tlqfI6RxEXgNqd5uGEZ2LJonwpM6sdMLYgd0wbHY4zmjNYDdpCto9/jy6+cq8k4lZq7/EjdtqBdfqlapg1vvjlZiIiIiIjBsTHkREj2FAu15w6dFfrAGrt/+A0F0bxJrxK9PcHatCg/H5aFu0q2EGiCKniXdN0bTNIHgsWI+vJ3dEpQJMT1usMpKRUsYc7WzcMS9oPdw6Fk1iZlqQD878lSDWAJ9hH6NqReNMAhERERFRbkx4EBE9pin9XWHbUjdV7dKIb/HDnk1irQSoYIGmfT3guWI91v64C1vkZf16fD5jNDo3MO6b+objdmFjaAg83R3QsIjmof2/FbNw5MwxsQbMcf4IbzdoKtaIiIiIyNgx4UFE9AT8XD9BB+u3xBqweNMKrNq+VqxRSXT733/w8dfTlEKl2T4ZMALvtu0h1oiIiIioJGDCg4joCS0dPQNtGzYTa8DyH1fhqw0BYo1Kkj9T/sJ4/0/wy9kTogX42GE4Puj+rlgjIiIiopKCCQ8ioidU5oUXsHz8bHRt0ka0ABt+3ozJAZ/i6o000ULGLubUfoxZOBkJlxJFC/B/Az/EyF6OYo2IiIiIShImPIiICoHJ889j6ZhPMbB9L9ECHD59DCPmTcCek/tECxmrrzd/i2lBc5CReVu0AL7DJ2F4NwexRkREREQlDRMeRESFaLaTOz6yHy7WgPRbf2N6sA++XOuPG/+oU5uS8ZCHrrj6ueP7nboZdmpXqY6VH/nCvk030UJEREREJRETHkREhWyUjSOWjZ0Jc7OqogXYfPAnDPl8pDLUhZ6+lPQr+GLtIqU4afyFP0Qr0Kt5e/zwfwvQyqqJaCEiIiKikooJDyKiItC5cSuET1sC+zbdRQtw8/YtpZip89wx+PHQdtFKxenK39eU6YMHzvoAWw5GiVZA80IZTHtvNBaO9MQr5SqIViIiIiIqyZjwICIqIuXLloPv8I/hP2oa6levLVqBP5OT4Bu6EO99NgJrdqxD+q3rYgsVldg/T2Nu6CL0nzkMobt0w1dkfVp0QuSMADh1thMtRERERFQaPJeVlXVPxERExebiuXhMHaQW+KxV3wpzw0p/j4dvozdgRdQ63PwnQ7TodH6zHTo1bYd21q1R/mVT0UpPIjE5Cft/O4Tdv+7PNWwlW0vLxhhp44iO1i1ES+n05+nf8OnQvkr8WqMm+GzNFiUmetatnjcLUWuDldh5ykzYDHZR4qfp79s3MXGFr1gjKpnkOlhEsvQrKXDv87YSm71aHf7bDilxcWLCg4ieimcx4SH7V3sHK3eF4/uYH3H1Rrpoza1pvTfQ9PUmeMOiASxr1cerr1QRWyg/9+7dU3rOnLmQoPTmOP7Hr7h49bLYmlsryyZw7toPPZq1FS2lGxMeRIYZa8Kj3ZT3xRpRyfPqK5Wxx2elWKNnHRMeRPTMelYTHvo2HdyB8EM78UvCb6LFMLnHR43K1VGtUlW8Uq4iypUthxc1Gjz/3LM3KlFObPzvvyzc0d7Brdu3kHbrulKA9OLVS/hP2pYfuUaHXasucGjbHS1fbyxanw1MeBAZxoQHUeFjwoP0MeFBRM8sJjx0ElMuYOepQ9gTewQnzp0WrfSkXn7xJXR8oyW6vdkGPZu1w0uaF8WWZwsTHkSGGXvCo+LLFTBnxDQlJjJ24xf/n/KTCQ/Sx4QHET2zmPAwLD3jBo4mxCqJj98v/IH4S+cN1vyg+9WqUh0NatbFm3UboFm9Rmhl+Wz15MgPEx5EhpWEhMePvmuVmMiYXbuRBocZzkrMhAfpY8KDiJ5ZTHg8OrnWx6W0VFy9eR3XM24iI/M27ty9i3vSf88ik+efx0tlXkTFcuVhVr4iqlWsjDqvmqOs5iWxB+ljwoPIMCY8iAoHEx6UHyY8iOiZxYQHUfFgwoPIMCY8iAoHEx6UH2NIeDx7Fe+IiIiIiIiIqNRjwoOIiIiIiIiISh0mPIiIiIiIiIio1GHCg4iIiIiIiIhKHSY8iIiIiIiIiKjUYcKDiIiIiIiIiEodJjyIiIiIiIiIqNRhwoOIiIiIiIiISh0mPIiIiIiIiIio1GHCg4iIiIiIiIhKHSY8iIiIiIioxDmztBv6viMtS0+IFiKi3JjwICIiIiJ6FmmTcWZLAPw+csKwd0Xy4J3eGPuRJzbtScLtLLFfaXUzATErPDF9aG/x2rth8FAn+PqH40yq2Oc+yYiepO47a0uyaCsMSYgcOx7R+T6v6kyA7lz1z3mi5xxERsfhusH37ASCxL5BzA3RM4YJDyIiIiKiZ0xq9ExMfM8JUwLCEJOQjOtasQFaXEg4jKB5LnCeHI6H3H+XWLeP+mPicDf4hR/GKd2Lx+3ryTgQ5Y8prr0xfU0c7or2Ihe3DeFJcdi+L0k05CNLd67Z5HNO/HUnAheOx7CBbgj7NUNsISImPIiIiIiInhkZSAxyw5iFe5Eo3zuXtcS7o6dhUeBmrA3djFWLfeFuY4ly0qam3dugmnJMKXM2AFNmhiuvv0y1jnCbEYhV0mtfGxqMRVPc8a6lRtpJi1Ohk+BTqL048iM91zY1uXRm/TYkqo0P1s5DnPNmfLPAFx5D2qCectoJWO05AZEPyZsQPSuY8CAiIiIiekbcPREEvw0JSs+F2tJN8zc/BMK1b3fUq2WKchVMUaleG/R0D8TaoGCM7mGuHlSaZCUhclEYLkhhGWt3LFsxC3ZtLFFJeu3lKligXhcHuM5fj89tzaQ9tDga4IXIi8qRRefmXkTvEj03bm7F0Tg1fKBXzMU5m6JagzboPNQXi5a6o6Wc9EASgtbvLb7eKURGjAkPIiIiIqJngXSzH7UiXLnZR4PRmDnVFtVMlC33q2aBamVFrCe7UKhSv+JmAqLnuYj6H70xdsWJnJvs6yfCEeSpVxtk4EBM9PRDTIKh4RZ6NSYOJ+PUGk9MGag7bvrsIJx62Nia1MPYNFt3LsPGzkG0gee6e3gNgpTeD9YY4+Fg+PWbmKLp6NlwriCvJCF826NkIB7f7cNbESP9rF1FTrJkYO22x0xW1HCAc19TJbx7JgkpSkQlUfqtG/jrajLiLpzDLwmx+O18PM6nXsK1m9fxr/aO2IseBRMeRERERETPgj/kOhFyYIp3nfO52X9UNw4jaIIb/A/fQqUq5qikMUWXTs1RRtp0e+9MjJjuj02/JkNbzhz1akhLmQwk/roVfh8NfGCxz8i5LpgeegK3K0nHVDNFmcx0nDq8BtNdByLoRD61KY74YeJoT2l7mnIutctqcT1pJ/w/+iDPMVqc2r9TTSa0fBftHjRex8QabfupPVxSd/38aMNMHksSdm+SK4lawHbyGHSWorv7fkZcprKxwCpVraMGl9NxW43IyMnJjW3H9sL7+6Xo4z0K1mPt0OH/nNB75kgM9J2I4V9NxXtfToLtLDd0muqMtz4agPafvI+Pv5mLtT9vxZ+pRd0FqWRjwoOIiIiI6BmQevqEWoRU0wPt3lTGPjy2UxsCcPTNaVj1w3osWhEi/fwegxqo28q1c8UYm9FYtGYX1q4JUbYvCv0J34y0Rhl5mEhQEE7lc0NfvaU7vt70E76WjwnajI2hgXBvJ/d8SMem2XNw4Lq6Xy7X0lB9aCDWrt+sPNfXP2wWQ1KkY75cg8ScmUv+QOJxNarX8HWlTsmD1LZsrgY3Y3HhmhoWOqVYqfSzgT3av9kcreSn1O7E1n3pyuaCysgQF6hBndJZf6UU2fXrYbgumqYkNyZ/+wXC9m1D0pXLYuuDXc+4iajj+zB77dd4Z9Zo2M0eg5A9W8RW0seEBxERERHRM+D6pQQ1eE26GX6S3h2Suy/Zwn1sd1TKfhyNXgLFxAI93QehXiWxLlTrOxaD5WEi0g39sd/Vtrxa2tqitn4upoIlek6dDzcLKdYexg8/GajG2XMWPAdYolz2uchDUlwnwk6Ob+5FXM4fwO9Auk9UmFUsrwYPUrU66olQWyRT9OqKlbbr0wmVYIaWndUky4FtP8NQbueBMg4jerPae6ZMfQvp8chYyQmO8QGf4dDZU6Ilt5dfKotqr1RFvRp10ax+Y1jVqg/zytVR/mV1yFJeiSkXMCcsEP0+H4eL1ziYSR8THkRERGSU7t27h+eee45LCVqohKhjns/NsK6WRs4yKdzgjXe1nj3Q0ECNjwcyeR313lLDC8kFmP3ExAJNO6rDSxJ/OXH/+ZQx0FulrPRcSo+TZFwx0Fmi9qtyD5CHeMkUj7DX47u+A1uVYqXN0a6l+kzlWnZHOzk4G4H9DxqpcFdvelptBlJPhMHffSY2KQkdC7jaid4pZHQWbV6tDGHR1+nNthjTzxVL3L/ELr9wbP9iAzbMWolV//e10hY0ZTHWzQjCNt8w7Fu0FSv/bymmvDcefVr3gFl53f/Nf1xOgkfQPLFGMiY8iIiIyGjJSQ8uJWOhEuSv5Hx6D7yISnK9DXmp8OAhL7WrPrz/QHbh0rE5BUjfR9BhsbGAcoaXnP1LHZbzhB4p4ZL6Fwz//b1wpO5ahwNy0Lw7WmZfzkrN0VJJ1CQhfPsDiqVGe+qSUu/2w4fTAxCdKidBNGg3zgd2co8YMkqrd28WETCgox22+vwAnxGfwqn7QKU3h8ZQAi+P+jVeg307W0xzmoTNn4dg6pCJYgvw6/mzOPXnGbFGTHgQERERET0DypmJaWaTU/JJeFjjXbl2hrR4v/+6aHsMWcmImd4bw0Th0gswU5MoL2XgwmMW44TJw28CH84Mr9ZQowtXHz5g5O6NW2K2lPIoV9DeLA+TFYeY9erwnM7dOunVEzFHy67WSpQa/bNe/ZGH0aD2m7bwWLgenralcDrhUkKeZeWfO7r/Cd7r2h8Vyj3C8KqHsHvbBq+Z67JciSksZJqNCQ8iIiIiomdA9VrqjTRubsXRIptpVYszAW7wO6EFqnSE+4L12LJeLWy6aM1PmGcrdiuoLL0hHI/NAq83UxMnqQePq9PzPsC5X8WwgxpvoLYyRW3huXt4E9Yqw0+6o0vb3HUZKrXugZZycDMc0Yfzed3dpmFt6Gax/IQtP/6Er3090NnScI0HMg55e8N98OU4LI34FgkXH28eoJTrV7Dh581wnO2KP5N19W2y/vtPRMSEBxERERHRM6BMy06wU+73M7A2OBypRVGI8+ZeRG6Vp4K1gNvsWejZoHCqYFxIkKdulVg/2ewj9Zt3VKbOxeUwRMtJmfxc34nIHer2am3fQm0lKizpOLBVTI+LnZiVPeQne3H1x1FlmxZRBw+L/fJ4yQzlKpiKpTB6v9DT8M+/mQjdtQEu88aj5ycDMHGJJwIjv8Pa3Zvw4+HtiDm1H8cTfsW+2EPY9stOrI+JQNC2EEz79nPYfzoUA70/wFcbApCcxkKl+WHCg4iIiJ5xJ7GkVw+0l5YlYspKolKpbEfYDlK7vd+N88esgMO4nU/SQ6s1eJv9cJm3cFsJmuN1A3Uk7jzOw+rNPtKyU5snmn2kTJuhcFXOKwObFgbgjJybySsrGdE+8xCj5Dus8d47omdMYbm4A5Eif/Mwd3eFG56Kl0qkBxV3zryTiWMJp7A6OgxLwlfA9/uFmBY0B+5LpmLqitmYs2Y+Fm4MRNBPIYj59QDSbj7e1MXPGiY8iIiIyPjdSED0Vx5wcbRVEhPte9mi37Ax8F65C+dviH2InqI9+/aiUx8bzF/sj5TUwiirWTRqD/KBu7XaI+DCVk84j/TE6i2HcSE1A7dvZuB64mFE+7thYpCYwragKlRGdeXhd+DAYb1sQlYGEjdMhm+0upqeYbh3xYXfE3InYa7HIXKWmH2kigPe6/GE9SlMLGAz2kHtsXEtHFM+cENYdBxSpdd++2YSEqOD4DfSBf5x8vlp0HL0NPTMp0vJ3Uz1muW33M0nmZS4bQ3UkpLN4R6YPSwlz7JgKBoq+5zAgaO8sS0t/runG2pStWJlLPvITylcalHt8foQVTJ9Bd3f6oRPnT3Qp3VP0Ur6mPAgIiIi43YpAl5ycmPbScTfyL5J0iItJQHRIT747hdDf6IlKn5ZWVnYuGUzHIcNxaeff4Y/k3Rj6o2GiTl6zg2ER0dzZWjH3dTDCAvwxFjXfhg8pB+GTfCEf1SC2ktDI+3bozkKVBWibEc4uFpLj52BTbOlxxzqhIkjnTBsYD9MDEpCu3Zqb4nEnyIM9q44GuqGwe8NVI6ZOLQ3+g4dj0A5+aCxhtt014JPhWtAmTfdMWeqLerJiZnMBKxeOB4fSq998BAXTFy4BjFitpOmQxbAq2/+CZZTK6VzVY4ztEzFnmtiR32ZexGtDPmRzqObA7rUyh6Wkmdp4IDsmWUPbNpRKDPT0NP3nPSfviavWePjgWMR4hWozLYiJy6G2wxB/w52sGnZDR0av423LN9Euzdao0eLLsrMLO93HygdMwarpi7DljnfY9bwqcq+ZV54QTwq6WPCg4iIiIxYMiK/XIwYuah91Q6YNHsZNq8LR9S3/vAb1wdtK3ZA11Ys0kfG5b9797Dr5xgMHTkCn335BW7cVKpTGg8TC3SeGoLVX0+DaxvLXFPQlqtkjqZtbOE2JRBr14fA3dZCrXlRANX6LsGyKbZoKT3u7evJSLx+B3WaD8XMwO/gPnU2Pndojtq3w/HD7vunhu05xAPvWr6I69fk47QoU8Ec7Ww8sGjlEtgVYkHOSh3lxwyEh01z1Kuke/1lNCKu0AOODnLipnDdPfozIpW8rQVc3xP1RAwyQzvb7ur2pDWIOas0Ugknfzdkyzubt1n5SkriYqStMyY5jlWSH3NHzoD/+Ln4cpQ3vId9ginvjcfYfq4Y0LEv6unNyiK7p9d75J70H6mey8rK4tUgomJ38Vw8pg7qpcS16lthbth2JSaiwvXn6d/w6dC+Svxaoyb4bM0WJS4J5Gr2z13bDA+nxTgIU4xaEI7hjcXGbHKXcRM1fHxyDQ8PhErRkLk7MP4ttZUKRh6bnncGAmO2et4sRK0NVmLnKTNhM9hFiR+XPKRl2uxZYi23smXL4l07O7zXfyCqVK4sWu/39+2baDflfSWu+HIF/Oi7VolLvxMIemcyNknRu5/vgqvo2fBUXA7HrHH+OConJcpawnm8B3q2sUSlwp6WthS5diMNDjOclfjVVypjj89KJab7pf6dhq5ew5W4SoXKCP9stRIXhi/WLsKWg1FKPMtpAhzb2yjx05R+JQXufd5WYrNXq8N/2yElLk7s4UFERETGK2cMfB1UriJCfXmTHSkR8FBqfCxGrGjK5WHb09VaIU72ahFTm8FynZAjSMtnLP4jSzmJSP0aJPaD4BUgPa42DiudpHX/k2JHIC3CXd1Hr03fQ7cfCob3KAd0VV5n9mswVOskGZET1X2UYq0pR7ByyiDYKMfZwmvtKnGtvBCTX52U8yFwkfex88FRuRcOGZSZmYnQdevQf+j7+HLRQlxKvr9nAxmJGg6YudgDPatp1OEu89wwTH8WlXl7Dc+aQkRGiQkPIiIiMl5ly4v6AXE4cKroC/eFfjkG3jv/gMbMHFYVNciQEyAhXug3zBsxl8ROBZTxy2K4fOgBX6UGCVC3pvTYZsCxjdLj9vfAd1fFjk9Knlliqi36zQhB9HktyleXnqem9ETKa/CB0zAPROf3Gs5HwONDL3x3/kXUkI4x1TSDTS872Ci9XY4g6pDha39+/0+Il35qetmiJf8C/kBy3xe5xsfmrT/ivQ+GYfYXc/H3jb/VjWRcatnCfcV6fD3FFXZvmkNvxAvq1apT6MNciKjoMOFBRERExqtia9h0Ve82YhZPhG9EAjKetLfFAzS288HmiHAEB69G8Lqt2B3shQFVpQ1X98Hrk0DEF/S5L62D97QIxGuBuj28sHnbVoTIjx0chqh1yzDJSi6/WhgyELt0IryPa6Fp7KKc++ZV4nm2rYZfDzMg8yS8P1mMWAM9MTYEBQJDlmHLWnHMRm90NjNDZ9tuyvaYrXuRpkT6knBsh9xTQYMBHZqpTfRQ8rAfeYnauQOOw4chaPUq3Lp1S2wlo2FiitpdhsLNNwSrNu3Clk3q7Ck+AwzMtUtERosJDyIiIjJipmg7wQfD5XkutcmIXDoGNv3HYElUXJEkPpp0aI3KesNkNDW7YdJiL/SUcy5X1+G7HQXpZaLFsZBgHJTDRm6YN7lbrsdGRUt06fy6WHlCp0PgGymdW8U+8JvtBKuKol1mYo62k+dhUl0pvhqB9fvvnxpDW98Nnk6WMM0+P1G4UdOqEwbI4enN2HNBadI5vw+Rco+Rivbo1VRtooL5559/8O3qVXB4fzAWLfsa19LuTyuRkdCI2VPU/zXoAbKTelwML1S8WLSUiJ4KFi0lKh4lvmjpc2IKv6wMxEf6Y37QLl0PhbIWGDB2BibZ6P3FVa7RMUwucmqPwO0TkLfGqeHtDy9aGh/gAJeNGUDjCdi8wB75l53Uk7kPC+y9sUHuATEzHJPa33+nJNfj6Lc0DrDzw353tZeEoTZ9hrbHr5DOb10Gajj6Y91IddrPvLL30dj7Yfc4+Ti5hoczfE8DPT8Jh3cPwzNgxPrbwi1Si8Yjv0Wgo+5anw9xhtPKZNToLz3naGucSYjHiHFjxVYqKPmz/lyZ55FWRx0w8WwVLaWSTL9o6fNZ0mf3z3+VmO733wvP4UbdF5WYRUuLB3t4EBERUbGRaxacTUjAvoMHsXHLZqxYGYwFSxfjsy/n4v9mfopxHpPwwRg3DBw2FBM+8RBHSUxMYWXvhcCN4QjxdEQLuV5EZhI2zB8Dj4iiLwBZ17q1GsT+hZxnO75YLR6qv+gXEk1Nwm9K8DqaWBXln4WTER+r9tq4vE4UNDWwyMkOmdZAz5gqZvlP99m4mz1qSD9jw9R6HaokHIuRr4Qp7DoYTrBQwcgJPrnGBxERFR4mPIiIiKhQaLVanPszMSeZEfDtN0phxvEekzHog2Ho8k4fvOM4EK7jxijJjfmL/fFdSAg2RETgpx07lONO/vorEs6dQ3JKitLd/z4mpqjb1Q3+G0VdCmhxcEVg/rOIFBKNaXkRFUB6ukgQWMJcrgNSDGo07oPh9vYPXCa1rSP2fkSNe2NwTennjW04mD21zYUj2H5e+lmxD9re142GHpeJyRPPsUxUoig9m0rBQsaLQ1qI6KngkBai4lHYQ1r+++8/XLx0CRcvX8JfFy/iwiVpuXgJl6T1lCtXxF6Fo4GlJYKWLhNrBuQMGdEbilJEQ1q0P/ug6+e7pBt8RwSvc4OV3JilRUZGnpKjGlOYZs9WcjoQjhPX4TKs4R3ij54Gkh6FM6RFNzSl7bjV8LM3V3d8KN1x+b3ubJfXjYDjiqSc4SvZ61bDv0WwkzrMRf6lvySNT189bxai1gYrsfOUmbAZ7KLEj2vPvr2YNnuWWHt08nWTEx3v2PSGg31fOHw5UWnnkBYqKfSHtLz6SmXs8VmpxHS/1L/T0NVruBJzSEvxYA8PIiIiMigzMxPHTp7AqtDvlR4Z77kMR8fevTBkhAumfDodiwMDEB4ZqezzqMmOMmXKoGaNGmj+ZlPYdO8B5/cGY9xIN0z9eDI+nz4DC+d+iW8WL0Vo0HdK/EBla8NCLsQpuZxatFPWXr5wWg2sLJXhHQoTDUwrmuZe9KdmrWGJN5TgD5zNW/CzUJnDXHTaOBh3rpBmfcmtRveB6Cz9vBwZjmOZSTgYnSStmcOuPWeseBIvly0L58FDsHltGD6Z+BFerVpMXYGIiJ4RTHgQERGRQh5KsmXbVny5aCFGjB+LHvZ94f7JFAQGBynDTeSeHQ9TpXLlXMmMyRPc8cWsz5SeGj+uW489P25D2HersMRvPmb831SMHvEh3nd0RN8+fdC1Uye0eustNGrQAHVq1UJ5U1FXIr+yBpeO4KA8rAIa1K0hD2+R5IwIiMN5A6ebEXsYx0T8yLLiELNVrdzRuVMz5F/tIo+KjdCykRxosWHDLtw/N0o+sl/D6QRcFqFOOmKP/CFinSZvd5OugmR3GLY//G0qOLM26Cr3ANHuQ0zkPvW61+2HtiLhRAXzgokJPhw2HFvC1sPNxRUVK1QQW4iIqDAx4UFERPSMSr1yBZFRP2Gm7xwMcHZSioXO/WoBIn6MxJl4XXnKvF6pWBFN3ngDfXr2wqgPXPDZtE/x3bIA7NgciYjQH3IlM/r37YcObdsqw1NeqfiKeISCkWcXsRnhhdCokzifkoGMG0mIjwqE+9hAdcrXqvbokj12pWozcROegNANR3JNXZu2ez4mLDzywB4Qv+07gjT9BMuNBER+7o3lV6W4qiM+UOqGPCpz9BqgJiK0v/hhwvxduR87KxmxcX+JFZ3KTTuqQ23OrcPGX/TSJNL+B+dPhPcv978CTXsXeDWWnykOvp/44OCl3PtoLx3B8vkRePxJT83QtodcuFWLDSvUqXYb92yt6+1Cj0QeutK7R0+s+eZbuAx1xksvqrM1UHFJQuTY8YhOFatEVOox4UFERPQMkXtxhK5fh0lennAc7gzf+X7YsXs3UlIN3wHUqlkTPbp2xeTxE7DCfwl+2rAJP67bgICvFmH6lE8w/H0ndOvcGZb1X0fZl14SRxWizH2IjMxAxoUjWDLfA07DHGDjOAIu89fhmDw9bdUO8PnSDVY5PTss0He0PeScx/lIL9j0HwQXF2c42fdAP9/DsHK0R1t1R4NipWP62Tsox7gMtkV7xzHw3Z9u4HkejaaTOxbbm0MDLeKjfNCvjy2c5Md2GQSbPs7w2m2g30ftPphgJydW0hE6TXq9g3X7exyvj1F2hmZFMUfP2X4YVV8DXN0FDxdbcZy0ONqiq4sXVkYFYuX+R+5nch/T9rYYIGL5Ovd6m8NZHtWLGo2S/Nu45nt8+sn/oXbNWmILFau4bQhPisP2ffKQLCJ6FjDhQUREVMr9W6Ysrr9cGUfT7yi9OJYsD8Tho7/cNwVm+fLl0aJZc7zvOEjptRH+/Vr8ELwSszynoX8/e1g3bKjsU6zKdsCoJV4Y/7YlrCpmT+2qQeXqzTBknB82r/JGZ3kGET2atyYgcMkEDLAyg2lmOuIvpcG0qRP8V4XB0yb/GUrajv4WUUsmY0ij8ki7moz4dC1MzSzR08nH4PM8GlM0Hrca62c7oad8PtDi/KVknM94ES36TIafk6HkhXxMEILHdUMLMw0y0uVzKY+24jx65ZdnMLXG8CVhCJ7cB52rS88kHyc912WTyujc1QV+y8Mwqf0jD8i5X9lmaNFKxI36oUttEVO+XnjhBbg4DcXmH9Ypw7vkIV/0tGhxals45NTumfXbkKg2ElEpx1laiOip4CwtREVHns716IkT+OX4MRw8fBDJV+TxGIa1aN4cLZs1V+puyLUz5Bs0YyHP+FHap/t72IwsxibWvwfcIoHOk8PgY5N7eA9naVFnacn+zHbp2BHjPhwF8+rVlfVH8fftm2g35X0l5iwthezmTvgNmYMYZcUUzvM2Y5ChfCMVGGdpeXScpYWztBAREdFj+uX4cfj4zYPj8GHwnDUTG7dsvi/ZUemVV9Cza1dM/XgS1q1aDf8v5mHYkPeVmhzGlOwgY5SOZKWKajN0bVWQWibPBrnH1PpVa7AvKlpZ5FmHCpLsoKJ1+/BWJdlRu4r82c3A2m17cVfZQkSlGRMeREREJZg8dezmbVsxYcpkfDT1E/y4PQp/3/hbbFWV+Z8WFf+9gTcrarBOuiHz9pyGvn1sUaO6udiD6CGyknFs6TT4HAc0rWzRlvmO+3Tv3IUJDqOVhN2bTkg/LWA7eYwyxfLdfT8jTq4DRESlGhMeREREJdC5PxMREPQtnEeNxBdfLcDxU6fEFpU8VEWe7nLWpI9Q68ZfMLt9FVVeNCmawqJUisUhVBRMdY9IgLZqN/h81O3Rp+YlMgZKsVLpZwN7tH+zOVo1l2LtTmzdl65sJqLSiwkPIiKiEmT/oUPKNLLD3EZh9dpQJKemiC1AtaqvYuh7g7EqcEXOUJX6FpxJg56EFmmXMvBiTpFYL7StKjYRlQi6YqXt+nRCJZihZWc54wEc2PYzrisREZVWTHgQEREZub9v3MD6iHCM/mgiPpkxXZlGVp9cf2PS+AlYFbgcY0Z8iPqvvSa2lHxyEczSvJj1W6TWfJjQ1OD2p780xbioHxGxch7G9WsKs+cN7aMu//33n3jXiIzI9R3YuksrBc3RrqU6Fqtcy+5oJwdnI7D/otJEVCxMntfdfv/vv/+JqHD8L0v3Haz/PM86XgkiIiIjdTYhAf4ByzDMbSS+WroEv8X9LraounXqjC9mf4aArxZhQD97mJqWroEG8mwXXErWQmRsUnetwwE5aN4dLSspTUCl5mjZQA6SEL49TmkiKg5VKlRCuZfKKvHfGTfw1fqvcfP2LWX9SWw9HI1tR6LFGlCvWi0RERMeRERERuavCxeUBMeHE8bhh40bkJauG2depXJlDBnoiOCvA/DZ9E/R4e22YgsREeWSFYeY9XLxDqBzt04op0Qyc7Tsqs5Jmxr9MxKzlJCoWAzt0k9EwIa9kbD1eg+e38zG9zvX41RiLLR35R5JD3bu8p/YfGAb5oR8hb7T34fP91+JLUDT1xqgWb1GYo2Y8CAiIjISV65eVQqRyokOeQiL/hCBRg0aYOKYsVi5LBDjR7nB6vXXxRYiIjLk7uFNWHtTjrqjS9vcPeAqte6BlnJwMxzRhx9+g0lUWCb2c0afFh3Fmmrvb4fw9eYgjFv0Cbp5OKDX/w3AgJnDMeyLsRjv/wlc502A42xX9PEchA4TbTH8i3H48ofFSq+O67d0M7NZ1ayLeS5TxBrJmPAgIiJ6yjIyMrDy+xCMdB+vFCK9/c8/YgvwdqtW8JnpjW8WL8Wgd/vjlVdeEVuIiCh/6TiwdSfuKvFOzBrYDX3f0Vtc/XFU2aZF1MHDYj+i4jF/xP/B320a2jZsJlpy++ffTKT+fRWJl8/j5LlYxF88h+S0FNz6J0PskVudqubwdByF8GlLUKsKp8fWx4QHERHRU/K///0PYZs24sMJ47H8u2BcS0sTW9RCpLM8p2H+HF90bt9BtBIR0SO5uAORJ0T8EHd3heMAp2uhYtajaVt86/459n0RggUfToVjh96oU7WG2PpglUwroFfz9pgxeCx+nBmAn2atgHNX3VAZ0nkuKyvrnoiJiIrNxXPxmDqolxLXqm+FuWHblZjoWbFl21Zs3LIF8X8kiBZVvbp1MaCfAxzs7ETLk/nz9G/4dGhfJX6tURN8tmaLEhM961bPm4WotcFK7DxlJmwGuyjx0/T37ZtoN+V9Ja74cgX86LtWiangElf0w8Rw+a/hzeEeOAvtKqjtuSSHwXvSGpyRwnYfrYdnT3UWFyqYazfS4DDDWYlffaUy9visVGJ6fOm3biDj33+U5fa/mSireRGmL70M07LSIv18SVovCdKvpMC9z9tKbPZqdfhvO6TExYk9PIiIiIrRjj17MHbSx5j71YJcyY6qVapgtOuHWL5ocaElO4iInkmZexG9Ve36X6abA7rUMkW5CgaWBg6wa67shgObdiBVDYmeOrPyFZVhKta166OVZWM0trBE3Wo1lVleSkqyw1gw4UFERFQM9h86hI89p2Kmz+c4FfubaAXKli0L58GDscJ/ifJTXiciosd39+jPiFTqkFrA9b2OKKO0GmKGdrbd1e1JaxBzVmkkolKECQ8iIqIidPPWLSz8eik+mTEdR46pJfKyyT055ESH3LND7uFBRERPrkzHadjy4y5pCYZdLdGYjzLtpmGjsu9mDGogGomo1GDCg4iIqIjs2bcX4z0mYV34JtGi6tG1KwK+WoQp7h/hNQsL0UpEREREhYkJDyIiokJ2/e+/sWDJYkybPQvn/vxTtAJvNW2mzLoiz74iz8JCREREREWHCQ8iIqJCtDNmDyZMmYwNmyNEC1CmTBmM/MAFi+f54e1WrUQrERERERUlJjyIiIgKQVp6Gr5ctBAz5nyOP5OSRCvQpmUrLJk3Hx+87yRaiIiIiKg4MOFBRET0hKJ378J4j8mI+DFStAAvv/wyxo9ywwIfXzS2thatRERERFRcmPAgIiJ6TKlXr8B3wXx4+/rgr4sXRSvQsW07pVfHkIGOooWIiIiIihsTHkRERI/hpx3RSq+OyJ+2iRbglYoV8fG48Zg7azYaWFqKViIiIiJ6GpjwICIiKoCr165hjt88fPblF7icnCxage6du2CJ3wIMtHcQLURERET0NDHhQURE9Ihi9u3DxKmfYOv2KNECvFq1Kj756GPMnjYdr1lYiFYiIiIietqY8CAiInqIe/fuYdm338BrtjeS/vpLtAK9e/RUanXY274jWoiIiIjIWDDhQURE9ACxcXEYOWE81vywVrQAlc3M4DlpMj795P9Qs0YN0UpERERExoQJDyIionyErl8Ht4/ccTr+rGhRZ2BZNPdL2PXuI1qIiIiIyBgx4UFERJRHckoKxnz8EZYsDxQtgGm5chjt+qEyA8trdeuKViIiIiIyVs9lZWXdE/Fj+++//yHxzA5cSY7DnX9vilYqyUxMyuAVMwvUeq0tzKrWF61EhefiuXhMHdRLiWvVt8LcsO1KTI/nVuZtXLyWgpTr15B264a0noFM7R3p+/k/sUfJUOaFF/Dyi2XxSrnyqFKhEmqYvYo6Vc3x3HPPiT2K3sbNEZi/ZLFYU7Vs/hY+cHJC8zebipaS48/Tv+HToX2V+LVGTfDZmi1KTPSsWz1vFqLWBiux85SZsBnsosRP09+3b6LdlPeVuOLLFfCjr24oHZGxunYjDQ4znJX41VcqY4/PSiUmSr+SAvc+byux2avV4b/tkBIXpydKeGT+cx0/b/scR/ctx13tP6KVSpt6DbqjfU8P1G+k3pwSFQYmPB6fXEDzSMJvOH4uDr+dj8fZi38i+fpVsbX0ef6552BZoy4a1qqHZvUaokV9a7xeo+hmQ4nauQOzv5irxC+88AKGDHSE61BnaDQapa2kYcKDyDAmPIgKBxMelJ8SnfA4d3o7wlePwK0bl0ULlXbte3ig57tfiDWiJ8OER8Hc/jcT0ScPYNepQ9h3+jj+1d4RW55NtatUR6fGrdCjWVu0sXpTtBaeRcu+Vup2ODkOQsd27UVrycSEB5FhJSHhMdvVU4mJjN3EJepnlQkP0ldiEx5ysmP1ktzF2qrXfBN1Xu+IcqZVRQuVZP/73x2kXvoV8bE/ihZVq05j8M57S8Qa0eNjwuPRHIn/DZsORiPylz3IesDwFHkoSK2qNVHtlaowq1AJFcqVx0tlXoTJ8yZij5JBm3UX//ybiRu3b+DajXQkp6Ug9SG9V+QhL31bd8WAdr1QvVIV0frkrl67hqpVCu/xnhYmPIgMM/aEB1FJxIQH6SuRCY87mTew9PMmuPn3JWXdtEJ12A7yh3XzAco6lS7Xr/2JnZunIfbYD6IF6DtkGVp0GCXWiB4PEx4Ptu3YXnwfE4ljf/wuWnKrW602mlu+iTdea4QGtV7Ha9XriC2lj5wA+eNyIk7/FY9fE3/H8fhTSs0SQ+Skh3PXfrCqyaKi2ZjwIDKMCQ+iwseEB+krkQmP7Run4MDOBUosJzuGT9yBqtUbKetUekWuHYuje9XZCsqVfxWTfS7g+edfUNaJHgcTHobt+e0IAn8Kw6k/z4gWHWuLBuj8Znt0aNIGFtVqi9Zn0y9nT2B/7CHsPL4X1zP+Fq06A9v3glvv91CzcjXR8uxiwoPIMGNNeHy8Qq0hRFRSBX/kIyJ61pW8hMe9e/DxqATtv7eUVccRa/HGW45KTKXf4lmNkHYlXon7OS3HW+1GKDHR42DCI7fzqZewcPMqbD+xX7ToOLS3hW2bnkrCg+6349geRB7ajqPxJ0WLSi52OqHvUCXx8SxjwoPIMGNMeBARlSbGkPB4Xvx8JIlnd+YkO16t8QaTHc+YlnrDWP6IixIRET2pVbsiYDd7dK5kh1x7w7nHIGz5/Ht4DBrPZMcD9GjRBQvH+WCJ+xfo0Fj9R1X23717WLR5Nd77clK+Q4OIiIiIqPQqUMLjSnKciIA69TuIiJ4VrzXoKiL5s8CbB6InlXbzb0wI/Bxz169Qbs6zyT06NsxaCbe+H6BS+VdEKz1Ms/pNMHfkDCwY8xka19UNtZSn7nVe8H9YsX2daCEiIiKiZ0GBEh53/r0pInA2lmeQXLsj251M3WeBiAru0NlTGPTFx9h5Ste1z9rCSumlIPfoqFLBTLRSQbVu2AIBH8/HhHdHwuR53T9zX4WvxORvv8Cdu1rRQkRERESlWYESHkRE9OQ2HNgO10XTkKw33apzr/ewfNJCpZcCFY73uryLlf+3DK0aNBct6uw3Q+d/gqQrl0ULEREREZVWTHgQERWjb6M34NM1/mINqPhyBfh+OANu7wwXLVSY6lavja/GzsHQHrqaU7//9Qc+WOiJX8+rRZiJiIiIqHRiwoOIqJgs27oW8zepMwLIGllYKUMvOjbRFdqkojG6rwu83v9YrAGpf6dh5OJPcfycrjYVEREREZUuTHgQERWDFVHrsDhyjVgD2lq3wpLxX6D2qzVFCxU1eWrf+aM/w4uaF5X1W5m3MS7gM8QmJSjrRERERFS6MOFBRFTE1u37CV9FrBRrQOc322Ge26ycG28qPm0atcBXYz6HadlyyvqN27fw8TdzcSktVVknIiIiotKDCQ8ioiK0L+44Zn6/RKwBbd9ohTkjpos1ehrerPcG5o6ciTIvlFHW5WTHJ9/5KTERERERlR5MeBARFZHk9KvwWvWVWAPesGgIH1cmO4xBs/qN8bmLl1gDTpw7jWmrF4o1IiIiIioNmPAoTCkR8OjVA+17uSMyRbQR0TPLO3QJrt28rsRm5SvBe/j/5fQqoNyubxmPvu90Q99J4VCvWNFr37gNJjuOE2vApoM78H3Mj2KNiIiIiEo6o0t4ZJzbhQ2+HnAZbIv2SvKgB7o6OsPrqwjElvYkQlYG4qMC4T1+EGzEa29vPwguU+Yj8niy2Ol+sf5iX/+TooWInja5SOne34+JNSgzhJhXribWikBWOi7sWYNATyeMHdhNTR680xvDXCcjaMsJXM8S+1Eu73Z4BwM69hVrwOc/LEPC5SSxRkREREQlmfEkPG6cROh4W9iM8cGC3ScRn64VGwDtjWTEbFsMt2G2WPKLrr1UuXEEy10GwWX+OkTHpyNDNCMzHfGntsF3qjNsxgcjPmcDERmr0xcScxUp/dDWGW9btxRrhe/2r0GY/t5AjJ0XhMhfk3EhU2yAFtdTT2BTwGQMe88Pp0rp1+eT+njgGFhbNBBrwBcbvhEREREREZVkxpHwuLQLvmM9sCRe/m1cA6tWTvCetwyb14Ujat23CJ7shJ7VNUDFPujSWPpZ2mTFYeVYL6xMkV6/xhx2I30Qskp+7eFYt8gLnn0sYSrtlhEfArcZEbjMv9QSGbWFm3XJjuavv4kPbIaItcKXumsmpniuwSk5ySF9f3Qe4oF5i0OwNnQz1gYugceQNqgnfW1W69od1qXw67OwTBzgJiLgwOkTCNu3TawRERERUUn19BMeWcmInO+HyKtSrLHEqHlhCJ7jgp5NLVG5oilMK1rAysYF3sFhCFnghMZl1cNKk/Nr52O58vqt4Rm4Gp6OrVG3uvzaTVGjUTfYfbwMG+bYo660izZ2MWZtZHdrImP149GYXENZxvZzFVERuByOgMV7cUEKy9QbhHkrQ+Ax1BYN65mjXAVTlKtljc5DfbFoZTDmvN8crB6SP7mg7HC9xNTiyBD8e5ddYoiIiIhKsqee8NDuD8b8WPmXSlMMmTkPw5vKfRkMMDFF3dpmYkVPTqHQxYiVVtMOBcIru/6HvQeiL6m74UYSDq70gntObRBb9Bs2Bt4rjyDNQI8JXV0MafuhYHiP0B3nNN4LoYfyr6mhUOpxzNc7l0HwCjDwXJn7sDFUTWC0HekJu5pKeB/TVhMws796bWLDfkI8e3kQGaXAbT+ICBjSbQAaWViJtcKWgaMhATgqf31WsMVM39FoWEHdcp8KFqhWScT6TvjrCoVK31mJW+ZgypDeSlv/oQE4I+73byftxKbZbrraIO/2w8SPPLHpsOHvwTNLxX5LD+P64SD4uamPKdcUGfuA47JpbyYgxn9yzvMNHjoZYQ85pjCMtHVGrao1lDjt5t9Y/pPuvSQiIiKikucpJzwycDBqF5TfqRu5YEirfJIdj0SL8xHuGDgjArGayrAy00DT2BZtlQRCAkInjIBHyBEcy9DAqqa5tJjiTkoCokO80G/YYsTmVxtju7f0mCE4eFt6TOm4yhrpeeKPYMkMZzj5n1TP/T5/YYOnXI9jG45BOq66KTSZ6YjZ6IWBU3IPSdH+8jM2KA/SGn27mCtt+bHq7Qjl1unGNhyMV5qIyIis2/cT/kj+S4krlCsPF5v3lbhI3DyMPXvUb6CW7zshv1zxo0nH0YAPMDFgL26bVka9ChpU79YJDeUhMIlr4DV2DoIOJyCljDnq1ZCWclokJhxG0GwnjF16AnfVB7nfjpkYMXsNjkrfn/JxlaTvzwsPOy55HXxc3eAX9TtQSXou6VxuXz+B1bNdMGtL0Sc9hvUaLCIgeMcm/H37plgjIiIiopLm6SY8suLw2y9q2LZba1RWw8e0E/ODgPFLwrB51WoEr92KqJndlNoXgCUGuDliiOdq7I4IR3CwtD04DFHrfDCkqrT5agQWb8tnmEjF1vBaLj3WWvmY1dgsHz+ugzK85HykF3x2pKv75ZKB8+gOv1U71ONWhWP3t25oK908yENSlugdc/7sETWo+QYsKqphvmpbooUSZOC3c4ael4ieptV7togIGNJ1AF5+qQjH4MWfQIwSWKNd6wcnSx/qzzAsO9IcM4N+wtcrQrBozWYsGm6tbqvnAFcHW8xc8RM2hkrblO0/Ye0sB9SWNl/Y6o+oi+qu96nQBhO/lvZdox63ar30uKM7iuM8sWiXge+xm2lAh2lYtVmcS+hP+GakNcpAi6MBfogp4jlrbVv3QMM6lkp8564WIXsilZiIiIiISp6nm/C4mozzIqxb+wl/YZd+GW7h6okBVro/c2r0CvRp2rthfFdzaExEg6xia3wwrJkSxu46gstKlEcbB/Ssq/dAJqawsvfGnOEW0ooW0SHbcl6DjiUm+05G2+piVVbbEeOHqK8x5nhcTs8QbaboWlLJFOXVKH8m1WCePeQl644IiMgYRJ84gD/EdKblXzbF4K7vKnFRuZ6c/c1jhdpPOtutVgO7j6agZfbjmGhQJue70hRNR3qgZY3cFU/LtRyK95rLURIOHc2n50VrB3S2yP39Wa/vLHgOVb8/Y0K3KvVHcqnnCq+PuqOS3nd1NYcpcFVGmpzAGWUIZNEa1NlBRMDavVtFREREREQlzdMvWqqwRN18fmFPi3AXtTN0y5LjYmMuDx8SYohpg+bqMJFzKShIn4m67bupx106jNgUpUlPGekXexHqqduotRqkpOGWGunIw2VEmD8NXsxvjD4RPVUbD0aLCHBob4syLxRTidB61WGoPAeQjOhJopZGzuKPM2JrLhVs0aV57oTGw5mh3hvqd+6pS/d9CT5Q7XbdUU8OLh/CmVSlSaeMRvqmy8sCr6u5aaT8naYGRahXy66oWUVXyyPi8C4lJiIiIqKSxUgSHgk4n/eX3mwvmYmaG2ZieEp+zFH5YUNCsguXDnNAVyV5Yot+U9cZ6KHxCHKGl8ThvMGuIQX0VzIe/mt8Ki6fEyERGY2L11IQEyvG50ns3rYRUTFITIHhUR4votyrouZGpYckM8zzS5roZBcunSiKmsqFS303P2byoZYlmipBHC4UxvdnEbB7u5eIgC1HdouIiIiIiEqSp5vwqFgZ6t/QgGvphquGVrbxFjU3vNBXtD0O7fHFcHEShUtTtChfXU6iVAYyMnKGlxSISUH/GmqYaWXRK+VyysMTHpkZyBAna1ruoQNgiKiYbD9xQERAW+tWqFnlSYfoPZzpK9nPkYx0g3U1zdBuqqi5MdlWtD2ODJwJcIKzKFya+K9GJFGAlJuPObykkL4/i1KvVl1FBBw4fQLJ1+W5w4mIiIioJHm6CY+ytWEhalJE79gr/VpdRFIi4DU1AvFaDRrb+2Bd5Fa1sKlchPSbCWgrdiuQrMIZRy4Pc1F+9b+xD789rKuJ9Eu3WhLRHE1ef6IpGYioEO369ZCIgG7NO4qoaJWpY6EOC8FhxBwuuiLG17dMxZQtybirscSgGSHYKBcelZMoQZvx7WhR2LSgCun7syhVe6UqWjdU+/HJdv16WEREREREVFI85SEtFmhrKxevkxwPxnfHiyblEb8lGAeln5quXlg8rjXy1N57PBcScEwJrNFAnnLgcTVqjr7K+SRj7eb8prmVpSNmwzZ1e8UOaCJPE0NET921m9dx/FycWAM6NH5bREXMoiN6iq/PA2vW4EyRfH3GIfp7+bVpYDdpPpzbmOsVM30CFxNwSgmsUf9Jvj+LWIcmbUQE7Ptd/cYnIiIiopLjqdfwqNHHBQOUG/50hM7wQuR9JfuFLO3jDT2RZM+E0sK6/v3F8B7rcTNwbMM6xMtho+54S57a9nGV7YD+Q9S7lsuRPlieT9LncoQ3vH9Rz7Tt0H5qwVQieuoOn/1VRMBblm8qM7QUDwvYDOkul0gGroXDa1YYUrOUDffT3lcm+RHdQYYyXOZ11NObASubNuuuiAoiA6c2hSFRDhv0wJtVlEaj9HajliICDp1VUzREREREVHI8/aKlph0wfrY9lA4L2jj4jrCFu28Iok8nIeNGhrQkIT4qGN4u3tigHFBwZuZqQuHgrn24rH9DkLILSzyDRU+NW7iVqQS5nTuB+BsilmWlIz7ECx5RcmLCDMNd+zzC7CoPVrf/BAxXkibpCJ06CO4B2xB/QX7tGbh8ehtCpznDaak6la2m8QRMssunPsC/6eKaGV60+d0MPUPSDoVgwRRn9LMTs/7YOcBlvBdCd0ufN16fZ8qVq4VTk+HYud9FBDR//U0RFY8yHSfCx9ZMie/GBeDD99wQGLYViRczcPumtFyMQ8waT0ycu1PZp+DM8Kry9RmHA/vUKXezXd/jB5+VCerKPxkwmPqQvj8T9euLSN+fiaFTMSta/f4c9IHtQ4ulPk01KldHnVdrKfGdu1oc+0P3XhMRERGR8Xv6CQ+J5q0JCJznhBZl5TXpl8rdwfCeOAI2jg7SMgIu80MQnaL2bjC1ckSXAg7nqNFnAobICYXTgXC0l25wXZzhMtgW7Yf5YEOV1uipzO6yDxu2J8tBbqdD4OJoCyf5GJdBsOkzCC4r5eSDBm2Hz8EHTQthfEzZZhi10BtDqsuPJb3+jfPhMkJ+7Q5wnDgfS35JVpIdplZOCJxtjxr5dSnf4SOumeFl+bP8B8qsJEROtUW/GcHYcCoZadnderQZiI8/giW+I9DXxRsxl0Q7lXrvOg1Rkl6d+9jgy0ULcSnZwP//j+DX80pfL0WTeo9Z0+KxmaLh6O8wb4glysmrmQmIXOmHiW79MHiItLiNh1/oYSQqn3cNmjp0RMFGkFjAZqSDcszRIBf0H+KEiSOdMHZgNwybtwNmLdtAmVH8wA/YY2i2lbNrlFldxkrHTBw5EIP7DcTENXG4K51Ly6G+GPxmIXx/FrHGrzUSEfBbkkjwEBEREVGJYBQJD5lpUxf4b1yNwHF90Fl/ClqNKaxqNsOAwRMQGLwVUUvc0Fj9g+ajM22G8V/7YdLbFjCVb3AvpSFNY40h4/ywfp43vOZMwIC6Ghxbuh6x4pAc7Z3g3ccamow06bh0ZMjn07QPvJeEwc/J8v4hMo+rageMDw5D8OS8r18jnsMUfYc7wkCvcnqodMTMGAPf40ofGbToPxnB34Yjal04Ni/zg7dTa1hJF1mbsg9enyxGbJHUQiBj9b+sLGze+iPe+2AYPvtyLv6+8bfY8nD/3buHMxd0c0U3rG0pomJkYoqGQwOxNmg+3G2a55qCtkwFc9R7sztcR8/HN5t+wucjm6uJkQIo09wd83xd0bmWBndvJiPx2i2UsZR74n2PmdOmYebo7mj40h/w33RCHKGn3VB42LyBMtL3Z+LldNyWvj/rvWkLj4XrMXOIpTocx8g1rKN7T/XfayIiIiIyfs9lZWXdE/FDxWz7HLsjZypx5z7T0dVulhKXRrH+PeAWKQV2ftjv3kxtfBqykhE5ZQR8Y7Nv1j0wyaED6iq9QYrXrRuXMd9L/ftw+Yo1MNknv4IrxkX7sw9sPt8FLcwwZG4Qxr9lIGt0YR08xgTioHSZNT28EfVJh8JLZpFBF8/FY+qgXkpcq74V5oZtV+LiIvfuMKS8qSneGzAQjg7vwrTcg9MDf1xOQr/PxymxPPwhbEaQEj/rzizthilbpcB2PraMa642llCnEmMxbtEnSvxGndexbupCJS5J/jz9Gz4dqk7s/lqjJvhsjTrfF9GzbvW8WYhaG6zEzlNmwmawixITEVHhSL+SAvc+akF/s1erw3+bbmbD4mI0PTwoHybmsJu3DN6dzKUbcHm4iw+chtmq9SeUxQcHDdUeISEJW9bIyQ7phtTOC6MMJTtktR3hPUFNbGl3hCNGb5ZPOfklX2uPCMNDHh64PSsZx1Z6wc0x+z2zhVN+NUNSIuCh7LNY6WmUdigQXvLQK7nN3gPR2xejqxw7BqoFcw2QkzvK/qPWwdAIA3q4WxkZ+Gbld7Af8h4WBXz9wFofF9JSRCR9hF4Vc2xTqZJdw0N24Zru/SYiIiIi48eER0lgYoGe01djy3IvTOraDFYV9foe1LSAuVL7hAw6vw+R5+XAFHY9mz2w14ZpJwcMUKKT2F8YUyRfioBXf2e4hxxBbKYGVjXNYWUmnZKoGTJgWkTuIro5tDgf4Y6BMyIQq6ksHaOBprEt2nbvjg/kejM3tuHgfWOvZFoc279Lidq+0wE1lIge17///ot1mzZh4LChmPvVAqSl62XBhMvpumRI9UqviohKk0qmr+AlzUtKfPOfDGUhIiIiopKBCY8SxLRuNwzw9EPwuq3Yv22rUoMiarGjOsMNGZTxx++iN0RrWD3sQpWtD6v6ahhz9g81eFwZJ7Hkk8WIyZSL2y5DVEQ4goNXI3it9N6t8sKAqtIuxxdjSsBJpfdJbjsxPwgYvyQMm1epx0TN7AZTE2t0dpBn6MnAd7tOqrvqyzyCg7vlwBpd2uQzkw8VyL1795CVlYXIn7Zh0AfDEBL2A/69c0dsBdJuXhcRULlCQYsLUUlRRe+9Tc/Qn7aLiIiIiIwZEx4llYkGphVNYWrKShMPcue2+GuspjzKP7QnTGVUrqNGTzqFb3yoD0KvAjVsvOHjZAlT/Zl1qnfDpDkuaCyF5yPCcPC++yctWrh6YoBehVqNeJvrduqnHKfdvhXH8gxl0v7yszp181t90KW60kSFRE58yD0+vv5mBewHD8Ly74Jx4+bNXH/tr2haQURU2lQoV15EwI3s7xQiIiIiMnpMeOSjsfsO7N8uLU+zYKkRu3HzBsZ7TFaW6Z/NFq06azesz9kuL/K0n3mt/mFtrn18F8wXW3QCgr7NtY+3r4/YovPt6lW59jH0XKhdHQ//+7sG5Qs6hYVBcTi4XR7+YAo729aGh9HUbY52ynTIJ3FWGXKjrzX6dsmnh0btDugrz5Kp3YcYZdaZbLrhLJ27ttHN8iOReyfoX59JXp5ii86un2Ny7SMveW3YHHHfPlpt7v4ph4/+ct8+ef20Y4fSPuurhUiuUFNZ7vwnNgp79u2973Hu6PWskJ349VSu7V6zvMUWnVOxv+Xax3OWWnT5SWTcvo2V34fg3fcH45eTuplJyophDwQ0HLcLW36UlhJesDSb/nv7793cn0MiIiIiMl5MeNBjuXv3f8oNp7z8Fve7aNVJ+uuvnO3ycib+rNii8+f587n2iTtzRmzROZeYmGuf30+fFlt08u5j6LlwLgX3V2DIKx3J9yUfHkNKAn5Tem1kYPlEuQipocUdy5V9tAZ6k5ijspIMMcQcXWzlJJwWG7buk55BkIez7JeDZujaKndq5+KlS7muj7zklZJ65b59Mv/9V2xVGXocebiHvmtp6fftkzdRkZySrLTHxcfj3zJllSULuSeLunLl6n2Pk/e5/v77Rq7tv/5+f2GTmzdv5tonNi5ObHlyd7RaJF3UzVRkYqLfjYdKE5MXXhAR8L///U9ERERERGTsmPCgUq18peyxHclIe+jQ+1vILslQo2xhDBUyRVsbewy3f9Digi4FLMKSU1z1l604KLI42uM/Y4vc2aKVLdqylESxef6550SEPCkbKk3u/afrgvT88/xnk4iIiKikeC4rK+uRf0+P2fY5dkeqXcI795mOrnazlJieDbduXMZ8r9pK/NLLVWHjHKXEZV4og8bW1kqc7a+LF5GWnibWgLIvlUVDKyuxpkq68BfSr+uKPr700ktoZNVArKnO/ZmIm7duiTVAU0aDNxrJYzp0Es+fV4bYZMv1XPJUr8MW46AUDpi+FZM6PSCRkc++8rSzbpFA23Gr4Wd//1CT+7bnPI41PFf5w+5R62nkHGePwO0TlFodhmlx7EsHuO/QovPkMPjYmOasG3qNl1OSkXrliliT/qd/7nk0a9JErKlSr17B5eTc0+o2f7OpiFRyD4+radfEmirvPvJMJn/p9XqQ5d0nJTUVyakpuHrpApbPmqK0vVanNuaFbVdimTwV7KXk3BPr5n2cv2/8jT+TksQa8ILJC2jyxhtiTfX3jRvSPrpuO/r7yD1tCuo56b970n8vajTo28cWKS9lYsuxGGXbJ+9NQL92fZSYSpexi6bg10S1J9uqSV+g5eu5P2fG7s/Tv+HToX2V+LVGTfDZmi1KTPSsWz1vFqLWBiux85SZsBnsosRERFQ40q+kwL3P20ps9mp1+G87pMTFiX+qosdSpkwZ5QZUXvImO2R1atXK2S4veZMdMovadXLtkzfZIav/Wr1c++RNdsjq1a2ba59cz1W9GdqKHhQbNmyDLgVzv/gtIUqyQ66h0aLpE/TwqGouZs6JQ3z8/XOwPDkNWtjaK9POxmzYicuZRxDzs/w83dC21f3nXaO6ea7rkzfZIatW9dVc+8hLXrVq1nzoPpXNzB66T/Vq1ZR2a+l9euluprLkHQzyatWqD32cVyq+kmt73mSH7JWKFR+6T0GUL28KV+dhiAj9AR+PG4/Kr+i602Rk3hYRlTa37/wjIsD0pZdFRERERETGrvQnPI4vVmsmTIwwfLN7aRcWjB+DBZFJKIpbU3raLNB3aDe1cOjpQPhG5O7FkE0rfU5mrVPHh9SwG4S2+jU0TNQkwsE/cvdcUGTF4dhhEWczaYa2PdRjNmyIwOUnnPHFoEYdYSef4/mfcDDyhDKcRdOjE1o8dCYaehwvly2L8aPcEP79WoxwHoby5dVZOyrpzcxyndOVllrXb/4totzvOREREREZtxKZ8Mg4vwuhM8bAyV5XBNJmsDO8fENw8NzDS1Pqiw33w4b4BGzwD8ZBzjZYKmk6ucCrsZyA0OLg0hFw+Xwdjp1LRsaNDKSdO4LIr8ag79QIKAMfqtpjpmuzXDOrWDXroK7vXoNI/ZzHDelzM80Dy6+K9RwatBjmhrbyQacDMWX+LlzWz6ZlaXH50GIsiTScfHkkJtZo20ueiyUJC1ZESK9Mg77t85kRhh7bCy+8oAxdWbdqNYYMdMSLL74otqiqVaoiIuDq37mH+xSNdByY64SJQ3uj7zvd9JbeGObqBr8V4TiTKnalQnH3f/9D+i3d0LtX9Xr1EBEREZFxK1kJj6x0HJzvjL6jfLDkUALOZ4p2SUZ6MmJ2B8Pji53IPfL/waw62MNKo4GVTQ+00J/LsxilxW9D6IwR8H6SG2B6AHP0nL0Ik95Skx7xPwfCfYwzbBwd0G+MF3y3JSiznWiqd4DPlxPQOM/nQPO2CybLCRNtHHxH2KLfMGe4DHNAV8cxWHLDEaO6ih31VbeHz1xHyIed3+EDRztbOLlIx0lLP3tbOM6IQOiKJ0uyWfV0RM7gHU0HdFZeHz0JuUaHrGzZsnjf0REbVodg6seTlOEzhtQwqyoi4FJacfz/ewe3ryQj8Xre/mhaXE9NQEy4P6a4DkTg3oIlfgtNRhJObfGD79AA3D/nUsmk/77WqlIt5zNCRERERMavBCU8MhC7dDQ8opKVoSemVo7wXvQtotaFS8tqhMzzgmcfS9gN6K7UNnhUmqZuCI7ciuDJHfB08h3JOLh0PpYcSkJGUQx9IJWpJQbM3YrNs53Q08oclbNzAxpNTq+IFg5u6FxTrOgzMYfdvG/h378ZrCoCaSnJOJ9ZBwMmL8OWJS5oUU7sl4emsRsCQ5bBu4963PlLyYi/lIbyVZthgKsXQlZ5oe2TfOjqNkcXMfRG08uWw1kKgWl5U7i5uCo1OsaNdEOVypXFFsPqvqr7wJxPMTDkqQjVGzQfa0M3K8uqxfMxc7QtmiqfgXRELpiHA7pOCcUnIQLTA7ZKz116BggmpfwlotzvNxEREREZvxKT8MjY4YMJkfJfLTVoO/pbRC1xQ89GFjCtaCot5qjbtBvsPl4GTxt2N6b8VX7bBd5LVmNz5A7s3y4tkWFYbKd+Zg4GqMNdYi9kQJs3+WRijhaj/RC8bqty3O51/hhvYwlTE6Cxu/pYhmZwQUVL9PxYd9z+7VsREuyHSYO7oa5+nRBZdXv4Kfs8aIYWfZVQWcnumeKDbs2UFiq45557Tpletk/PXvgheCWGDXkf5V5+tMKUVSpUwqsV1aRI5p1MnE8tvqSHmVl1lKtgqiyV6jVHy74e+Nx/NFrKG7WHEb2PPcYKw9mL50QEWNUs4BzSRERERPRUlYyER1YcNgQeUXp2aFp5wLu/hdr+JOQpQEX9D2XxPyk25JYRvw1LpgyCjdivq6MzvL6KQGyK2EGPPD1p+14eiJbzMlePKMNU+tmpx9kM9sCS3bopNBXKOTjD97S6enCps+588hRZ1Srn4az3eGPgHWD4PKggTNF4XBACnSylSB3u4jbCAV37iPdBen826GY1NS5Z15Emj9+q2Adt75+8hh5BmRdegMM7dli3ag2mT/kEFSsUvCDlGxaviwg4nXRWRE9JjY5oJyY7OvpXni+HrGScWuOJ6Tn1P3pj7Eee2HTYQGIkNRyzlH38DQ9NMbD9zFJpfXq4WAvHlJz6It0QdEI067uZgBj/yRg7UOz3bj9M9PRD9ImHn8/1wwHwzX4dAycjpiDjGAvo9HndFXijjqWIiIiIiKgkKBkJj1M78Z0yAYIpPhjSrXCGnphoULmmOawq5lf3QB5C44y+4+cj9FQ6YCbtK+1fPjMZMdsWw+1DZyw/bqgAw0lEhQXC28ULS46nobI8RWlZ6dHSTyLUdww89Ot0iHPIHl6hqag+h7JU1Z2X9tRiuCjnkYw0EzNl+4sZCYjeuBjfGbpZoYIxMUXj4csQtcoPnv1bo4WZ/meiEWpUE6ExuZGAyM+9sVz6/6Jur46wyjuvKz2U3ONmz9af4OE+UZkq93E1e62hiIATf/wmIiNzbS8CXZ0wPfQwTl0HatcwR71KwIWEwwia7YSxc3Yi9UmH1JnKj5n9/45GfQ6xVMpd6xV3T/hj4nA3+EWdwAWYqfu9pEXir1vhP90FEwNO4K7YNzctLmwZjxGzw3FaU1l5vjJv2KJlQcYxFsA96b+Tib+LtdzvNREREREZvxKR8Dh/Wu3dAU13tHi0vv4PV7UPPINXw2+o7q+z+i5HeGFCRDK0VbvBb9UORK1djWBp/80R4Qgebg2NNhkrZ3gh2kAPi4MbI6CVb6DlfaVjQqSfIU7W0hYtDgasR2z2jYVyDl9iVH11tcXQL5X9lWV6H6gd5bU4tlWdQUTz9mRs3hgmzmMr1nm6oW8bA8Mo6PFUbwa70T7wX5s9bEWuD+OBtsZUG+PqNviKgqm++9OhaeyCOUPkzxY9La0sdV9Kx84a7ilWbDLicFp0MuncSPRGyEpGtM9MRF4Dyli7YlHoT/h6RQgWrfkJWwJHo6UGuHBgDgK2PlnytOFw6TEn24o1W7jLzyGWd/U/opfD4TM7HIlaM9hNCcGW9evV/aTzWrvQVTofLRK3eMLH4PnswLKVgOvC9VgVpL6GH6Z1Rz5ldJ7YL2dO4O7/1NRL/eq1Ya5XpJaIiIiIjF+JSHhkZFfJr18HxXJ7n74Ly1fEQQtreH7phbbVRbvMxBRWTj7w6SrdJWjjsHxLnNigx8YbPo5qfQeVKeoOGoQBcqg9grMFGuafhjSRVKnbwBqVsx/TRIMaXR3RWf/cqFBplPow+r09jECWVvo8aFHDqjXGe36LLfOcUPcpzS5Eqmb1Gim1PGSpf19F7HkxRq2I3dXvkSF9Lq4n7sRqz3mIltcrOMBOVMS9ezgIy+QkiKY7vGYORT39UTu1BsFrUneUkcKjQetwpsgLJ6fjQGAAjmqBliMXw61L7m/0cpZDxflocXR1BBJFu44WTYdPg52l7kNfpgj/F93/+xERAe0aNRcREREREZUUJaZoqaKOuej1ULQyju9AtNylpJUDuhgsym+KJq3UIpGXTyfkqrWhMPQbeNnasFAeKxnJBZox0hxvdVBrlsSHhyCGNTuebUph060IWeKDIV0t9JJq9DR1btxKREDMqQMiKlqnVjjl1Mjo2683hk2Yg7BE6YtLYwnnT13RUPRMijuyUxkeUqaHLVoaSI6VadkJNnKg3YFf/1Cais7NEzggZzvQBj27GU5fl2n6NtrJwc1YXLimNOmRjutcfL3a9v6qey+7NGktIiIiIiIqKUpWwuNS8v3JhSJwPk78Ve8Xn5xipXkXmy/FPo/8F1ENXix4PURFjf6fw7OxBrixC17DbOHmu47FSomMSM/myi26YufxGBEVv3od3bFoZSAGWWdnNpJxRcyq2rROPt3BylZGJeW7KQN/XTJUl6gQnfsd6tU5DN8hIlmTdxkyR+yD+2dLgjnMHvN7tKAO/H4EV/5WMy7VK1VB24acCYmIiIiopCkRCQ9NWfHL+4WUYkl45KjdGsPt7R+82FoXfa8TE3PYzQtD8LgOsNJoEbs7EG7DbOHy+TZcLvIu6ET0MJ3+v707gev5/uMA/rImV45ypCa5cuSe25A7cpShRQcycpY/MWWEUUaMnA01hJYrJCxXGMuVa6GIXMkoUrNlbf/f9/v7pB+K0Pnr9dzj9+j9+Xy/vytpvq/f56jf/OX6DtJF8uHwY3Kdk5rbe8N/8y7FzRfO0kIcCtG3k1D0vRe00Ia2GDSRnPxMWeQ4Q5j0sYDlW29mqFtBnJ4Hgk8dEBXQs1kHURERERFRQVIgAo9qdcRQ4qencOm91r/4SI0tMXLs+LffTHNpm0Jp7RDzmfDdmR58RB5dCOsZh5DDn8kSURZYtO4iKmDXiX2iykGaWihVRroZwmTCZJhImUeMD7wCXtv++p0e4MFNZVW5XG5MGpQ0Re9RjrB9680MBnk0Zev2w7s4cv64aAHmrTqLioiIiIgKkoIxwqNFB/SXP8CMwTK/45B3bMlBOlVEiBH+u7w7Sr4ibUtrPhPebj0h7cSYcjoQRzi9hSjPDWgrr4QhOx0ZjnNRF0QrF2h3gZNYfPSq30wEvcw89FCpqrK6cC+TXxSJ8YiTf6lqQbtSBusPZSfdymgsF2G4/r65TC7adnSXqJTrs9T+rJpoEREREVFBUjDW8CjRDr3NdeQy5bA7XLdn8i/lpChsW5fJiIeUFPwtynfRb9EZ8kaT97Yg6HROj58ojdJixs7jpKxHOZqft0cbuYrArftyQUR5SJrS0r9td9ECNh/eLqrcUbS9E1w7ysM84D1jFaLFdDfjlsog5EVo2Ms+VXGHdijXzChjhuZpu3S/HFnxO+5k8Psl+fcwZBjnlNSErlw8Q9JzuXiVfiu0ltdgjkXgjjB5MdX85t6j+9h2LEi0AOuOfURFRERERAVNgVm0tLaNK4bIU+RTcHLVaPSd6I2QKzFIepqEpAdROLtzIRytR2PRRk/MDBLb2Ep0dFBb+npjC7ZnNbwwMMd4OWBJwuZZrth25bVtVeIjELTQF5cz+gf9e9OCUROxC0vwLlxWfYlpFyeXfTFz1SHceiraCkmnj+GkXLVEw5pyQUR5bEhnc1EBJ38/jV8vh4lWbtBC89HT0FvKPB4FwHOdcsvsoq36wUpaCyNR0bf4IBJUQo/ki6vEeZpobmuOGmlBR4WmaCb/WorCjh1hSFa5T8IRT7guzSSsqFofLeRBIsew54DK7+GX9zeE6SgLGCiquBA3uG+OeOWxkRqP6N2e2BGe0+P4Mrful59FBbSu0xjtjD8XLSIiIiIqaApM4IESTTDS2wsja0r/mk7B48tbMNNpOEwHWsDUbjQcl+/F2eeKf7ZX7oL+rVS2LazWGYOlHU4Qj83TLNF3xt4sLHyqiQajlsD9Cx3FU0VgkZMlOg20xbBhipuVGb6wcoTH/o1YujN7xmTr9xyPQVKY88dOOFhZKJ9noBkG+kgXIik4G7wFIdvdYa3o62unOGZngT6K9yF98FrN3BJtykqPQkR5rZa+Iaw6mIkWsHbfRlHlEq32sBdTW+5sm4ENF1MADWNYejiibQlF36G5sBvQF04jrOFk0wNWLgG4qjjFwMwDrmaq270awnSEMpi4E+wCq68GyPcZM6Az7Bb8hpr9LdBceeKrSrSHhb2x4vlTcGaVNaxsFM8zYgCs+rrgRKLylKKNHOE2qb3isRXn+I2DVdrrkc9TPM+qYPisCkBuLteU5kzkeQSHhYgWMMJ0oKiIiIiIqCAqOIGHRMsYQ5YFYKPLMPRvrIfy8ieJCppaqN24Mya6rMVu30loo9wsQdBDtwVr4WXdEs10gMdPs/jJoYYeTNwCsGu2NbrV1oHm01hE3ovFrdTyaNZ6IFzmbYC3lXJkxkfTaoJxi90xsoEWNFOSlM+D8tDTSFFcEmiimZ07XHo2geJl4PEDxet4kILS1VpinOL9+o5tojiDiPKL0T2tULyo8m9l5J3rWP+Lv1znlvSpLfEIWLgKV6WRaPoWcPHxhdugVqhbPAXR92MRnQAYGLWC/YyNWDG2qRySqCra1BELFjuit5EOSj2PV9znMUo1ssEcn61w7CYWBsmAbp95WDKqC+qWAJITFM9zPwk6+orXozIiTrfzLKzw8YB9KyMYaCQpX8+jFOgqXo/lqIVYv8JGDltym/fun0QFmDXvwK1oiYiIiAq4Iqmpqf+J+p1C987B4SA3uTbp+S069Z4l11Q4PHt6HwtdlZchpcvqY5J7XnwGS+ri7o1ITLVUrnlRpWZtzAv4Ra7VwU8HAzF/2xrRAn6c+AOMDeuIFuVHa/ZuwE/7Nsu1xica2OO2ClUrqo56KbhuXrmE6TbKtUiq12uI7/x2yzVRYbdhwSzs9/eVa9vJbjC1GibXRESUPeIfPoBjz9ZyrVOpMrz2/ibXualgjfAgIioAhnaxQMvaDUUL+GHbSlFRfhR25ezLsEPi/OUwtQk7iIiIiAozBh5ERDlg6oARogKuxERivr+XaFF+8sfTx/jef4loKbehHdLZQrSIiIiIqCBj4EFElAPqVqkBt0FjRQvYdXIfNh7cKlqUX8zZ4ImHTx7JtY5WWcywGi3XRERERFTwMfAgIsohX7XvCav26bu2rNzlg72n0ncBobw1e8MCnI26IFrAHFsn6OlUEi0iIiIiKugYeBAR5aAZg8agnfHnogXM3fgDDp47KlqUV+b/vBS/nDksWsopSB0bthQtIiIiIlIHDDyIiHLYwuHfoH7VWqIFuK2b98rFNuUuac2OXSf2ihYwwnQg7DqbixYRERERqQsGHkREOax0iVLwcpiGWvqGokc5nWLb0V2iRbkh9d9/Mf0nD+w+uV/0ANYd++B/5kNEi4iIiIjUCQMPIqJcoKddEavGuMmLmab5YdsqLAtcI1qUk24/vIuxSybjcPgx0QPYduqLaZYOokVERERE6oaBBxFRLtHXqYQ1jt+hhVFD0QP4H96OiSunI/bxA9FD2U1aM2Xkov/h8q0rogcY3dMKLgNHihYRERERqSMGHkREuUja+nTd/zzQp2Un0QOcunoWQ+ePw57ffhE9lB3+fpGCRVtWyGumJD1PFr3AzMHjML6PjWgRERERkbp6r8Djk08+FRWQ+k+KqKiwUP0z/0Qj/WeBiN7f90MnYUJfO9ECkv/6Ex6bF8N17XeIjo0RvfShpEVhrd1HYvvxINEDGFbSx08TPGDZrofoISIiIiJ19l6BRxntKqICHj6IEBUVFg/vXxYVUFbbQFRE9KFG9rDEWqe5qKmX/vfp6MWTsJs3Gkt3rEb8swTRS1l1JvI8/rfcVV4U9kH8Q9EL9G3ZCVumLkbL2unTiYiIiIhIvb1X4FGlWitRAZGXgpD45J5oUWFw+WyAqACD6m1ERUQfo02dxgicthxDOluIHqWfj+xAvxm2WBq4Gnce8nftu5z4/RScvWdgwnJXnI48L3oB3XLl5dE08xQ3reIlRS8RERERFQZFUlNT/xN1lvy0uDNuRYXKddM2w2Buwx0GCoPrEfvgt7yXaAFfTz6JKtVaihbR+7t7IxJTLbvLdZWatTEvgOtXhN+4guXBm3DiSrjoSde+YWt0b9YJnZq2Fz0kjeA4GH4U+08fzHAa0LCuX2J8b2sU1ywmegqnm1cuYbpNH7muXq8hvvPbLddEhd2GBbOw399Xrm0nu8HUaphc56UnyYm4du+WaBEVTK1qNxIVFXbxDx/AsWdrudapVBlee3+T69z03oHHtUu7sXlV+ieR7bpPQVdzD9EidRR99QAC1ljir+dP5Xb9zwdi4HB/uSb6UAw8Mnfg/En4HtyB8BtvTh0sWbwE2tZviVZ1m+Fzo8bQ1a4ojhQOV25H4sy18wi7cgbnb6RPs1PVv2132Hf7EtV106dhFmYMPIgyll8Dj7aTB4sWUcFTqVx5HHFfJ1pU2BXIwEOy5+dxOH10pWgBBjXaoHn7UahRpwu0yuiKXirI/nnxF+7fOYdLpzbhzHFv0QuULqsnj+7gGh70sRh4vFvo5dPwPxosf82MfvnKqG1QCzUqG8Kg4meoXL4SdEpro0zJ0iiuWRwaGhrizPzvv//+wz+p/yD5r2Q8TUrEo8R43H8Ui9t/3MP1u9G4ejcKyc//FGe/SpquIgUdVh3M5MVJKR0DD6KMMfAgyn4MPEhVgQ08JNvX2eHiqY2iRYVBqdKV8NWIraha8wvRQ/ThGHhk3c24u9hzOhS/hP+K67G3RS9J2hl/DrPmJujdwgSfZuPuURd/v4yr167B8sv+oqfgYuBBlLH8HniULVkGtT6rLtdE+d3ZqAvyVwYepKpABx6SY/vn4VDQDPz3b6roIXVVp2Ef9BiwCNoVaogeoo/DwOPDXLkbjeO/n8Vv1y7gfPQVPE/5WxwpHPTLV0LzWvXRpm5TtDduBp3SZcWR7JOSkgLbkSNw9/49dOvUGTZfWaFWjYL7u4+BB1HGCkLgsceDU4gp/3v09DEsZtjKNQMPUlXgAw9JUuIDhJ/8CTeu7EfcvUsv13mggu0TjaLQrlAdVWu2Q8NmX6F6nc7iCFH2YOCRPa7cuSEvcHcj9jZu/xGLh4p/dDxKfIJnz5PkMETxO16cmf8VKVIERTU+RcliJVBOqwzKly4nBxzVKumjlp4h6lWpIbdz2g/Ll2HrzkDRUvx86n+GwZaWMDdLX7i5IGHgQZQxBh5E2YOBB2VGLQIPIqIPwcCD8rP5SxZj554g0VLq09MMI4YMQXmd8qKnYGDgQZQxBh5E2YOBB2UmPwQen4ivREREJExxmoBF7h7QKlVK9AC79wZjoqsLQo8fFz1ERERElJ8x8CAiIspAq+YtsHWDH8y6m4oe4Hp0NFxnz8Ty1T/in3/+Eb1ERERElB8x8CAiIspEaa3SmOY8Ga6TJqNo0aKiF9i0JQBO30zGuQvnRQ8RERER5TcMPIiIiN6hl6kpfFesQvs2bUUPcP7SJYyf7IzVP/nixYsXopeIiIiI8gsGHkRERFlQ3dAQ82bNxij74aJH6adNGzFu8iSEnTkteoiIiIgoP2DgQURE9B5srQZhmedCfN64segBLkdEyAuaLvvRG3/++afoJSIiIqK8xMCDiIjoPTVt1BhLFyzE10OGQkNDQ/QCm7dukUd7HDt5QvQQERERUV5h4EFERPSBhlnbYOkCT7T4/HPRA1yLisJUtxn4YfkyPHn6VPQSERERUW5j4EFERPQRGjdoiMXz5stre6ju5LJ1ZyDGT56Eg6FHRA8RERER5SYGHkRERNkgbW2PVs1biB4g+tYtzJg7B/MX/4CHf/wheomIiIgoNzDwICIiyiYN6hljkbsHxnw9AiWKFxe9wM7gPfLaHvsOhIgeIiL6WFeXd0afXorb8nDRQ0T0KgYeRERE2cza8it5tEfbVq1FD3Dv/n18N/97uMxyw9nz50UvEVEeSonF1d2r4DnBGnb9RHjQqwfGTHDBjiMxSE4V56mrxCiErnbBtzY9xHvvDCsba3h4BeJqnDjnDbEImag8d9buWNGXHWIQNGYcQjJ9XqWrq9Jfq+prdnKZi6CQCCRk+GcWDh9xrg+zISpkGHgQERHlgLq162DBd3Mw3mEUSpUsKXqBo7/+CscpznBfuEBe4JSIKC/EhbjB6StrTF4VgNCoWCSkiANIwZ2oMPgsGAbbSYF4x/V3gZV8xgtOQxzgGRiGC+lvHskJsTix3wuT7XvgW78IvBD9OS5iLwJjIvDL8RjRkYnU9NeaRnrN0RcPwnvxONgNcEDAxSRxhIgYeBAREeUgq/4D5NEeHdp+IXqU9uzfjxGO47Bk1Qp59AcRUe5IQrSPA0YvPoZo6dq5hBH6jZqGJd674L95F9Yv9YCjqRFKKQ417tIKuvJ91My1VZjsFii//6K67eEwwxvrFe/df7Mvlkx2RD8jTcVJKbiweSLcs3UUR2YUz7VXGS5d3boX0crOt2vrLF7zLqxZ5AHnQa1QQ37ZUdjgMh5B78hNiAoLBh5EREQ5rHYtI3jMnIW5M9zQrEkT0QukpqYiYPt2OfhYu34dniYmiiNERDnjRbgPPLdFySMXDBQXzWt+9oZ9ny6oUUULpcpoQbtGK3Rz9Ia/jy9GddVT3kmdpMYgaEkA7ijKosaOWLl6Fnq3MoK24r2XKmOIGh0tYL9wK+aY6SjOSMGZVa4IuivfM+ckHkPIITFyIzEYZyKU5VuV0xOvWQu6dVrBxMYDS5Y7orkUeiAGPluP5d7oFKJ8jIEHERFRLunYrj285nti+pRvYFy3ruiFHHT4+G2Qgw8pAJGCECKibKe42N+/OlC+2EedUXCbagZdDfnIm3QNoVtC1CrSFgqV169IjELIgmFi/Y8eGLM6/OVFdkJ4IHxcVNYGGTAATi6eCI3KaLqFyhoTYbG44OeCyQPS7/ftbB9ceNfcmrgw7Jid/lrsxsxFSAbP9SLMDz7y6AdjjHa2yPj9a2ih8ajZsC0jNWIQuDcrCcSHSw4LRqjiq0EFKWRJgv/eDwwr9C1g20dLLl9cjcEDuSIq3Bh4EBER5bIeXbthtdcyTBrviBrVqole5cKm0hQXKfiQprwQEWWr69I6EVKhhX62mVzsZ9XTMPiMd4BX2DNoV9CDtqYWOnZoiqKKQ8nH3DD8Wy/suBiLlFJ6qKGvuBVNQvTFYHhOGPDWxT6D5g3Dt5vDkaytuI+uFoo+j8eFMD98az8APuGZrE1xyhNOo1wUxx/Lr8WgRAoSYg7Ca8LQ1+6Tggu/HlSGCc37oe3b5utoGKNNX+UIl7hDR7M2zeSDxODwDmklUUOYTRoNE0X14vhRRDyXD7437YpVlcX9eCQrKyogHiUmIOj0EXjt9sN3/ivxzU8LMXbldxi62AWjls+Es88CzNy0HJ47fLEpNAjX73PeUlYw8CAiIsojX/bpi9VLl2PsiJGorJv+L29pMVNpUVNpcVNpkVMiouwQdyVcuQipZle0bSTPffhgF7atwplG07D+561Ysnqj4usmWNZRHivV1h6jTUdhid8h+PttlI8v2bwPa0YYo6g0TcTHBxcyuaCv3NwRK3bswwrpPj67sH2zNxzbSiMf4rFj9lycSFCe94pHj1HZxhv+W3fJz7Xi511iSoriPvP9EP1y0Nx1RJ9TVjXq1pLXKXkbA6OmyiLxMu48UpbZTl6sVPG1jjm+aNQULaSnTDmI4OPx8uH3lZQkvkF1qqrn+itq5tyNCMz5eSV6zRqFDlNtMcXXE6v2+mPz0T3YfeowDl8Kw6nISzj6+xkEnwlFwPG98AnZprjPKvSdMxbtv7HBpLXfy+dSxhh4EBER5aHixYph8EBLrFm6HPa2dihXtqw4Ann7WmkbW6dvpsgjPl788484QkT0/hLuiZ2hqisuhj9mdIfCi+JmcBzTBdppj6OpEqBoGKKboyVqaIu2oNtnDKykaSKKC/qzvyv7XtfczAwGqllMGSN0m7oQDoaKOiUMP+/L4FPtbrPg0t8IpdJeizQlxd4JvaU68RgiXq7B8TeSxFJJOmVLK4u3qVgZNUSZkiMzDdMXK23bswO0oYPmJsqQ5cTeo8go23mrpDCE7FKOnila01DxeJRfXb0bDYu542CzcAo2he7BzbgPWyjm8bMn2Hv2mDwapN031nIoQq9i4EFERJQPaJcrh+G2dli9dBkGDRiIYsWKiSPAmfBz8ogPO4cR+GmjX6HZ1eW///4TFRFlq6p6mVwMp6+l8fI2MTDDC2/dbl1RN4M1Pt5KoxZqfK4s78S+x+4nGoZo3F45vST6dPibr6doBqNVSiieSx5xEouHGQyWMKgkjQB5h+JayMJZHy7hAILlxUqbom1z5TOVat4FbaXi2k78+rZr4Bcq29OmJCEuPABejm7YIQc6hrDvLUanUL5z6VYkvnR3ROS9W6JHqUSxEmhm1Bi23SwxzmIEXAZPwFz7afAaNw/zRszANJtJmPClA+x7WMOkUVvolH71b3H8s6fytJefDgaKHpIw8CAiIspH9CvrYdxIB6z2WgqL3n2gqfKp6e07d7B63U9y8PH94kUIv3hBHCHKe0WKFBEV5Xu3YzMZPVAM2tJ6G9KtzNunvBhUfPf4gbSFS8e8XIB0MHzCxMH39HJ6ybXbymk5HylLgUvcbeTkb9m4Q1twQiqadkHztG+ndlM0l4OaGAT+8pbFUkNc0kOpfn3x9berEBInhSCaaDvWHb2lETGUL80JWCUqoGTxEhjUuT98Jy9DyPxtWDLOAw69h8KqUz/0atUdJo2/wOdGjdCuQWv0bNEFA0zMYd/TGnOHf4tdczZiq5sv/jdgNPTKVxaPCMzftkYe+UFKDDyIiIjyoZrVa2CyoxM2/LgaI4YMhaGBWIhO4a+//8au4GCMc56Eia4u2HfgAP7laAgieodSOmKb2dgHmQQexugnrZ2huM0cXEv0fYDUWIR+2wN2YuHSO9BRhijFk3DnAxfjhMbbA5is0UElfWV15493Txh58fSZ2C2lNEq972iWd0mNQOhW5fQck84dVNYT0UPzTsZyFRdyVGX9kXfRhEEjMzgv3goXMzXcTlhNJP/1XB7hkWbdlOUYaz4cRlXSJk+9n8o6uujfvg+2zPBR/B1LXwQ9/EbO7ixUkDDwICIiyseq6H+GodY2cvAxfcpUtG7RQhxRCjtzGt/Nn4chDiOwwX8zHsRlx2efRKSOKldRXkgjMRhncux6KAVXVznAMzwFqNAejou2YvdW5cKmS/z2YYGZOO19papM4fhghqjVRBmcxJ08p9ye9y1uXDymLPTrw0Deojb7vAjbAX95+kkXdGyj3Eo2jXbLrmguFYmBCAnL5H13ngb/zbvEbR9279mHFR7OMDF69bEof0n++09RKfkf3o7E5Gei9eGCw0IQfT99isyT5Ex2NCqEGHgQEREVABoaGujRtSsWzvXA8oWL0K93H2hppf/DNvrWLazyWStPd/H0WoLjJ0/i+V9/iaNEREDR5h3QW77eT4K/byDicmIhzsRjCAqWLrYM4TB7FrrVyZ5VMO5ESVu3Khh/3O4jNZu2l7fOxf0AhEihTGYSDiLogPK4bpvPYSBX2SUeJ4LF9rg4iFlpU37SbvZeOCMfS8H+k2HivNcU10GpMlrilh2jXyg3FFH8p2rbsSCYuX4FlzWzsengVlyIvowU1fVZMnHj/k3sOrEXczf+gD7fDob7ph/EEXodAw8iIqICpknDRnCWprt4r5a3tK1dy0gcAZL//BM7gnbjG7fpGGhngxXrN+BZsTJ4ofGpOIOICq0S7WFmqVzc4UWEF2atCkNyJqFHSkqGl9nv9vwZkuWiKWplsI7E3x/ysCq7jzTv0Oqjdh8p2soG9vLrSsKOxatwNaMPwlNjEeK+AKHydacxvuolRsZkl7sHECTym3d5cSgw4614Sa0cu/QbVuzywdglU9DZ2QLdv+mP/m5DYPf9GIzzmgL7BeMxcLY9erpYop2TGYZ8Pxbzf16KvadCkMD1Ot6KgQcREVEBValiRXlLW98VKzHn2xno8MUX4ohSwpMnOHH2HB5pVcLdctUQ/uRvrN+8Cb9fvSLOIKXzWNa9K75Q3JadE11E76mg7CpkYOkOR2PliIA7wS6wHeGCDbvDcCcuCcmJSUiIDkOIlwOcfMQWtu+rTHlUlh/+AE6EqaQJqUmI3jYJHiHKZnxSxp9i3/k96tUQJiECQbPE7iMVLPBV149cn0LDEKajLJQjNh4FYvJQBwSERCBO8d6TE2MQHeIDzxHD4BUhvT5NNB81Dd0yGVLy4rnye5bZ7UUmYVL0Xj9claumcPROm5by2m2RDerK54TjxJkMtpmhAk9asLRFnYx30/nzr+eIe/KHPE3l/I3LiLx7A7GPH+DZnxlPVfmsgrTYcPoaHpSOgQcREZEa6NShAzzcZmHN0mUYMXQYmjRqJI6kS0j5F96+PhjpOB62I0dgycoVBWfqy9MohPzgjGEDzeRg4ovuZuhrNxoz1x3CrafiHKI8FPrrcflns0NPU8z1XCDvqpQvaeih2zxvOLfXk6d2vIgLQ8AqF4yx7wurQX1hN94FXvujlKM0NBXndm2K91oVokR7WNgbKx47CTtmKx7TxhpOI6xhN6AvnHxi0LatcrRE9L6dGY6uOLPZAVZfDZDv42TTA31sxsFbCh80jeHwrf37b4WbgaKNHDF3qhlqSMHM8yhsWDwOXyveu9WgYXBa7IdQsdtJ40GL4Non84DlwjrFa5Xvl9FtKo48Eieqen4MIfKUH8Xr6GyBjlXSpqW8dqtjgbSdZU/sOJAtO9NQ3vtP8V+aUsVK4ocxcxE0dzNmD3VB37Y98VkFsaruO5QtVQYdm7TDpIFjsWnaj/h5+lrUN5S395GpPk9hx8CDiIhIjdSrUxdDB1tjuecibFrjA5svLVAy5c/XZg1La37cRMCO7S+nvrjOmol1mzbit9OnkZSU8SdIeebeTrhK4cbe84h8mvapcAoeP4hCyEZ3/HQ6n71eKtRSU1Ox95f9GPy1PabP+Q737t8XR/IRDUOYTN2IDSumwb6V0Stb0JbS1kPjVmZwmOwN/60b4WhmqFzz4j3o9lmGlZPN0FzxuMkJsYhO+BtVm9rAzfsnOE6djTkWTWGQHIifD7+5NWy3Qc7oZ1QMCY+k+6WgaBk9tDV1xpJ1y9A7Gxfk1G4vPaY3nE2booZ2+vsvmrYVeJmuGGghBTfZ68WZowiSf40Zwv4rsZ5IhnTQ1qyL8niMH0KvyZ1UwL2+hoeknFZZdG7aHlO+Go+fp6/B8SXBcggihRg+k5dimeN8rJm0BJunrZa3oj24YAf2uPtjzjBX9GvXC1UrVZEfp0iR9Ev7jJ6nsCqi+KXM+IeIct3dG5GYatldrqvUrI15Ab/INRFlr5tXLmG6TR+kKv4hpFWtLvQ//wKnzp5B4rPMV4X/5JNPULtWLdSuWQsNjOujYf36qFpF+Q+q3CRNEShS5AGCnGzhIc3CqdgOE8dbo2M9PRRLvI1L5/Zim98z9FkzEyZllff5MNKUFmdsVlSD5h3AuM+VvfR+ihQpUmCmdUg2LJiF/f6+cm072Q2mVsPk+kMdOX4M02bPEi0l6ZJDWnB40EBLWCtupUuXVh7IxJPkRLSdPFiuy5Ysgz0e/nKt/sLh02sSdiiqfnMOwT7jUf65434gZo31whkplChhBNtxzujWygja2b0trRp59PQxLGbYynWlcuVxxH2dXNOb4p48RifXIXJdoUx5BH63Qa6zw/f+S7D75H65nmU9HgO/MJXrvBT/8AEce7aWa51KleG19ze5zk0c4UFERFQIaPz3LyoX18As12nYu20HFs/7HgPMLaCnW1mcke7ff//F1chI7NobDPeFCzDIfih6DeyPSdNcsHjFcmzftROnzp7F/Qdvfjqb7f44hSPykiNaGOkyE/1bG6F8WS1oGRijjfkkePp/bNhBlHOk+Oef1FT4/ewPi8FWWLRsKR7+8YfyIOVP+hZwW+qMbrqayukuCxxgp7qLyoJjGe+aQkT5EgMPIiKiQqjF583wv7HjsHWDH9Z7/4hv/jcRFr17o369evj00zd3dHny9Kk83WVL4A4sVFy0/c/lGwy0s4WJWQ/YjBiOqW4zsHz1j3JIEn7xgjyM/8WLbLgseLnoX1WUryBKVRria5oHO+Esr/GxFJdF1yvedTxeuVaItblyEVNTK2mdkFN4/LHbdz44jyDVNUjMLeG6SvG4KRFYZ61oe50XJwKPdzoqz1HpU/XO47/5YuZIC3SS32fae8horZNYBDkpz5EXa31wCusmW8JUvp8ZXP3Xi++VK0IzWyfl1kYMk87p7Y4zz0UfvUEa+fLX339j266dGGBng5ke7vK0MsqnqpjBcfVWrJhsj96N9KAy4wU1qlTN9mkuRJRzGHgQEREVcjWr10DfnmaY7DgBPy5ZitDgfdjw42pMn/INLL/sLy+AWqJExuO5//nnH9yMicGxkyewaUsAvv9hEcY5T4LlUDt07NUTvQYOgP3Y0fJaIQuXemHDz/7Yf/BA1kOREqXFgokROHEh53cq2Dx/NGYevA5NHT3ULquJJCkA2eiKvnYzEXpPnPSekk4vxbCvneEhr0ECVPtM8dg6wNntisf90hk/ZdcH/tJWmlPN0HfGRoTcSkHpyorn+UzxRPJ7cIe1nTNCMnsPt3bC+WtX/HSrGPQV99HSbALT7r1hKk/vOYX9v2X8vb/16z5EKr5qdjdDcw75zxJpjY8DRw7LCwdLQaH094fyIQ0tGHS0gYPHRqzfcQi7dyh3T3Hvn8Feu0SUbzHwICIiojfUqFYdPbp2g9Oo0fICqAd27saW9Ruw4Ls5GGX/NUy7dIVRzVoZjgZR9eTpE1yLipJ3g9m+exdWrV2D2d/PeyUU6WreRx7ubzvya4yeOAHO37rKn4D7+fsDZVvCtJPy49XQpU7w2BmFpI8dbfEWDXq7Y9fOQPj6boDvlmAc9nVF/4qKA38ch+sUb0S+73Pf24KZ03YiMgWo1tVVHgGzUXps3wDs37ISE2tLy69mhyRcXu6EmedSoNlgmPzadyn+vOTn2bsBnl11gOfnMXPKUlzOYCTGNh9vYNBK7PYX99k+EyY6OjAx6ywfDw0+hsdypSoGZw9I05o00b9dE2UXZUnaWidSUGjnMAJeq1bKf1coH9MUu6eojPYgovyPi5YSUZ7goqVEuSNt0VJJ9XoN8Z3fbrnOTtL2mzdvxyD65k1Ex9zC/dgHSHiSgPiEhI+a1lLHyAg+y1cqruXP48cxrlj3QEQDJYwwaMx4DO1qDK2MprTYLcVJmMP7l/FoILpfyvD4OxYtjT+EmXbuCFE8vcmkALib6ogD75KCs/Mt4HhAccd6DtiyaCD0X3u90vSUvssjgN6e+NVRGRpk1Kcqw+NXvGHttAW3yvaEl+8kNHt9M4vUGGwbPRyLbgHdpgRiZlfpBGlKi1gQtt547FpijvLyySqeH8eigTOxLcUQE9euRX8D0S+RprOM9EVk2YHw9XeAzpPH2LknSBzM/y6eCMX1y+Fy3bhtR9Rs8HGhza3bt3HoaKhovb9PNTTQqUsnBEQfl9uFa9FSKshUFy3V0iyBkU17yTW9KSnlOX4M3yPXXLQ0dzDwIKI8wcCDKHfkRuDxNs+SkpDw5IkcfkghSFqd1pbWBnmi6JO+vr5zzMvAQ5KahMggLyz0OZQ+QqGEIfqPmYGJpipDzHMi8FCIXGWBYduTgAbjsWtRBsFARqSwwHwmtkkjINwCMfGLNz8azq7AI3K14vVtSYL+QC9sGWEs970u7RxNc08cHivdLz3wSA9B3nTZywwOQSloMGItvAemf69vbbSF9bpY6H+peM5RxrgaFYnhY8eIo/Qh/tMAnlQvLtcMPKigUA08PklV/Oze/Euu6U3/floET6sVk2sGHrmDU1qIiIgox5TW0pK3tG3SsCE6te+AL/v0xdd2QzDFaQI83GZh5aLF2Ozzk7xzzLF9v2D3z1vg9+MaLPNciNFfjxCPoqChhdrmrvDeHoiNLgPRTFov4nkMti0cDeedOb9bTDXjlsri8m28fLZzS5WLh6reVBcSjYvBJbmohYa1c3IcfCwiLyfJ1f0tYkHTDG5S2CFJyWBaTgWdjMMOSYPO5tBXfL0coFyvQykGZ0Ol74QWerfLOGCh9ydt7UtERNmHIzyIKE9whAdR7sjrER4fQ1rnINMLwNRYnFzoBOcD8YBmO7hvFNvT5tAIDzncmLpTUajc72WfCtVRGRnd5zXZM8IjfaSGfoOe6Fbz7eFK+ZbW6N9CmpaTfr9M37csBtuGDceie1oYuSgQQ6Q3cmcLHIZ747I0nWWLA2oruh49fnVKi/Rnl7ZWRVqd9ueZ1i/5mPNeryVZPZY2paWI4r9GX5igZv3073XaedJXSVqt+lWi2nfrdgwOhn74lBaNTz9F584dOaWFCpxXprQUK4HRzc3lmt70LOU5Vp1W/n+DIzxyBwMPIsoTDDyIcofaBh6Sl1NGVC7YcyjwSDnqjk5zDimuQtMv8JGagqSk15Yc1dSCVtpuJVe8MdBpC+7DGDM3eqGbtPjpa7I78GgzdgM8zfWUJ75TVgMPaeTIcAxcHfNy+kpau/aQtfC1Vk5zUQ0CCoINC2Zhv7+vXNtOdoOp1TC5/lBHjh/DtNmzRCvrihcvDotevTFowEB8Wrwo2k4eLPcz8KCCQjXwqFSuPI64r5NrelPck8fo5DpErhl45A5OaSEiIqKCqYQBDKspy/txObtl7f07V5RFbSN5eodMQxNaZbVevaluzapvhPpycR3X7shFDtGDXlVldTLiRjbt+vIq/S4DYKL4ej8oEGefx+BkiLSVqh56f8EtOj+UVqlSGDl0GHZu/hnjHUahQvksrQxDRETvgYEHERER5W+ZbQV77xRO3pIKTVTTFzunvNwFJQK37olSRdLlMJwVdZalRiA0WLlyh0mHJsh8tYvXlK2H5vWkIgXbth2CcgWNLEh7D1eicF+U6eJx+dR1Uadr2Lqz4rugcDgAv2Twvj+aTit0kkaApBxHaNBx5fe9Wl+0EYETZd0nRYrIWz4HrNuAIYOt5eCDcsbVddZwGtQDfXp1Vrn1gJ29Azz9wpCQg1tcE1H+wMCDiIiI8jVpdxHT4a7YvP88bj1IQtLTGETu94bjGG+clE6oaI6OaXNXKjYRF+FR2LztFJJULmgeH16I8YtPvXUExKXjp/BY9SLoaRSC5szEj38o6ooDMbRrVrekleihe39lEJFy2hPjFx569bFTY3E54rZopCvfuL1yqs2NLdh+WiUmEeuWzDz95jvQ/GIYXBtIzxQBjynuOHnv1XNS7p3Cjwt34rFovz8dtOkqLdyagm2rfeXve4NuLdNHu9BbSROzpG1n+/Xugy3r/TB9yjcoW6aM8iDlnKRYRCe+/vclBQlxUQjd7AK7ryYh9M1UkYjUCAMPIiIiyr+eH0dQUBKS7pzCsoXOsLazgOnA4Ri2cAvOStvTVmwH9/kOqP1yZIch+owyh5R53ApyhemXlhg2zBbW5l3R1yMMtQeao43yxAxdVtynr7mFfJ9hVmb4YuBoePwan8HzZI1mB0csNdeDpuIiK3K/O/r2NIO19NjDLGHa0xauhzMY92HQE+N7S8FKPDZPU7xfq/Tznc/VxMjeGe2Koodusz0xUlqw9I9DcB5mJu6nuA00Q6dhrli33xvrfs3yOJM3aH1hhv6ilr7P3VtzOktWlCxZEjZfWWH7xs1wdnRCZV1dcYRyTedp8N+8S3nz8cYc+/aoIeWDz8OxxPcgkpVnEZEaYuBBRERE+VeJdhi5zBXjWhuhdll50oaCJspXboJBYz2xa/1MmHwmugXNz8fDe9l49K+tA63n8Yi89xhaja3htT4ALqZisYsMtBm1FvuXTcKgeqXx+I9YRManQEvHCN2s3TN8nqzRQoOxG7B1tjW6Sa8HKbh1Lxa3koqhWc9J8LTOKLyQ7uMD37Gd0UxHE0nx0mspjTbidXTPLGfQMsaQZQHwndQTJpUVzyTdT/Fc9zXKw6TTMHj+GICJX2R5Qs6bSjRBsxairtcXHQ1ETRmSFnHtZdoDO/w2YdTwr1Fe531GB1G2Kq6DUmW0lDddIzTuPwueTu3lQy9OhOM6p7YQqS3u0kJEeYK7tBDlDrXepUUNvGtHlvzmsldXOAQBJpMC4G766gU8d2lR7tLyySefoLOJCYYOtkF1w/cbBfMkOZG7tGSjq8s7Y3KwojBbiN1jmyo709wNwGSHVbgKYzivWwaTCqKf3ht3ack67tLCXVqIiIiIKF+KR6y83kETdGrB0Qqv69iuPX795QCO7fsFs1ymvXfYQbnrxfXfcVUqDDugLsMOIrXFwIOIiIiI3i41FmeXT4P7OUCzhRnaMO+ggio1BXFhXnBdckzxw2wEB2dLcFUVIvXFwIOIiIiIMhGBzWLBVMedUUip2BnuEzpnfWteovwgeFL6trR9e+Dr2YGIM7TEnFXe6F1DnENEaomBBxERERFlIgWP7yWh2MtFYl3RpqI49JqCtH4HUUJUADxmzEVI1IfvXERE+R8DDyIiIsqX1H3BUkl5cy953Yf8u2BpE4z7JRi71ntinHkTlH/PbXmJ8gXVbWk3+2LJDGfYN9dDyt2D8JowFD7hDD0od5QpUUpUwKPEx7j/+IFofbxrd2+ISlr0mOPw0jDwICIiIiIi9aW6LW0ZQ9RoZYZ+s7zh1k26KIzHjtXBiFOeSZSjShQrjsbV64gWMHT+WCzfuRZRd6NFz/t5kPAQ247uwsDZ9oi8c13uK1ZUE81q1ZdrYuBBRERERESFjhYam3RVljHhuJGoLIlymutAB1EBf/71HJsPbcOwBePQbUp/OC1zgXfQT/A/vAN7wn5B6IVfcS7qIo5f/g17Tx/E1tCd8Nm7EdPWzoH5dBsMmDkUP2xbhViVkSJOfe1QvnQ50SIGHkREREREVPikpojiGZKfi5IohzWsVhs7v12OOp9VFz1Kz/9+jrNRF7AhJADLAlfDY9NiTPOZC8dlUzF19WzM9VuIxdu94bNvI0IvnsDjxHhxTyWd0mWx6OupGNrFQvSQhIEHEREREREVMkk4c/iAstSsDQPuTUu5yEjfEDumLYXfpPkYbNILNSobiCPvRxrJ0bNZe3w/dBKOf78RPT5vJ45QGgYeRERERESkvv6KR3JikrjFIPpIIHwmDMCsI8oRHnUtzVFXrohy1+c1jfHtV6MRNGMljs7bIAcXo3paYVCHXujTshM6NWyFlrUbwqRBC5g1N4Flu56w79ZfcZ9R8iiRY9/7YeHwb+RzKWMMPIiIiIiISH0dmgurQX3FbRicFnhhR5QUdmiiRrdZcLU0VJ5HlIcqlNGWgwvHPjaYbjVaDj+Wj56OnyZ4YOUYN3jaT8bMwWPh3G8YBpv0lkeJ0Lsx8CAiIiIiokKjaBk9NG5lCedFm7BkQntoc7tlIrXFwIOIiIiIiNRO3bGHsHvPm7ftmzdizoxRMKmjI84kInXFwIOIiIiIiIiI1A4DDyIiIiIiIiJSOww8iIiIiIiIiEjtMPAgIiIiIiIiIrXDwIOIiIiIiIiI1A4DDyIiIiIiIiJSOww8iIiIiIiIiEjtMPAgIiIiIiIiIrXDwIOIiIiIiIiI1A4DDyIiIiIiIiJSOww8iIiIiIiIiEjtMPAgIiIiIiIiIrXDwIOIiIiIiIiI1A4DDyKiPJL677+85cGNiIiIiAqHIqmpqf+Jmogo19y9EYmplt3lukrN2pgX8Itcq5uYh/cRHn0Fl2OiEP3gDu7HP8TjZ0+Q/NdzcQblNo1PNFCmZClUKlseBhUqo/Zn1dCwWm00r9UApYqXEGepj5tXLmG6TR+5rl6vIb7z2y3XRIXdhgWzsN/fV65tJ7vB1GqYXOelJ8mJaDt5sFyXLVkGezz85ZooP3v09DEsZtjKdaVy5XHEfZ1cE8U/fADHnq3lWqdSZXjt/U2ucxNHeBARZbNr925i8c516PvdGPScORKu63/AptAg/HbtAm7/EcuwI4+l/puKhKRE+c/pwIWTWBG8GaNXzEKLiQPx9dLpCDi+F3/+/Zc4m4iIiIgKKo7wIKI8oY4jPA5fDMPG0CCcuBIuet5O4xNmznkhK9NaND8tioHtesC2Ux9UragvegsmjvAgylhBGOFRrXJVuSbK7y5EX5a/coQHqcoPIzwYeBBRnlCnwON01GWsDN4sj+B4XTHNYmhm1BgNq9VDzc+q47MK+ihfRhulipdEkSJFxFmUm/5J/QfP/kxCXMIfiHl4B5F3buDizd9xJSZSnPEqu87mGNfbGlqKP7OCiIEHUcbye+BBVBAx8CBVnNJCRFTAzdu6GkN+mPpG2NHl8w5wHz4dB+Zvx/yRM2Hb/Su0rd8ShrpVoFWiFMOOPPSpxqfQLl0OdasawbR5Z4zvNwKrJy7G9lnr4fSlg9yvav2hnTCb6YDdpw6LHiIiIiIqCDjCg4jyREEf4SEtQuq2cSmu3I0WPUoDTcxhqbjpla8seqggCrtyFv6Ht+P0tVenJ33VvifcBo0VrYKBIzyIMpZfR3hcj70tWkQFk7QIOJGEU1qIqNAqyIHH3rPHMMXXU178Mo1J4y8wstcQeQQHqY8DZ0PhvecnxD6OEz1AC6OG8LSfjIpldURP/sbAgyhj+THwICJSJ5zSQkRUwGw5vg+T1n7/MuyQFh6dYuWIufbTGHaooa7NTODn4o3erU1Fj7RmyyXYL5kmbzlMRERERPkXAw8ioizaduIXuG1aJlpANV0D/DhxMfq26SF6SB0VK6qJqYOcMOFLB9ED3HhwB2NWzsb9xw9FDxERERHlNww8iIiy4MilU5ju5yVaQINq9eA1fh7qGNQSPaTuBpiYY/bQqaIF3Iy7i0k+3+Of1PSpTURERESUfzDwICJ6h9t/3MfUdYtEC6hvWAcLHGZBp7S26KHConPTDphr/61oARduXoPL+vSfDSIiIiLKPxh4EBG9w6xNy5H4Z5Jc62pXxOxhrihdUktuU+Fj0ritvG5Lmj2nQ7Hh8C7RIiIiIqL8goEHEdFb+IRsx8lrF0QLcLWeKIceVLhJ67ZYdf5StIB5W1bLU1yIiIiIKP9g4EFElInY+IdYvGu9aAEje9mhmVFj0aLCbpz51/L0Jsl/iv+8dvvJNRERERHlDww8iIgy4b0vAP+k/iPXxoa1YdfdSq6J0owxHy4qYP+54zh59bxoEREREVFeY+BBRJSBmIf3EXB8n2gBw3pYi4ooXeOaDdCnjaloAb4HtouKiIiIiPIaAw8iogyohh0t6zZDG+MWokX0qsGdB4gKOB5xDpdiIkWLiIiIiPISAw8iogzs/O2gqIAv2/USVWEUDp9endFHcfMJF11pkiKww8UaHqvDkSy6CiODSp/BtHln0QJ2/XZIVERERESUlxh4EBG95tDFMMQnPZXrzyroo13D1nKdE5KjguHjYg27fspQoU+/vnCa4IIdR2KQnCpOyqcSjq6Az8VYnAici1+iRGdOiAvELDl0GYeQONGXgYTd45Tfw4mBSBB9snAvZX8vL1wVXdmtZ6uuogL2nTsuKiIiIiLKSww8iIheE3rplKiAzk3aiSr7xQVPwvAJnthxMRYJKaIzJQnRUWHwWbAKF14bNvHibhhCvCZhzOrXh1rkDe1mZmhbAihlZInmNURnIdW8dhNU1tGV68fPnuBU5CW5JiIiIqK8w8CDiOg1v127ICqgTf0cWrsjLhCrliunghi0HYU5SzfCf/MurFk0DY6mxtBu2xWNyyhPTXNjpwu89ofjTlo4ktd0zeCy9RD8F1vCQEP0FWJtVdZ5+e0ad2shIiIiymsMPIiIVMQm/IE7jx7IdXHN4mhUo75cZ7eEswdwRirKWMJ5qiUa19BDqTJa0K3TBd0cl2H91C4oJZ9JBUWTWg1FBZyPzqnJM0RERESUVQw8iIhURN2LERVQr2ptUeWAtPU59CpDO6PREa/0KRcOnRwsmsGTxJoUr69LkbbAaGZrXbz9uHI9kQGwEo9tZTMJPiHhSBLH06UvZCrfXl8zQ3h9fZIvB1nDwysY0YniBDVjbJj+83Lt3k1REREREVFeYeBBRKTi5sO7ogKqV64qquynWaq0srh2DBczSgteUQza+nowKCGaJXRQQ9FW3rRE58dJX08kHsmaWvJj66b+jh2L/RAizkmnfD01tDVF+3VJuLN5HGzF+iRJxZWvVeuvWJzY7wmnIQ4IiHgzRinopDU8ShUvKdcJSYmIf6Zc+JaIiIiI8gYDDyIiFXEJj0QF6GpXElX2K9XSDL3lvCAcSya5ISTqbQGAMfqt3gjHTqLZaRqWKNrKmz3qiu4P9SLcC7Pk9UQ00dbeG/5bdykfe/NWrLAxRlFxXjrl61kyyUy0X/XizCrM8ovAC+ig9+SN2L5Z+VrXKx53jpkOkBKFDd/54OpzcQc1oquT/jPz4En6zxIRERER5T4GHkREKhKSn4kK0ClTTlQ5QKs97GdYoIYm8CLuGLwm9IXVBE+EXosXJ+SS1BjsXx2IO4qyro03XPobodTL6TRaMBg0HL1FK2sUj+cTDGnGTF2bhXDoqKfslmhoofEoRZ+hok4MxM8HYpX9akS7VFlRKd7in+o3ioWIiIioIGHgQUSk4u+Uv0UFFCtaTFQ5o2hTRyxZ5w3HjobyAqXSmheeEwfAymEuQtNn1uSs63sRKC9b0gVfWUhJxEe6H4bf5MczRvfOGTyehiEat1eGIGfORMi71KiTYprpPzN/qfwsEREREVHuY+BBRJSXyhih22Rf+G/2hZuFkTL4uHsQnuPHIeS+8pSclBB5WR6NgTr1UTNtjZCPEfcAyk19a8NAVy7eoKMr1kaJjFI+t5oqUqSIqIiIiIgoLzDwICJSIW1Fm+avlL9ElQvKGKL5CG/4+0xD7wqKdkoEVvoezPEREHG3I5RFTUNoK6scV0pbTHNJTEGKslIbr44QymxRVyIiIiLKDQw8iIhUlNMSu6coJCTlwS4bul1g/3UXuXxx4nd5bY0cpSEuyh/G59r0koTYSGWhryOPaFEnCcnpPzNlS6b/LBERERFR7mPgQUSkonI5aXiF0oP4vJlwUbS6kdh5JQZx79yy9uPoVq2lLLJreoluZTSWi0jEZbJJScKD28pCXw86yiqLbiPhsSjfkIIbV8VoldKlkVdjK1R/Ziprp/8sEREREVHuY+BBRKSimu5nogJupl2Y55RU8fU1cWeO4qpUaBpCV2WeiWYJLWXxZxJeKKs3KGdRROBORkNDroXhjCjTaDfqoAxXEoNx5Ew27Cqi3wqt5bVKI3AiPIMdZ5LCcCRE+Txt2zXN2giPCoYwkN9XEvx9AxGX0fftbiD2HFGWdRvVypORI7GPH+DPv5R77eqULgttrTJyTURERER5g4EHEZGKOp9VFxVw5baYepETUiMQYNMDk2f7IPRiFBISk5B8NwKhqx3gtFo5UsGgT1cx0kPJoG4rFJWKEz/jiOqCpi8DgPpo1E45tiHo54BXgoHkqAB4TAt4c4pMFTN81VG6TxJ2zJ2EgNdCiuRr4e85rcYQnQYoX+eJFTMQFKUSoqTGIHTJAuxIVNQVLNCvXRbHd2g0RTdL5Y4vLyK8MHqCJ0LCxPcsLgoXtrnBafwqZZij2Qr9MtodJhdExKT/vNRV+TkiIiIiorzBwIOISIVuufIwrKQv19IClOdvXJbr7PYibAf8E1NwNcwPni4OsBvUF1YO4+AZGCWvpWHQdhrchhgrTxaKtrLHaGNNeUFTrxE9MGaENZxseqDP7LTFTTXReNAoNFec8iJiFb4e0BdO0jmDesBqgg/iLSzRWz5PlRaaj/aApa70uFHY8O0A9BkwIP1+E/3eGBXyLqU6T4N7Hz0UVbxO7wmK92WjeCzF49kNGAbPE/GKl2kMRw9H1H2PXWEMLN3h0lYZkLyIDobXbPE9s3fAtz7HEC2tfqppBNu509A2t1ZffU349YuiAprUqCcqIiIiIsorDDyIiF7TsnYjUQEnfz8lquxVtJUTlky2gYmRHrSVgzIUF+xaqNHIDI5zNmLFtC7Q1RD9aTT00M1tKRw7GqIUUnDnfiyi/1LcR/Pv9N1O9C3gtsoDto0Uj4skRN9/jIQqXeG8eCsW2IgRIq/Tagrb1b6YM6gV6pZRvJjn8Yh+9AyoJt1vGvqJ07JOC3VHbcTaOY7o10hHWqVU8TpikVRcD21NnbFk3TJ0U2ZKWad4722nbcV6+TH1YPAyLNGEtq4RTAZNw4p13rA0FtN+8sDJiNOiAlrVSf8ZIiIiIqK8USQ1NfU/URMR5Zq7NyIx1bK7XFepWRvzAn6R6/zgyKVTGLNytlzrl6+MgBk+ck2UmdPXwvG/FdPkukIZbRydt0Gu84ObVy5huk0fua5eryG+89st10SF3YYFs7Df31eubSe7wdRqmFwTEVH2iH/4AI49W8u1TqXK8Nr7m1znJo7wICJ6TceGLVG+TDm5vv/4AY5ePCnXRJkJPhUiKqBHs/aiIiIiIqK8xMCDiCgD/Vp3FRWw43iQqIjeFBN3FyFnxBYxCuatOouKiIiIiPISAw8iogxYtushKuV0hV8vh4kW0as2HtwiKsCkQQvUr1pLtIiIiIgoLzHwICLKQJUKlTGoQy/RAnz2bRQVUbqzkRcQHJY+nWVIFwtREREREVFeY+BBRJSJkT0sUayocguVa3euw2cvQw961Ypda0UFmDXvgNZ1GosWEREREeU1Bh5ERJnQLVceTn3tREs5yuPU1XOiRYXdku3echAm+VTjUzj2sZVrIiIiIsofGHgQEb3F0C4WaGf8uWgB7hsXyTu3UOG24/gebAndKVrA1AEjULWinmgRERERUX7AwIOI6B1mWI2BTumycv0oMR7Tf/LA0+REuU2Fz8FzR7Fwy3LRUu7KMtgkfb0XIiIiIsofGHgQEb2DtICph91E0QKu3Y7CZG83/PH0seihwkLaftZt3TzRAj6vaYy5dhNEi4iIiIjyEwYeRERZ0L5+M7jb/U+0gIiYaxjn9Q1+j7kqekjd+R/ajlkb5osWUEvfEAuHf4NPivB/pURERET5Ef+VRkSURRatu2COjZNoAfce3YfDoonYfjxI9JA6Sv7rT3ntlmU714geoE6V6lgxarq8sC0RERER5U8MPIiI3sOXbbvBa6Try+1qJYu2rMDU1bNx495N0UPqYt/pQ7D1GIXgUwdED9CmbhOsHT9HnupERERERPkXAw8iovfUtUlbbHL2RMNqtUUPcPzybxgyf6wcftx+eFf0UkF1/NJvGL90Kub4eeLhk0eiF7Du2AdrHee8XMSWiIiIiPIvBh5ERB+gnkEN/DxlEey79Rc9StL0lsFzR2La2jk4HH4ML1L/EUcov5O2G950cCuGzh+HqWtmI/z6RXEE0NOuKK/XMc3SQfQQERERUX5XJDU19T9RExHlmrs3IjHVsrtcV6lZG/MCfpHrguh89BWs3OuPY7+fFT3pND7RQLM6TdCgWl3U1KuGKhX1Ub6sDkoVK4lPFMco9714kYKnz5/hj4RHiIm7g8i713Eh+ndcz2RK0vBu/TG2tzWKq0xjKkhuXrmE6TZ95Lp6vYb4zm+3XBMVdhsWzMJ+f1+5tp3sBlOrYXJNRETZI/7hAzj2bC3XOpUqw2vvb3Kdmxh4EFGeUKfAI83xiHPYeGQ3Qi+fFj1UUJUsVgKW7Uxh06kv9HUqid6CiYEHUcYYeBAR5az8EHhwSgsRUTZpZ/w5Vo5xw+7pKzG212DUrVJdHKGC4JMiRdChQXPMtZ2AEws2YUr/rwt82EFERERUmDHwICLKZjX1DOTAY7vrUhyY44P5w5wxtIsF2hs3Q83KBihXqgyKanwKjU8+4S0PbsU1i6FS2fJoYGiEns3aw6mvLdaM/w7nlmzHqjEz0a9NV2h+WlT8aRIRERFRQcUpLUSUJ9RxSgtRfsQpLUQZe31KS5WadeSaiIiyj8eowfJXruFBRIUKAw+i3MHAgyhjqoEHERHlLK7hQURERERERESUTTjCg4jyBEd4EOUOjvAgypg0wuNudKRoERFRTnNZuVFUuYeBBxHlCQYeRLmDgQcREREVVpzSQkRERERERERqh4EHEREREREREakdBh5EREREREREpHYYeBARERERERGR2mHgQURERERERERqh4EHEREREREREakdBh5EREREREREpHYYeBARERERERGR2mHgQURERERERERqh4EHEREREREREakdBh5EREREREREpHYYeBARERERERGR2mHgQURERERERERqh4EHEREREREREakdBh5EREREREREpHYYeBARERERERGR2mHgQURERERERERqh4EHEREREREREakdBh5EREREREREpHYYeBARERERERGR2mHgQURERERERERqh4EHEREREREREakdBh5EREREREREpHYYeBARERERERGR2mHgQURERERERERqh4EHEREREREREakdBh5EREREREREpHYYeBARERERERGR2mHgQURERERERERqh4EHEREREREREakdBh5EREREREREpHYYeBARERERERGR2mHgQURERERERERqh4EHEREREREREakdBh5EREREREREpHYYeBARERERERGR2mHgQURERERERERqh4EHEREREREREakdBh5EREREREREpHYYeBARERERERGR2mHgQURERERERERqh4EHEREREREREakdBh5EREREREREpHYYeBARERERERGR2imSmpr6n6iJiHLN3RuRmGrZXa6r1KyN5p1M5ZqIsl/gmqXy1+r1GuI7v91yTURERKTuGHgQUZ5QDTyIKHcw8CAiIqLChFNaiIiIiIiIiEjtcIQHEeUJaYTHmcP7RYuIcovF1+NFRURERKTeGHgQERERERERkdrhlBYiIiIiIiIiUjsMPIiIiIiIiIhIzQD/BzgpJ7yZGrh+AAAAAElFTkSuQmCC;" parent="1" vertex="1">
          <mxGeometry x="-1334" y="1370" width="1084" height="511" as="geometry" />
        </mxCell>
        <mxCell id="7t95IsRG9MrjCQRzBxsa-1" style="edgeStyle=orthogonalEdgeStyle;rounded=0;orthogonalLoop=1;jettySize=auto;html=1;entryX=-0.003;entryY=0.437;entryDx=0;entryDy=0;entryPerimeter=0;strokeWidth=4;" edge="1" parent="1" source="hUWde75QBHBQGM5C3ecS-35" target="hUWde75QBHBQGM5C3ecS-1">
          <mxGeometry relative="1" as="geometry" />
        </mxCell>
      </root>
    </mxGraphModel>
  </diagram>
</mxfile>
